<svg width="165" height="24" viewBox="0 0 165 24" fill="none" xmlns="http://www.w3.org/2000/svg">
<path d="M128.895 7.23296V9.38434H128.958C129.975 7.72471 131.691 6.77195 133.756 6.77195C136.961 6.77195 139.234 8.54605 139.283 12.5106L139.284 12.6123L139.31 12.4957C140.121 8.9908 143.272 6.77195 147.335 6.77195C150.01 6.77195 152.285 7.72078 153.766 9.35758L153.766 7.23296H156.625V2.46191H161.422V7.23296H163.485V11.1054H161.422V15.3774C161.422 16.6715 161.758 17.111 162.935 17.1287L163.012 17.1293H163.485V21.432H161.55C158.599 21.432 156.67 20.081 156.626 16.7558L156.625 16.6376V11.1054L154.919 11.1054C155.357 12.0584 155.596 13.1429 155.596 14.3325C155.596 18.8811 152.101 21.893 147.335 21.893C143.227 21.893 140.052 19.625 139.284 16.0529V21.432H134.518V13.933C134.518 11.8123 133.597 10.8596 131.818 10.8596C130.223 10.8596 129.028 11.753 128.991 14.1848L128.99 14.3018V21.432L124.259 21.4319V7.2328L128.895 7.23296ZM86.7013 2.46191V9.10774H86.765C87.7816 7.60177 89.3703 6.77195 91.4673 6.77195C94.6041 6.77195 96.8479 8.47067 96.9888 12.2583C97.7423 8.63858 100.502 6.77195 103.744 6.77195C106.08 6.77195 107.561 7.68772 108.487 9.0848L108.542 9.16921H108.605V7.23296H115.735V2.46191H120.532V7.23296L122.451 7.2328V11.1053L120.532 11.1054V15.3774C120.532 16.6715 120.867 17.111 122.045 17.1287L122.121 17.1293L122.451 17.1291V21.4319L120.659 21.432C117.707 21.432 115.78 20.081 115.735 16.7558L115.735 16.6376V11.1054L113.403 11.1053V21.432H108.605V19.4958H108.542C107.62 20.9403 106.127 21.893 103.744 21.893C100.512 21.893 97.7588 20.0375 96.9956 16.4388L96.9958 21.432H92.198V13.933C92.198 11.8123 91.2767 10.8596 89.5292 10.8596C87.934 10.8596 86.7392 11.753 86.7023 14.1848L86.7013 14.3018V21.432H81.9037L81.9036 9.48164L77.4114 21.432H73.3127L70.0718 13.1339L66.8629 21.432H62.7642L57.3945 7.23296H62.1604L64.8928 15.5618L67.8795 7.23296H72.2959L75.2508 15.5618L78.015 7.23296L81.9036 7.2328L81.9037 2.46191H86.7013ZM105.078 11.0132C103.172 11.0132 101.711 12.3041 101.711 14.3325C101.711 16.361 103.172 17.6517 105.078 17.6517C107.017 17.6517 108.478 16.361 108.478 14.3325C108.478 12.3041 107.017 11.0132 105.078 11.0132ZM147.335 11.0132C145.429 11.0132 143.904 12.3041 143.904 14.3325C143.904 16.361 145.429 17.6517 147.335 17.6517C149.273 17.6517 150.767 16.361 150.767 14.3325C150.767 12.3041 149.273 11.0132 147.335 11.0132Z" fill="black"/>
<path d="M14.1896 2.36C12.6859 0.902384 10.6033 0 8.30188 0C3.71687 0 0 3.58172 0 8C0 10.2209 0.939171 12.2305 2.45568 13.68L10.716 21.64C12.2197 23.0976 14.3024 24 16.6038 24C18.8962 24 20.9718 23.1045 22.4741 21.6568L22.4861 21.6453L22.4915 21.64L23.1802 20.9763C23.2714 20.8884 23.3016 20.7574 23.2574 20.6406L21.5263 16.0571L27.3198 21.64C28.8235 23.0976 30.9062 24 33.2075 24C35.5089 24 37.5917 23.0976 39.0954 21.64L47.3556 13.68C48.8722 12.2305 49.8113 10.2209 49.8113 8C49.8113 3.58172 46.0945 0 41.5095 0C39.208 0 37.1253 0.902384 35.6216 2.36L33.4424 4.46009C33.3127 4.58505 33.1024 4.58505 32.9728 4.46009L30.7934 2.36C29.2897 0.902391 27.2071 0 24.9057 0C22.6042 0 20.5216 0.902384 19.018 2.36L16.8386 4.46009C16.7089 4.58505 16.4986 4.58505 16.3689 4.46009L14.1896 2.36Z" fill="black"/>
</svg>
