<svg width="125" height="26" viewBox="0 0 125 26" fill="none" xmlns="http://www.w3.org/2000/svg">
<path d="M0 10.4278C0 9.50635 0.773054 8.75936 1.72666 8.75936H1.8966C2.26491 3.86235 6.49316 0 11.655 0C13.9646 0 16.0874 0.773288 17.7611 2.06654C18.3909 1.89536 19.046 1.80749 19.7127 1.80749C23.6861 1.80749 26.9072 4.91995 26.9072 8.75936H27.0511C28.0047 8.75936 28.7777 9.50635 28.7777 10.4278C28.7777 15.4603 25.9857 20.0132 21.5833 22.4715V23.4973C21.5833 24.8795 20.4237 26 18.9933 26H9.78443C8.35401 26 7.19443 24.8795 7.19443 23.4973V22.4715C2.79239 20.0135 0 15.4606 0 10.4278ZM8.00095 20.9922H20.7768C24.6187 18.8199 27.0511 14.8296 27.0511 10.4202H1.72666C1.72666 14.8299 4.15937 18.8201 8.00095 20.9922ZM11.6681 6.67142C13.01 6.67142 14.1376 7.55507 14.4573 8.75097H16.2202C15.8745 6.63009 13.9681 5.00778 11.6681 5.00778C9.36805 5.00778 7.46161 6.63009 7.11595 8.75097H8.87877C9.19849 7.55507 10.3261 6.67142 11.6681 6.67142ZM5.3469 8.75097C5.70433 5.70358 8.38636 3.33555 11.6419 3.33555C14.8974 3.33555 17.5795 5.70358 17.9369 8.75097H19.6735C19.3093 4.78166 15.8525 1.66926 11.6419 1.66926C7.43129 1.66926 3.97448 4.78166 3.6103 8.75097H5.3469ZM23.4458 8.75097H25.1674C25.1674 5.84557 22.7265 3.49027 19.7155 3.49027C19.5609 3.49027 19.4073 3.49646 19.2549 3.50873C19.6964 4.03266 20.0806 4.60328 20.3984 5.21173C22.1325 5.52129 23.4458 6.98814 23.4458 8.75097ZM21.7664 8.75097C21.7664 8.26615 21.5689 7.82347 21.2432 7.48638C21.3395 7.89846 21.4058 8.32065 21.4401 8.75097H21.7664ZM8.94726 22.6615V23.4961C8.94726 23.9571 9.33379 24.3307 9.81059 24.3307H19.0195C19.4963 24.3307 19.8828 23.9571 19.8828 23.4961V22.6615H8.94726ZM43.5852 12.5953C45.5718 12.9932 46.9885 14.743 46.8815 16.5914C46.743 18.7347 44.7407 19.9742 42.9573 20.2335C42.6439 20.2658 42.3228 20.284 42.0155 20.284C40.1694 20.284 38.3371 19.5367 37.2018 18.2607C36.807 17.7869 36.8637 17.1125 37.3587 16.6926C37.8082 16.3287 38.5071 16.3834 38.9284 16.8444C39.7349 17.7687 41.2272 18.2791 42.6434 18.0584C43.5506 17.951 44.5707 17.4042 44.6316 16.4903C44.684 15.6543 44.0229 14.8888 43.1143 14.6693C42.7195 14.5972 42.285 14.5789 41.8585 14.5681C40.8683 14.506 39.7727 14.4513 38.7715 13.7588C37.3737 12.8656 36.6937 11.2069 37.0971 9.76265C37.5626 8.16297 39.0738 6.94175 40.8644 6.67704C42.6061 6.44962 44.4573 6.92352 45.7828 7.94163C46.2707 8.29056 46.3652 8.98319 45.992 9.45914C45.6096 9.91278 44.8918 10.0039 44.4224 9.66148C43.5506 8.98319 42.3228 8.67333 41.1783 8.85214C40.2827 8.96497 39.4894 9.56646 39.2947 10.3191C39.0927 10.97 39.5082 11.6444 40.0272 11.9883C40.5283 12.3188 41.1894 12.3552 41.9632 12.393C42.4928 12.4281 43.0217 12.4464 43.5852 12.5953ZM52.951 11.179C55.3674 11.169 57.3462 13.1935 57.3462 15.6809V19.1206C57.3462 19.741 56.8562 20.2335 56.2474 20.2335C55.5936 20.2335 55.1036 19.741 55.0963 19.1206V15.6809C55.1036 14.3972 54.1236 13.3576 52.951 13.3541C51.4665 13.3576 50.7127 14.7802 50.7011 16.035V19.1206C50.7127 19.741 50.2038 20.2335 49.6023 20.2335C48.9601 20.2335 48.4512 19.741 48.4512 19.1206V12.1907C48.4512 11.5703 48.9601 11.0778 49.6023 11.0778C50.0719 11.0778 50.4865 11.3879 50.6488 11.8366C51.3157 11.4061 52.0884 11.169 52.951 11.179ZM66.8167 11.179C67.445 11.179 67.9154 11.6527 67.9154 12.2412V19.1712C67.9154 19.7598 67.445 20.2335 66.8167 20.2335C66.2028 20.2335 65.8264 19.7598 65.8225 19.1712V18.9689C65.0172 19.6505 64.0762 20.0513 62.9447 20.0311C60.4252 20.0513 58.3926 18.0837 58.3926 15.6809C58.3926 13.2377 60.4252 11.2519 62.9447 11.2296C64.0762 11.2519 65.0172 11.6709 65.8225 12.2918V12.2412C65.8264 11.6527 66.2028 11.179 66.8167 11.179ZM62.9447 17.9066C64.2299 17.9066 65.2993 16.901 65.2993 15.6303C65.2993 14.3779 64.2299 13.3541 62.9447 13.3541C61.6596 13.3541 60.5902 14.3779 60.5902 15.6303C60.5902 16.901 61.6596 17.9066 62.9447 17.9066ZM74.4035 20.1829C73.1718 20.1829 72.0254 19.7286 71.1595 18.9183C70.24 18.0567 69.7326 16.93 69.6944 15.7315C69.6762 14.513 70.1272 13.3499 71.0548 12.4942C71.8938 11.6054 73.059 11.1147 74.2989 11.0778C75.5774 11.0602 76.7614 11.5145 77.6476 12.393C78.1145 12.7684 78.1333 13.4771 77.6999 13.9105C77.2688 14.3313 76.5546 14.3494 76.0779 13.9105C75.6337 13.4953 75.0136 13.2591 74.3512 13.2529C73.698 13.2591 73.0966 13.5317 72.6245 13.9611C72.1945 14.4403 71.9314 15.04 71.9443 15.6809C71.9502 16.2939 72.2321 16.9118 72.6769 17.3502C73.1718 17.7841 73.792 18.0203 74.4558 18.0078C75.0511 18.0022 75.6337 17.7659 76.0779 17.3502C76.517 16.9481 77.25 16.9845 77.6476 17.4008C78.0957 17.8568 78.0581 18.5473 77.5952 18.9689C76.7614 19.7286 75.6525 20.1647 74.5082 20.1829H74.4035ZM87.1704 18.3113C87.6274 18.7154 87.6651 19.4067 87.2227 19.8794C87.0064 20.0981 86.6865 20.2255 86.3855 20.2335C86.1031 20.2255 85.8396 20.1345 85.6007 19.93L81.7811 16.4903V19.2218C81.7748 19.8434 81.2667 20.3346 80.63 20.3346C79.987 20.3346 79.4789 19.8434 79.4789 19.2218V7.63813C79.4789 7.01653 79.987 6.52529 80.63 6.52529C81.2667 6.52529 81.7748 7.01653 81.7811 7.63813V13.8093L85.496 11.3307C86.009 10.9647 86.7241 11.0738 87.0657 11.5837C87.4581 12.0745 87.3263 12.7659 86.8041 13.1518L83.6647 15.1751L87.1704 18.3113ZM93.2922 11.1284C95.9109 11.1284 98.0536 13.1843 98.0536 15.7315C98.0536 18.2787 95.9109 20.3346 93.2922 20.3346C92.3209 20.3346 91.4187 20.0435 90.6237 19.5759V23.8249C90.6481 24.4465 90.1406 24.9377 89.5249 24.9377C88.8813 24.9377 88.3738 24.4465 88.3738 23.8249V12.2412C88.3738 11.656 88.8813 11.1648 89.5249 11.179C90.0278 11.1648 90.4601 11.4923 90.6237 11.9377C91.3623 11.4195 92.3021 11.1284 93.2922 11.1284ZM93.3445 18.1595C94.674 18.1595 95.8037 17.0856 95.8037 15.7821C95.8037 14.428 94.674 13.3541 93.3445 13.3541C91.9439 13.3541 90.833 14.428 90.833 15.7821C90.833 17.0856 91.9439 18.1595 93.3445 18.1595ZM107.367 11.179C107.995 11.179 108.466 11.6527 108.466 12.2412V19.1712C108.466 19.7598 107.995 20.2335 107.367 20.2335C106.753 20.2335 106.377 19.7598 106.373 19.1712V18.9689C105.568 19.6505 104.627 20.0513 103.495 20.0311C100.976 20.0513 98.9431 18.0837 98.9431 15.6809C98.9431 13.2377 100.976 11.2519 103.495 11.2296C104.627 11.2519 105.568 11.6709 106.373 12.2918V12.2412C106.377 11.6527 106.753 11.179 107.367 11.179ZM103.443 17.9066C104.728 17.9066 105.797 16.901 105.797 15.6303C105.797 14.3779 104.728 13.3541 103.443 13.3541C102.158 13.3541 101.088 14.3779 101.088 15.6303C101.088 16.901 102.158 17.9066 103.443 17.9066ZM113.594 20.3346C112.39 20.3346 111.186 19.8604 110.559 19.2724C110.114 18.8936 110.076 18.2005 110.506 17.7549C110.923 17.3067 111.638 17.2885 112.076 17.7043C112.428 17.9999 113.688 18.4194 114.378 17.9572C114.591 17.8539 114.704 17.6533 114.692 17.4514C114.704 17.1973 114.478 17.0149 114.274 16.9455C114.121 16.8507 113.82 16.8507 113.489 16.8444C113.03 16.8507 112.522 16.8325 111.972 16.642C111.017 16.34 110.227 15.355 110.14 14.4163C110.058 13.2574 110.565 12.546 110.977 12.1401C111.939 11.3056 113.312 11.178 114.326 11.3307C115.061 11.4698 115.625 11.7252 116.105 12.1401C116.547 12.546 116.585 13.2391 116.157 13.6576C115.926 13.9323 115.569 14.0599 115.216 14.0117C115.042 14.0052 114.873 13.9505 114.745 13.8599C114.459 13.6769 114.271 13.5492 113.907 13.5058C113.368 13.4033 112.315 13.4398 112.39 14.214C112.409 14.3153 112.578 14.5524 112.704 14.6187C112.917 14.6619 113.199 14.6619 113.489 14.6693C113.989 14.6801 114.61 14.6801 115.216 14.9728C116.265 15.4097 116.942 16.3947 116.942 17.4514C116.942 18.3829 116.453 19.2584 115.634 19.7782C115.005 20.1887 114.309 20.3346 113.594 20.3346ZM121.651 20.3346C120.448 20.3346 119.244 19.8604 118.617 19.2724C118.172 18.8936 118.134 18.2005 118.564 17.7549C118.981 17.3067 119.695 17.2885 120.134 17.7043C120.485 17.9999 121.746 18.4194 122.436 17.9572C122.649 17.8539 122.762 17.6533 122.75 17.4514C122.762 17.1973 122.536 17.0149 122.332 16.9455C122.178 16.8507 121.877 16.8507 121.547 16.8444C121.087 16.8507 120.579 16.8325 120.029 16.642C119.075 16.34 118.285 15.355 118.198 14.4163C118.115 13.2574 118.623 12.546 119.035 12.1401C119.996 11.3056 121.37 11.178 122.384 11.3307C123.119 11.4698 123.683 11.7252 124.163 12.1401C124.605 12.546 124.643 13.2391 124.215 13.6576C123.984 13.9323 123.627 14.0599 123.273 14.0117C123.1 14.0052 122.931 13.9505 122.802 13.8599C122.517 13.6769 122.329 13.5492 121.965 13.5058C121.426 13.4033 120.373 13.4398 120.448 14.214C120.467 14.3153 120.636 14.5524 120.762 14.6187C120.975 14.6619 121.257 14.6619 121.547 14.6693C122.047 14.6801 122.667 14.6801 123.273 14.9728C124.323 15.4097 125 16.3947 125 17.4514C125 18.3829 124.511 19.2584 123.692 19.7782C123.063 20.1887 122.367 20.3346 121.651 20.3346Z" fill="black"/>
</svg>
