<svg width="421" height="421" viewBox="0 0 421 421" fill="none" xmlns="http://www.w3.org/2000/svg">
<g clip-path="url(#clip0_21_8040)">
<rect width="421" height="421" rx="12" fill="#F1F7FF"/>
<path d="M35.0488 238.402C30.6572 238.977 4.1362 270.329 0 269.939V425.254L419.715 424V311.708V281.708V256.686C419.715 256.686 424.856 77.8961 419.715 76.0268C414.842 74.2551 356.199 160.78 351.594 158.6C347.274 156.554 310.601 118.927 305.66 116.563C299.498 113.613 245.252 194.164 240.028 193.203C235.892 192.443 219.951 173.599 215.865 175.792C211.026 177.588 173.439 238.344 167.997 238.344C162.554 238.344 146.664 211.905 143.834 211.905C137.521 211.905 115.22 209.97 107.819 209.97C104.869 209.97 78.3545 241.82 72.2591 243.503C66.1636 245.187 39.4404 237.828 35.0488 238.402Z" fill="url(#paint0_linear_21_8040)" fill-opacity="0.12"/>
<path fill-rule="evenodd" clip-rule="evenodd" d="M52.4424 51.1113H61.8497H70.1463C70.8574 51.1113 71.5394 51.3938 72.0424 51.8967L73.6275 53.4819C74.1305 53.9848 74.413 54.6668 74.413 55.378V60.5186H79.5534C80.2646 60.5186 80.9467 60.8011 81.4496 61.3039L83.0348 62.8891C83.5376 63.392 83.8201 64.0741 83.8201 64.7853V73.0817V82.489V89.2146C83.8201 90.6956 82.6196 91.8962 81.1386 91.8962H74.413H65.0057H55.5984H47.3019C46.5907 91.8962 45.9086 91.6138 45.4057 91.1108L43.8206 89.5257C43.3177 89.0227 43.0352 88.3407 43.0352 87.6296V79.333V69.9258V60.5186V53.7929C43.0352 52.3119 44.2357 51.1113 45.7167 51.1113H52.4424ZM55.124 82.489C53.643 82.489 52.4424 81.2885 52.4424 79.8075V73.0817V66.3561C52.4424 64.8751 53.643 63.6746 55.124 63.6746H65.0057H71.2569V69.9258V79.8075C71.2569 81.2885 70.0564 82.489 68.5753 82.489H61.8497H55.124Z" fill="#156EF6" fill-opacity="0.25"/>
<path fill-rule="evenodd" clip-rule="evenodd" d="M55.255 53.8145H64.7755H73.072C73.7481 53.8145 74.2962 54.3625 74.2962 55.0386V62.1108C74.2962 62.787 73.7481 63.335 73.072 63.335H64.7755H56.4791C55.803 63.335 55.255 63.8831 55.255 64.5592V72.8556V81.152C55.255 81.8281 55.803 82.3761 56.4791 82.3761H64.7755H73.072C73.7481 82.3761 74.2962 81.8281 74.2962 81.152V72.8556V64.9319C74.2962 64.2558 74.8442 63.7077 75.5202 63.7077H82.5926C83.2686 63.7077 83.8168 64.2558 83.8168 64.9319V72.8556V82.3761V90.6725C83.8168 91.3487 83.2686 91.8967 82.5926 91.8967H74.2962H64.7755H55.255H46.9585C46.2825 91.8967 45.7344 91.3487 45.7344 90.6725V82.3761V72.8556V63.335V55.0386C45.7344 54.3625 46.2825 53.8145 46.9585 53.8145H55.255Z" fill="#156EF6"/>
<path fill-rule="evenodd" clip-rule="evenodd" d="M46.9585 54.4104C46.6116 54.4104 46.3303 54.6916 46.3303 55.0386V90.6725C46.3303 91.0195 46.6116 91.3008 46.9585 91.3008H82.5926C82.9396 91.3008 83.2209 91.0195 83.2209 90.6725V64.9319C83.2209 64.5849 82.9396 64.3036 82.5926 64.3036H75.5202C75.1734 64.3036 74.8921 64.5849 74.8921 64.9319V81.152C74.8921 82.1572 74.0772 82.972 73.072 82.972H56.4791C55.4739 82.972 54.6591 82.1572 54.6591 81.152V64.5592C54.6591 63.554 55.4739 62.7391 56.4791 62.7391H73.072C73.419 62.7391 73.7003 62.4579 73.7003 62.1108V55.0386C73.7003 54.6916 73.419 54.4104 73.072 54.4104H46.9585ZM46.9585 53.8145C46.2825 53.8145 45.7344 54.3625 45.7344 55.0386V90.6725C45.7344 91.3487 46.2825 91.8967 46.9585 91.8967H82.5926C83.2686 91.8967 83.8168 91.3487 83.8168 90.6725V64.9319C83.8168 64.2558 83.2686 63.7077 82.5926 63.7077H75.5202C74.8442 63.7077 74.2962 64.2558 74.2962 64.9319V81.152C74.2962 81.8281 73.7481 82.3761 73.072 82.3761H56.4791C55.803 82.3761 55.255 81.8281 55.255 81.152V64.5592C55.255 63.8831 55.803 63.335 56.4791 63.335H73.072C73.7481 63.335 74.2962 62.787 74.2962 62.1108V55.0386C74.2962 54.3625 73.7481 53.8145 73.072 53.8145H46.9585Z" fill="#156EF6" fill-opacity="0.25"/>
<path d="M82.9348 44.5371H89.377C89.8287 44.5371 90.2599 44.7245 90.5683 45.0545L92.6051 47.2351C92.8871 47.537 93.044 47.9347 93.044 48.3478V54.6462C93.044 55.5465 92.3141 56.2763 91.4138 56.2763H85.0731C84.6329 56.2763 84.2113 56.0982 83.9043 55.7825L81.766 53.583C81.4702 53.2787 81.3047 52.8711 81.3047 52.4467V46.1672C81.3047 45.2669 82.0345 44.5371 82.9348 44.5371Z" fill="#156EF6" fill-opacity="0.25"/>
<path d="M93.0438 48.1944C93.0438 47.4711 92.4574 46.8848 91.7341 46.8848H84.962C84.2387 46.8848 83.6523 47.4711 83.6523 48.1944V54.9665C83.6523 55.6898 84.2387 56.2762 84.962 56.2762H91.7341C92.4574 56.2762 93.0438 55.6898 93.0438 54.9665V48.1944Z" fill="#156EF6"/>
<path fill-rule="evenodd" clip-rule="evenodd" d="M84.962 47.4086H91.7341C92.1681 47.4086 92.5199 47.7604 92.5199 48.1944V54.9665C92.5199 55.4005 92.1681 55.7523 91.7341 55.7523H84.962C84.5281 55.7523 84.1762 55.4005 84.1762 54.9665V48.1944C84.1762 47.7604 84.5281 47.4086 84.962 47.4086ZM91.7341 46.8848C92.4574 46.8848 93.0438 47.4711 93.0438 48.1944V54.9665C93.0438 55.6898 92.4574 56.2762 91.7341 56.2762H84.962C84.2387 56.2762 83.6523 55.6898 83.6523 54.9665V48.1944C83.6523 47.4711 84.2387 46.8848 84.962 46.8848H91.7341Z" fill="#156EF6" fill-opacity="0.25"/>
<rect x="381" y="384" width="110" height="44" rx="9" transform="rotate(180 381 384)" fill="white"/>
<rect x="381" y="384" width="110" height="44" rx="9" transform="rotate(180 381 384)" stroke="#156EF6" stroke-width="2"/>
<path d="M299.04 370V355.1H301.4V367.9H307.84V370H299.04ZM314.281 370.24C313.201 370.24 312.241 369.993 311.401 369.5C310.575 368.993 309.928 368.313 309.461 367.46C308.995 366.593 308.761 365.627 308.761 364.56C308.761 363.467 308.995 362.5 309.461 361.66C309.941 360.82 310.581 360.16 311.381 359.68C312.181 359.187 313.088 358.94 314.101 358.94C314.915 358.94 315.641 359.08 316.281 359.36C316.921 359.64 317.461 360.027 317.901 360.52C318.341 361 318.675 361.553 318.901 362.18C319.141 362.807 319.261 363.473 319.261 364.18C319.261 364.353 319.255 364.533 319.241 364.72C319.228 364.907 319.201 365.08 319.161 365.24H310.541V363.44H317.881L316.801 364.26C316.935 363.607 316.888 363.027 316.661 362.52C316.448 362 316.115 361.593 315.661 361.3C315.221 360.993 314.701 360.84 314.101 360.84C313.501 360.84 312.968 360.993 312.501 361.3C312.035 361.593 311.675 362.02 311.421 362.58C311.168 363.127 311.068 363.793 311.121 364.58C311.055 365.313 311.155 365.953 311.421 366.5C311.701 367.047 312.088 367.473 312.581 367.78C313.088 368.087 313.661 368.24 314.301 368.24C314.955 368.24 315.508 368.093 315.961 367.8C316.428 367.507 316.795 367.127 317.061 366.66L318.901 367.56C318.688 368.067 318.355 368.527 317.901 368.94C317.461 369.34 316.928 369.66 316.301 369.9C315.688 370.127 315.015 370.24 314.281 370.24ZM324.209 370.24C323.476 370.24 322.829 370.113 322.269 369.86C321.723 369.593 321.296 369.233 320.989 368.78C320.683 368.313 320.529 367.767 320.529 367.14C320.529 366.553 320.656 366.027 320.909 365.56C321.176 365.093 321.583 364.7 322.129 364.38C322.676 364.06 323.363 363.833 324.189 363.7L327.949 363.08V364.86L324.629 365.44C324.029 365.547 323.589 365.74 323.309 366.02C323.029 366.287 322.889 366.633 322.889 367.06C322.889 367.473 323.043 367.813 323.349 368.08C323.669 368.333 324.076 368.46 324.569 368.46C325.183 368.46 325.716 368.327 326.169 368.06C326.636 367.793 326.996 367.44 327.249 367C327.503 366.547 327.629 366.047 327.629 365.5V362.72C327.629 362.187 327.429 361.753 327.029 361.42C326.643 361.073 326.123 360.9 325.469 360.9C324.869 360.9 324.343 361.06 323.889 361.38C323.449 361.687 323.123 362.087 322.909 362.58L321.029 361.64C321.229 361.107 321.556 360.64 322.009 360.24C322.463 359.827 322.989 359.507 323.589 359.28C324.203 359.053 324.849 358.94 325.529 358.94C326.383 358.94 327.136 359.1 327.789 359.42C328.456 359.74 328.969 360.187 329.329 360.76C329.703 361.32 329.889 361.973 329.889 362.72V370H327.729V368.04L328.189 368.1C327.936 368.54 327.609 368.92 327.209 369.24C326.823 369.56 326.376 369.807 325.869 369.98C325.376 370.153 324.823 370.24 324.209 370.24ZM337.132 370.24C336.092 370.24 335.158 369.993 334.332 369.5C333.518 368.993 332.872 368.313 332.392 367.46C331.925 366.607 331.692 365.647 331.692 364.58C331.692 363.513 331.932 362.553 332.412 361.7C332.892 360.847 333.538 360.173 334.352 359.68C335.165 359.187 336.085 358.94 337.112 358.94C337.978 358.94 338.745 359.113 339.412 359.46C340.078 359.807 340.605 360.287 340.992 360.9L340.652 361.42V354.86H342.892V370H340.752V367.8L341.012 368.22C340.638 368.873 340.105 369.373 339.412 369.72C338.718 370.067 337.958 370.24 337.132 370.24ZM337.352 368.14C337.978 368.14 338.538 367.987 339.032 367.68C339.538 367.373 339.932 366.953 340.212 366.42C340.505 365.873 340.652 365.26 340.652 364.58C340.652 363.9 340.505 363.293 340.212 362.76C339.932 362.227 339.538 361.807 339.032 361.5C338.538 361.193 337.978 361.04 337.352 361.04C336.725 361.04 336.158 361.193 335.652 361.5C335.145 361.807 334.752 362.227 334.472 362.76C334.192 363.293 334.052 363.9 334.052 364.58C334.052 365.26 334.192 365.873 334.472 366.42C334.752 366.953 335.138 367.373 335.632 367.68C336.138 367.987 336.712 368.14 337.352 368.14ZM349.13 370.24C348.023 370.24 347.05 369.967 346.21 369.42C345.383 368.873 344.803 368.14 344.47 367.22L346.21 366.4C346.503 367.013 346.903 367.5 347.41 367.86C347.93 368.22 348.503 368.4 349.13 368.4C349.663 368.4 350.097 368.28 350.43 368.04C350.763 367.8 350.93 367.473 350.93 367.06C350.93 366.793 350.857 366.58 350.71 366.42C350.563 366.247 350.377 366.107 350.15 366C349.937 365.893 349.717 365.813 349.49 365.76L347.79 365.28C346.857 365.013 346.157 364.613 345.69 364.08C345.237 363.533 345.01 362.9 345.01 362.18C345.01 361.527 345.177 360.96 345.51 360.48C345.843 359.987 346.303 359.607 346.89 359.34C347.477 359.073 348.137 358.94 348.87 358.94C349.857 358.94 350.737 359.187 351.51 359.68C352.283 360.16 352.83 360.833 353.15 361.7L351.41 362.52C351.197 362 350.857 361.587 350.39 361.28C349.937 360.973 349.423 360.82 348.85 360.82C348.357 360.82 347.963 360.94 347.67 361.18C347.377 361.407 347.23 361.707 347.23 362.08C347.23 362.333 347.297 362.547 347.43 362.72C347.563 362.88 347.737 363.013 347.95 363.12C348.163 363.213 348.383 363.293 348.61 363.36L350.37 363.88C351.263 364.133 351.95 364.533 352.43 365.08C352.91 365.613 353.15 366.253 353.15 367C353.15 367.64 352.977 368.207 352.63 368.7C352.297 369.18 351.83 369.56 351.23 369.84C350.63 370.107 349.93 370.24 349.13 370.24Z" fill="#156EF6"/>
<g filter="url(#filter0_d_21_8040)">
<path d="M1.23438 269.996C5.36877 270.385 31.8782 239.105 36.2679 238.532C40.6576 237.958 67.3692 245.3 73.462 243.621C79.5548 241.941 106.058 210.164 109.006 210.164C116.405 210.164 138.696 212.094 145.006 212.094C147.835 212.094 163.718 238.473 169.158 238.473C174.598 238.473 212.168 177.856 217.006 176.064C221.09 173.876 237.023 192.677 241.158 193.436C246.38 194.394 300.036 113.029 306.195 115.971C311.133 118.33 348.585 155.751 352.903 157.792C357.507 159.967 415.896 74.2593 420.767 76.027" stroke="#156EF6" stroke-width="2" stroke-linecap="round"/>
</g>
</g>
<rect x="0.5" y="0.5" width="420" height="420" rx="11.5" stroke="#D7E7FE"/>
<defs>
<filter id="filter0_d_21_8040" x="-1.76562" y="74.9998" width="425.532" height="200" filterUnits="userSpaceOnUse" color-interpolation-filters="sRGB">
<feFlood flood-opacity="0" result="BackgroundImageFix"/>
<feColorMatrix in="SourceAlpha" type="matrix" values="0 0 0 0 0 0 0 0 0 0 0 0 0 0 0 0 0 0 127 0" result="hardAlpha"/>
<feOffset dy="2"/>
<feGaussianBlur stdDeviation="1"/>
<feComposite in2="hardAlpha" operator="out"/>
<feColorMatrix type="matrix" values="0 0 0 0 0.0588235 0 0 0 0 0.2 0 0 0 0 0.211765 0 0 0 0.08 0"/>
<feBlend mode="normal" in2="BackgroundImageFix" result="effect1_dropShadow_21_8040"/>
<feBlend mode="normal" in="SourceGraphic" in2="effect1_dropShadow_21_8040" result="shape"/>
</filter>
<linearGradient id="paint0_linear_21_8040" x1="227.491" y1="175.792" x2="227.491" y2="357.645" gradientUnits="userSpaceOnUse">
<stop stop-color="#156EF6"/>
<stop offset="1" stop-color="#156EF6" stop-opacity="0"/>
</linearGradient>
<clipPath id="clip0_21_8040">
<rect width="421" height="421" rx="12" fill="white"/>
</clipPath>
</defs>
</svg>
