<svg width="421" height="421" viewBox="0 0 421 421" fill="none" xmlns="http://www.w3.org/2000/svg">
<g clip-path="url(#clip0_21_7929)">
<rect width="421" height="421" rx="12" fill="#F1F7FF"/>
<mask id="mask0_21_7929" style="mask-type:alpha" maskUnits="userSpaceOnUse" x="-66" y="77" width="553" height="347">
<rect x="-66" y="77" width="552.277" height="347" fill="url(#paint0_radial_21_7929)"/>
</mask>
<g mask="url(#mask0_21_7929)">
<path fill-rule="evenodd" clip-rule="evenodd" d="M118.965 128.637C110.179 128.027 92.6077 125.851 92.6077 125.851L87.3535 178.397C87.3535 178.397 106.872 180.287 116.631 180.993C131.073 182.039 159.957 183.651 159.957 183.651L161.39 130.628C161.39 130.628 133.107 129.619 118.965 128.637Z" stroke="#156EF6" stroke-opacity="0.22" stroke-linecap="round" stroke-linejoin="round"/>
<path fill-rule="evenodd" clip-rule="evenodd" d="M276.987 105.789L276.509 107.222H275.554L276.032 111.999V114.865L272.21 117.253L271.733 118.686L270.777 120.119V121.552L272.21 122.03L273.166 123.463L272.688 125.374L272.21 126.807L272.688 127.762L272.21 128.24L272.688 129.195L272.21 132.061L274.599 133.972H276.509L277.942 135.405L279.853 135.883L281.763 137.794L283.196 139.704L284.629 140.66H286.54L288.451 142.571L288.928 144.004V147.825H289.406L289.884 149.258L291.316 150.214L290.361 151.647L290.839 154.99L292.272 157.857H295.138L296.093 160.245L324.752 157.379L324.275 155.468L324.752 154.513V153.08L323.797 152.602L323.319 150.691L322.842 147.825V145.914L323.319 144.481V143.048L324.275 141.138L323.319 140.182L323.797 137.316L324.275 135.883L325.708 134.928L324.752 133.495V130.628L326.185 128.24L325.708 126.807L327.141 125.374L327.618 122.985L328.096 121.075L329.051 119.642H328.096L327.618 121.075L326.663 122.508H326.185V123.941L325.23 124.896L325.708 125.852L325.23 126.329H324.752L323.319 126.807L322.364 128.718L321.409 129.673L320.453 131.106L319.498 130.628V129.195L320.453 126.807L321.409 125.374L322.842 124.418V123.463L321.409 122.508L322.364 119.642H321.886L320.453 120.119H319.976L320.931 118.209L319.976 115.82L318.543 114.865H317.11V113.432L315.677 112.954L312.333 112.476L310.423 112.954L308.512 111.999L302.303 110.566L297.048 109.61L295.615 107.699L294.182 107.222L290.839 106.266L288.928 107.222V106.266L289.884 102.923L288.928 102.445L286.54 103.878L285.107 104.356L281.763 106.266L278.897 106.744L276.987 105.789Z" stroke="#156EF6" stroke-opacity="0.22" stroke-linecap="round" stroke-linejoin="round"/>
<path fill-rule="evenodd" clip-rule="evenodd" d="M394.01 214.224V214.701H394.487V215.657H394.965V216.612H395.443L395.92 217.567H397.353L397.831 218.045L399.264 218.523L400.697 217.09L401.175 216.134L403.085 217.09L404.04 216.134H405.951L406.429 215.179L405.951 214.224L406.906 213.746L407.862 214.224L409.772 212.791L410.25 213.268L412.161 211.835L411.683 211.357L412.638 210.402V209.924H411.683V208.969L412.161 207.536L414.071 204.67L414.549 202.759L414.071 202.281L415.504 200.848L415.027 200.371L415.982 198.938V197.027L416.46 196.549H417.415L418.37 197.505H420.281L421.236 196.549V195.116L421.714 194.638V193.205L422.191 192.25L422.669 191.772L424.102 192.25L424.58 190.339H425.535V189.862L426.49 188.906V187.951L427.446 186.518V185.085L427.923 184.129L427.446 183.174L427.923 182.696L433.655 185.562L434.133 182.696V181.741L433.177 181.263L432.7 180.308H432.222L432.7 179.352L430.789 179.83L428.879 178.875L428.401 179.352L427.923 180.308H426.49L426.013 181.741L425.057 182.219H423.624L422.669 180.785V182.219L421.236 183.652H419.803L419.325 184.607L418.37 186.04L416.46 187.951L415.027 181.263L404.518 183.174L402.13 171.232L400.697 172.187L402.13 173.142L401.652 174.576L402.13 176.009L401.652 177.919V180.308L401.175 183.174V185.085L398.786 186.518V187.951L396.876 189.862L395.92 188.906L394.487 189.862V190.817L393.532 191.295L393.054 193.205L392.577 194.161L393.054 194.638V195.594L392.099 196.549H391.621V195.594L390.666 195.116L389.711 196.071L389.233 197.505V198.46L389.711 200.848L388.756 201.326V202.759L385.89 204.192L386.367 205.625L385.89 207.536L387.8 209.447L388.278 210.402L390.189 212.791L392.577 214.224H394.01Z" stroke="#156EF6" stroke-opacity="0.22" stroke-linecap="round" stroke-linejoin="round"/>
<path fill-rule="evenodd" clip-rule="evenodd" d="M37.2029 105.789V104.355L37.6806 103.878V102.922L36.7253 101.012L41.9795 68.0512C41.9795 68.0512 14.9198 63.3626 1.38997 60.7794C-2.59417 60.0188 -10.5624 58.0198 -10.5624 58.0198L-11.0401 58.9752L-10.5624 61.3636H-9.12948V63.2743L-9.60714 65.1851H-10.5624L-11.0401 64.2297L-11.5178 63.2743L-12.9507 61.3636L-13.906 61.8413L-12.9507 62.319L-11.9954 63.2743L-12.9507 63.752L-14.3837 62.7967L-15.8166 62.319L-15.339 63.752L-12.9507 64.7074L-11.9954 63.752L-11.0401 65.1851L-12.4731 67.0958L-11.9954 68.5289L-11.0401 71.395L-10.0848 71.8727L-10.5624 70.4397L-11.5178 68.0512L-11.0401 66.6182H-10.0848L-9.12948 67.0958V69.0066V70.4397L-8.17418 70.9173L-9.12948 72.3504L-10.5624 73.7835V75.2165V76.6496L-11.0401 79.038L-11.9954 80.4711L-12.9507 79.9934L-14.3837 81.4265L-14.8613 81.9042L-16.2943 81.4265L-17.2496 81.9042L-18.6826 81.4265L-17.7273 79.9934L-16.2943 78.5603L-15.339 79.038L-14.3837 78.0827L-13.4284 79.5157L-12.9507 76.6496L-13.906 76.1719L-13.4284 74.2612C-13.9339 74.2612 -11.9954 74.2612 -11.9954 74.2612L-11.5178 72.8281L-14.8613 74.7388L-15.8166 75.2165L-17.7273 76.6496L-16.7719 77.605H-15.8166L-16.7719 78.0827H-19.1602L-18.6826 77.1273L-16.7719 75.2165L-15.339 73.7835V72.3504H-14.3837V73.3058L-12.9507 71.8727L-13.906 69.0066V70.4397L-15.339 69.0066L-15.8166 69.4843L-17.2496 68.0512H-18.6826L-23.9368 66.1405L-25.8474 65.1851L-26.8027 64.2297L-30.1463 62.319L-31.1016 64.7074V67.5735L-29.6686 69.4843L-29.1909 71.395L-29.6686 75.2165L-28.7133 76.6496L-29.1909 79.5157H-27.758V80.4711L-25.8474 81.4265L-28.2356 81.9042L-28.7133 82.8595L-29.1909 82.3818V83.8149H-27.2803L-26.325 85.248H-27.758L-28.2356 87.1587L-27.758 88.5918H-29.1909L-29.6686 87.6364L-30.1463 89.5472H-29.1909L-28.2356 90.0248H-26.325L-25.8474 90.5025H-24.4144L-23.9368 91.9356L-22.9814 92.4133H-21.5485L-20.1155 93.8463L-19.1602 96.2348L-19.6379 99.5786V100.534L-16.2943 101.489L-14.8613 102.445L-11.5178 101.489L-10.0848 101.012L-7.21887 101.489L-4.8306 102.445L-4.35294 103.878L-2.44233 103.4L-1.96468 103.878L1.3789 103.4L3.76717 103.878L6.15544 103.4L10.4543 102.922L11.8873 102.445L16.1862 103.4L17.6191 102.445L37.2029 105.789Z" stroke="#156EF6" stroke-opacity="0.22" stroke-linecap="round" stroke-linejoin="round"/>
<path fill-rule="evenodd" clip-rule="evenodd" d="M459.451 215.656V214.701H459.929V212.312L458.974 210.879H455.63L456.108 212.312L454.675 211.835L453.719 212.79V211.357L451.331 210.402V208.969H449.898H448.465L447.51 208.013L444.166 208.491V207.536L447.987 207.058L448.465 208.013L448.943 206.58L449.42 208.013H451.331H451.809V208.969L454.675 210.402L455.63 209.446L454.675 208.969V208.013L453.719 207.536H452.286L448.943 204.669V203.714L452.286 206.58H453.719L452.764 205.625L453.242 204.192L455.152 205.625L454.675 204.192L453.242 203.236L451.331 202.759L450.376 201.326L448.943 200.848L447.032 199.415L445.599 197.504H444.644L443.211 197.026L443.689 196.549H445.599L448.943 199.893H449.898L451.809 201.803V200.848L453.242 201.803V199.893L452.764 198.937L453.719 198.459L452.286 197.982L450.376 197.504L449.898 196.549L448.465 196.071L447.51 196.549L445.599 196.071L444.166 194.638V193.683L442.733 195.116H440.823V194.16V193.683V190.816L441.778 189.861L442.733 189.383V187.95L442.256 186.995L441.778 186.517H440.345L439.867 185.562H437.957L437.001 184.607L437.479 183.173L436.046 182.696H434.136L433.658 185.562L427.926 182.696L427.448 183.173L427.926 184.129L427.448 185.084V186.517L426.493 187.95V188.906L425.538 189.861V190.339H424.582L424.105 192.25L422.672 191.772L422.194 192.25L421.717 193.205V194.638L421.239 195.116V196.549L420.284 197.504H418.373L417.418 196.549H416.462L415.985 197.026V198.937L415.029 200.37L415.507 200.848L414.074 202.281L414.552 202.759L414.074 204.669L412.163 207.536L411.686 208.969V209.924H412.641V210.402L411.686 211.357L412.163 211.835L410.253 213.268L409.775 212.79L407.865 214.223L406.909 213.745L405.954 214.223L406.432 215.179L405.954 216.134H404.043L403.088 217.089L401.177 216.134L400.7 217.089L399.267 218.522L397.834 218.045L397.356 217.567H395.923L395.446 216.612H394.968V215.656H394.49V214.701H394.013L390.669 219L387.325 220.911V222.344L386.37 223.299V224.255L383.982 225.21L383.504 226.643L378.25 229.509L399.267 226.165V226.643L459.451 215.656ZM459.929 195.593V196.549L459.451 197.026L459.929 197.982L458.974 199.415L458.496 200.848V202.759L458.018 204.669L458.496 206.58L458.974 207.058L459.451 205.625V202.759L459.929 201.326L461.362 201.803V198.937L462.317 197.026L461.839 196.071V194.638L459.929 195.593Z" stroke="#156EF6" stroke-opacity="0.22" stroke-linecap="round" stroke-linejoin="round"/>
<path fill-rule="evenodd" clip-rule="evenodd" d="M58.2168 161.677L50.0967 227.598C50.0967 227.598 64.6881 229.639 71.9838 230.421C82.5205 231.55 103.594 233.33 103.594 233.33L107.893 180.307L87.3537 178.396L88.7866 165.499L58.2168 161.677Z" stroke="#156EF6" stroke-opacity="0.22" stroke-linecap="round" stroke-linejoin="round"/>
<path fill-rule="evenodd" clip-rule="evenodd" d="M168.08 243.84L201.038 244.318V270.113H202.471L205.337 272.979L206.77 272.502H207.725L208.202 271.546L210.113 273.457V274.89H212.501L215.367 275.845L216.8 275.368L218.233 276.801L219.666 275.845H222.532V277.278L223.965 277.756L224.92 279.667L227.786 277.278L228.264 278.712H229.219L230.652 279.667L232.563 278.712L233.518 281.1L235.429 277.756L237.817 279.189L239.25 278.712L240.205 279.667L243.071 280.622H244.027L244.504 279.189L246.892 278.712H247.848L250.714 277.756L252.624 278.234L254.535 277.278L257.401 278.234L258.834 279.667L260.267 280.622L263.133 281.1L265.043 282.055L265.521 281.578H267.909L268.387 282.055V289.221H268.865L269.342 303.074L270.775 304.507L272.208 306.417V308.328L273.163 309.284V309.761L274.119 310.717V312.15L275.074 313.105L275.552 313.583V315.016L276.029 315.493L275.552 315.971V318.837L275.074 320.27L274.119 322.181V323.614L273.641 324.57L274.596 326.48L274.119 328.391L273.163 329.346L272.208 331.257L271.73 332.213L272.686 333.646H270.775L266.476 336.034H264.566L262.177 336.512L263.133 335.079L263.61 333.646L262.655 333.168L261.7 333.646L260.744 334.601L258.834 334.123L259.311 336.034L260.267 337.467L261.222 338.422L260.744 339.378L258.834 341.289L257.878 340.811L258.356 343.199L255.49 345.588L252.624 347.499L249.281 347.976L248.803 348.932H246.415V347.976L244.982 348.932L244.027 347.976L243.071 347.021L243.549 349.409L242.116 348.932L241.161 347.976L240.683 348.454L241.638 350.365L242.594 350.842L241.638 351.798L243.549 351.32V352.275L241.161 353.708L239.25 351.32L238.772 352.753V355.142L238.295 356.097L237.817 354.186L234.951 356.097L234.473 357.052L235.429 358.008L236.862 357.052L234.951 359.918L231.13 359.441L230.652 360.396L232.085 360.874L233.996 362.307L232.085 367.084L231.13 366.128L229.697 367.084L227.786 365.173L228.264 367.084L227.786 367.561L228.264 368.039L230.652 368.517L231.608 368.039L231.13 371.383L230.652 371.861V374.727H231.608L232.085 377.593L231.608 378.548L233.04 380.937L233.996 383.325L234.951 383.803L234.473 385.714L233.518 386.669L231.608 386.191L229.697 384.28H223.01L220.621 382.37L217.756 381.892L215.845 379.981H212.501V378.548L211.546 378.071L210.591 374.249L209.158 372.338L208.202 371.383V368.994L207.247 367.561L207.725 366.606V365.173L207.247 363.74L205.337 362.785L202.948 360.874L202.471 359.441L200.56 356.575L199.127 355.619L198.172 354.186L197.216 350.842L195.783 348.932L195.306 347.499L193.873 345.588V343.199L192.44 342.244V341.289L189.096 339.378V338.422L187.186 337.945V336.512H186.23L184.797 334.123H181.454L178.588 333.646H176.2L174.289 332.69L173.334 334.123L169.99 334.601L168.08 337.467L167.602 339.856L166.647 341.289L164.258 343.677V344.632L161.392 343.677L159.959 342.244H158.049L156.616 340.333L154.228 339.856L151.362 336.989L149.929 336.512L148.496 335.079L148.018 333.168L147.063 331.257L146.585 329.824L147.063 328.391L145.152 325.047V323.614L143.719 321.226L141.331 319.315L139.42 318.837L137.032 315.971V315.016L135.121 313.583L133.211 311.672L131.778 310.717L130.345 309.761L128.912 308.328V306.417L127.957 305.94L127.001 305.462L125.568 304.029V302.596L166.169 304.507L168.08 243.84Z" stroke="#156EF6" stroke-opacity="0.22" stroke-linecap="round" stroke-linejoin="round"/>
<path fill-rule="evenodd" clip-rule="evenodd" d="M308.516 259.605L373.954 251.962V248.618L374.432 248.141L376.342 248.618L376.82 245.752L379.686 243.364H382.074L385.418 239.542H387.329L387.806 237.154H388.761L389.239 235.721L390.672 235.243L391.15 236.198H392.105L393.06 233.81L395.449 233.332L396.404 233.81L397.837 230.466L398.792 229.511H399.27V226.167L378.253 229.511L377.298 230.466L333.354 234.765H330.488L330.965 236.198V237.154L316.158 238.587L315.68 239.065L314.725 238.109V239.065L315.203 240.975H314.247L314.725 242.408H313.77L314.725 243.841L313.77 244.319L313.292 245.752L314.247 246.23L314.725 246.708H313.292V247.663L313.77 248.141L311.382 249.574L311.859 251.484V252.44H310.904L310.426 254.351L309.949 255.784L310.904 257.694H309.471L308.516 259.605Z" stroke="#156EF6" stroke-opacity="0.22" stroke-linecap="round" stroke-linejoin="round"/>
<path fill-rule="evenodd" clip-rule="evenodd" d="M390.67 248.616L387.327 250.049L386.371 251.482L384.938 254.348L387.327 255.303L387.804 255.781L389.237 256.737L391.148 256.259V257.692L392.581 258.647L393.059 260.08L393.536 260.558L394.969 261.513L395.447 262.946H396.402L396.88 263.902L399.268 264.857L400.701 267.246H402.134L403.567 268.679V269.634L405 270.112V271.067L405.955 271.545V272.5H407.388L409.776 273.933V274.889L410.732 276.322L411.209 278.232L411.687 279.188H413.12L413.598 280.143L415.031 282.054V283.965L415.986 285.398L416.464 284.92H417.419H418.374L418.852 283.487V282.054L419.807 283.009L418.374 280.621L417.419 278.71L417.897 278.232L419.33 280.621L420.285 281.099L419.807 279.188L420.763 280.143L421.24 281.576L422.195 280.621L421.718 279.188L420.763 278.71L419.807 278.232L421.718 277.755L423.151 278.232L424.106 277.277V276.322H425.539L426.972 275.366L427.927 274.411L426.972 273.456V272.5H427.927L428.405 273.456L429.36 272.5L430.316 271.545V269.634L431.271 269.156L432.226 269.634L433.182 268.201L432.704 267.246L434.614 266.29L433.182 265.813V264.38L434.137 262.946V265.335L435.57 261.036L437.003 258.647L439.391 256.259L425.539 246.227L413.12 248.138L412.642 246.227L410.732 244.794L409.776 245.75L409.299 244.317L394.969 246.227L393.059 247.183L391.626 247.66L391.148 248.616H390.67Z" stroke="#156EF6" stroke-opacity="0.22" stroke-linecap="round" stroke-linejoin="round"/>
<path fill-rule="evenodd" clip-rule="evenodd" d="M182.53 157.749C175.324 157.626 160.912 156.902 160.912 156.902L161.39 130.629H161.867L162.345 118.687C162.345 118.687 188.956 119.164 202.468 119.164C213.157 119.164 234.948 118.687 234.948 118.687L234.471 120.12L233.516 121.553L232.083 122.508L233.516 125.374L235.426 125.852L236.381 127.285L236.859 150.692H235.426V151.647L236.381 152.602L235.904 154.035L236.859 154.991L236.381 158.812L235.426 160.245L236.859 163.589H235.904L234.948 162.156V161.201H233.516L233.038 160.723L231.605 160.245H230.172L228.739 158.812L226.351 159.29H223.007L222.052 160.245H220.619L216.798 157.857C216.798 157.857 193.952 157.944 182.53 157.749Z" stroke="#156EF6" stroke-opacity="0.22" stroke-linecap="round" stroke-linejoin="round"/>
<path fill-rule="evenodd" clip-rule="evenodd" d="M399.268 153.557L402.134 171.232L404.522 183.174L453.242 173.62L453.72 172.187L454.675 171.232H457.064L457.541 170.276L458.974 169.321V168.366L462.318 165.499V164.544L459.452 162.633H458.497L458.019 160.723L456.586 161.2L456.108 159.289L456.586 157.856L457.064 156.901L456.108 155.946V154.99L457.064 154.035L458.019 152.124V151.169L459.452 149.736L458.497 148.78H457.064H455.631L454.675 147.347V146.392V144.959L453.242 144.003L452.287 144.481L451.81 143.526L450.377 143.048L406.91 152.124L406.432 148.78L399.268 153.557Z" stroke="#156EF6" stroke-opacity="0.22" stroke-linecap="round" stroke-linejoin="round"/>
<path fill-rule="evenodd" clip-rule="evenodd" d="M28.1289 157.378L31.9501 133.494L32.9054 131.583V130.15L33.8607 129.194L32.9054 128.239L30.9948 127.761L31.4725 124.895L33.8607 122.029L35.7714 120.118L36.249 118.685L38.1596 115.819L38.6373 114.864L41.0256 111.998L40.5479 109.609L37.682 107.221V105.788L17.6205 102.444L16.1876 103.399L11.8887 102.444L10.4557 102.922L6.15682 103.399L3.76855 103.877L1.38028 103.399L-1.9633 103.877L-2.44095 103.399L-4.35157 103.877L-4.82922 102.444L-7.21749 101.489L-10.0834 101.011L-14.86 102.444L-16.2929 101.489L-19.6365 100.533V99.5779L-19.1588 96.2341L-20.1141 93.8456L-21.5471 92.4126L-22.9801 92.8902H-24.413L-24.8907 91.4572L-26.8013 91.9349L-27.7566 91.4572L-28.2343 92.4126L-29.6672 90.9795V93.3679L-30.6225 94.3233V96.2341L-30.1449 97.1894L-31.1002 98.1448L-30.6225 100.056H-31.5778L-34.4438 108.176L-34.9214 109.609L-34.4438 110.565L-34.9214 111.52L-35.3991 112.475V113.431L-36.3544 114.386L-37.3097 118.685L-38.265 121.074L-37.7873 122.029L-38.7426 122.507L-40.1756 124.895H-39.2203V126.328L-40.1756 125.851L-41.1309 127.284L-41.6086 126.328L-43.0415 129.672L-44.4745 132.538L-43.9968 134.449L-44.4745 137.315L-44.9521 140.181V142.092L-43.9968 144.003L-1.9633 152.601L28.1289 157.378Z" stroke="#156EF6" stroke-opacity="0.22" stroke-linecap="round" stroke-linejoin="round"/>
<path fill-rule="evenodd" clip-rule="evenodd" d="M169.035 236.674C169.035 236.674 198.474 237.474 213.194 237.396C228.566 237.315 259.312 236.197 259.312 236.197L259.789 243.362L262.178 257.215L263.133 281.099L260.267 280.621L258.834 279.666L257.401 278.233L255.968 277.755L254.535 277.278L252.625 278.233L250.714 277.755L247.848 278.711H246.893L244.504 279.188L244.027 280.621H243.072L241.639 280.144L240.206 279.666L239.25 278.711L237.817 279.188L235.429 277.755L233.518 281.099L232.563 278.711L230.653 279.666L229.22 278.711H228.264L227.787 277.278L224.921 279.666L223.965 277.755L222.532 277.278V275.845H219.666L218.234 276.8L216.801 275.367L215.368 275.845L212.502 274.889H210.113V273.456L208.203 271.545L207.725 272.501H206.77L205.337 272.978L203.904 271.545L202.471 270.112H201.038V244.317L169.035 243.84V236.674Z" stroke="#156EF6" stroke-opacity="0.22" stroke-linecap="round" stroke-linejoin="round"/>
<path fill-rule="evenodd" clip-rule="evenodd" d="M356.752 164.066L361.051 198.46L362.006 197.504L363.439 198.46L364.394 197.504L365.35 198.46H366.305L367.738 201.326L369.171 201.803L371.559 201.326L372.992 202.759L373.947 203.236L374.903 201.803H376.813L377.769 202.759L378.246 202.281H379.679L380.157 201.326L382.068 199.893L383.023 202.281L384.934 202.759L385.889 204.192L386.844 203.714L388.755 202.759V201.326L389.71 200.848L389.232 198.46V197.504L389.71 196.071L390.665 195.116L391.621 195.593V196.549H392.098L393.054 195.593V194.638L392.576 194.16L393.054 193.205L393.531 191.294L394.487 190.817V189.861L395.92 188.906L396.875 189.861L398.786 187.95V186.517L401.174 185.084V183.174L401.651 180.307V177.919L402.129 176.008L401.651 174.575L402.129 173.142L400.696 172.187L402.129 171.231L399.263 153.557L391.621 158.334L388.277 162.155L386.844 162.633H384.934L383.023 163.588L381.59 164.066L381.112 165.021L378.246 164.544H377.291L376.336 165.021L374.903 164.544L377.769 163.111H376.813L375.858 163.588L373.47 162.633L371.082 162.155L370.126 161.678L356.752 164.066Z" stroke="#156EF6" stroke-opacity="0.22" stroke-linecap="round" stroke-linejoin="round"/>
<path fill-rule="evenodd" clip-rule="evenodd" d="M199.127 119.163C186.795 119.163 162.348 118.685 162.348 118.685L163.303 79.5149C163.303 79.5149 181.294 80.1269 190.29 80.194C202.629 80.2861 227.309 79.9926 227.309 79.9926L228.742 83.8141L228.264 85.2471V90.5017L231.13 97.1893L231.607 99.5778V103.399L232.085 105.788V106.743L232.563 110.087L233.04 111.998L234.473 113.908L234.951 118.685C234.951 118.685 210.996 119.163 199.127 119.163Z" stroke="#156EF6" stroke-opacity="0.22" stroke-linecap="round" stroke-linejoin="round"/>
<path fill-rule="evenodd" clip-rule="evenodd" d="M399.267 226.644L459.451 215.657L461.362 217.567L463.272 220.434L460.884 218.523L461.362 219.956L458.974 218.523L458.018 219.001L460.407 220.434L459.451 220.911L457.541 220.434L458.974 221.867L456.108 220.434V221.389L457.541 222.344L456.108 223.3H454.197L453.719 221.389V219.478H452.764V222.344L453.719 223.777V225.21L456.108 224.733L457.063 223.777L458.018 224.733L459.451 224.255L460.407 222.822L461.362 224.255L460.884 225.688L461.839 226.166L460.884 227.121H462.317L462.795 225.21L462.317 223.777H463.75L464.228 222.822L465.183 224.733V226.166V227.599L464.228 227.121L463.75 227.599L462.795 230.465L461.839 231.42H459.929L458.974 230.465L458.018 231.42L457.541 230.465L458.496 229.51L455.63 229.987L456.585 231.42H453.719L451.809 230.943L452.764 232.376L455.63 232.853H458.496V233.809L456.585 234.764L458.018 235.242L456.585 237.153H455.152L452.286 235.72L454.197 238.108L456.108 238.586H457.063L458.018 237.153L458.974 238.108L461.362 236.675L459.451 240.496L458.018 239.541L456.585 240.496L454.197 241.93L452.764 240.974V242.407L451.331 244.318L450.853 242.407H449.898L450.376 243.363L449.898 243.84L450.853 244.796L448.943 246.229L447.51 248.617L446.555 251.006V252.439L445.599 250.528V254.827H442.256H441.778L440.823 255.782L439.39 256.26L425.538 246.229L413.119 248.139L412.641 246.229L410.731 244.796L409.775 245.751L409.298 244.318L394.968 246.229L391.624 247.662L391.147 248.617H390.669L387.325 250.05L373.951 251.961V248.617L374.429 248.139L376.339 248.617L376.817 245.751L379.683 243.363H382.071L385.415 239.541H387.325L387.803 237.153H388.758L389.236 235.72L390.669 235.242L391.147 236.197H392.102L393.057 233.809L395.446 233.331L396.401 233.809L397.834 230.465L398.789 229.51H399.267V226.644Z" stroke="#156EF6" stroke-opacity="0.22" stroke-linecap="round" stroke-linejoin="round"/>
<path fill-rule="evenodd" clip-rule="evenodd" d="M28.4932 157.637C38.4029 159.144 58.2223 161.679 58.2223 161.679L48.6692 237.631L48.1915 238.587L47.2362 240.497H45.8033L45.3256 238.587L44.3703 239.064L42.9373 238.109L41.0267 239.064L40.5491 240.975L41.0267 242.408L40.5491 243.363L41.0267 245.752L40.5491 247.185L41.0267 249.573V251.484L40.0714 251.962V253.873L-9.12695 191.295L-1.96214 152.603C-1.96214 152.603 18.5006 156.118 28.4932 157.637Z" stroke="#156EF6" stroke-opacity="0.22" stroke-linecap="round" stroke-linejoin="round"/>
<path fill-rule="evenodd" clip-rule="evenodd" d="M406.432 148.78L406.909 152.124L450.376 143.048L451.809 143.526L452.286 144.481L453.242 144.003L454.675 144.959V147.347L455.63 148.78H458.496L459.451 149.736L468.049 152.602V152.124L467.571 150.691L466.616 149.736V148.303H467.094L467.571 149.258L468.049 150.213L468.527 150.691L469.004 154.513L470.437 153.079L470.915 152.124L469.96 150.691L471.87 148.303L470.915 147.347L469.482 137.793H469.004L469.482 128.24L469.004 127.762L467.094 119.164V118.208L466.138 117.253L465.661 117.731L465.183 118.208V117.253V115.342L464.705 114.864V114.387L464.228 113.909L463.75 112.476H463.272V110.088L463.75 109.132L462.795 107.699L462.317 105.788L461.839 104.833V103.4V102.445L461.362 101.967V100.056L447.988 103.4H446.555L444.166 105.311L443.211 106.744L440.345 110.565L439.867 111.521V112.954L438.434 114.387L435.091 117.731L435.569 118.208H437.001H437.957L438.434 118.686L437.957 119.641L437.001 121.074H436.524L437.479 122.03V122.985L438.434 123.463L437.957 123.941V124.896L437.001 125.374H436.046L434.136 127.762L433.658 128.717L431.747 129.673L431.27 130.15H429.837H428.404L427.448 130.628L425.538 131.584H424.582L423.627 130.628L419.328 131.106L418.373 131.584H416.462L410.731 133.972L411.208 134.927V135.883V136.36H413.119V137.316L412.641 138.271L413.596 139.227V140.182L412.641 141.615L411.686 143.526L409.775 144.959L408.82 146.392L406.432 148.78ZM467.571 157.379L467.094 157.856L466.616 159.289L467.571 158.812L468.049 157.856L467.571 157.379ZM468.527 156.901V157.379L469.004 157.856L469.482 157.379L469.96 156.901L470.437 156.423L471.393 156.901L471.87 156.423L475.691 154.513H477.124V153.557H478.08L479.99 152.124L482.379 151.646L482.856 150.691L482.379 150.213L481.901 150.691L481.423 150.213L483.334 147.825L482.856 147.347L480.946 149.736L480.468 150.213L478.08 150.691H477.124L476.647 151.169H476.169V151.646L474.258 152.124L473.781 152.602L472.826 152.124V153.079L472.348 152.602L471.87 153.079V154.035L470.915 154.513L470.437 154.99H469.482L469.004 155.468L468.527 156.901ZM483.334 149.736V150.213H483.812L485.245 149.258L485.722 148.303H486.677L488.11 146.87L486.2 147.825H485.722H485.245L484.289 148.303L483.812 148.78L483.334 149.736Z" stroke="#156EF6" stroke-opacity="0.22" stroke-linecap="round" stroke-linejoin="round"/>
<path fill-rule="evenodd" clip-rule="evenodd" d="M103.599 233.332C103.599 233.332 120.911 234.82 129.567 235.326C142.724 236.094 169.038 237.153 169.038 237.153V243.841H168.082L166.172 304.507L125.571 302.596V304.029L127.004 305.462L107.42 304.029L106.943 310.239L97.3896 309.284L103.599 233.332Z" stroke="#156EF6" stroke-opacity="0.22" stroke-linecap="round" stroke-linejoin="round"/>
<path fill-rule="evenodd" clip-rule="evenodd" d="M180.498 183.653V197.506C180.498 197.506 199.542 197.723 209.064 197.592C222.788 197.404 250.236 196.55 250.236 196.55L249.28 195.595V194.64L248.325 193.207L246.892 192.251L245.937 189.863L244.981 189.385V187.474L244.026 186.519V184.608V180.787L243.071 179.831L244.026 179.354L242.593 178.398V176.965L241.16 175.532L241.638 172.666L240.682 171.711V170.278L239.727 169.8L239.25 168.367L238.294 167.889V165.978L237.817 163.59H235.906L234.951 162.157V161.202H233.518L233.04 160.724L231.607 160.246H230.174L228.741 158.813L226.353 159.291H225.398H223.009L222.054 160.246H220.621L216.8 157.858C216.8 157.858 193.388 157.935 181.682 157.735C174.76 157.617 160.914 156.902 160.914 156.902L159.959 183.653H180.498Z" stroke="#156EF6" stroke-opacity="0.22" stroke-linecap="round" stroke-linejoin="round"/>
<path fill-rule="evenodd" clip-rule="evenodd" d="M126.227 129.257C137.471 130.033 161.869 130.628 161.869 130.628L163.302 79.5156C163.302 79.5156 145.702 78.9067 127.024 77.578C115.853 76.7833 104.297 75.4244 95.8881 74.6371C80.9431 73.2379 51.0532 69.4841 51.0532 69.4841L49.1426 81.4263L51.0532 84.2924L52.0085 86.6809L51.5308 87.6363L52.0085 89.0693H51.5308L53.4415 91.4578L54.8744 92.4131L58.218 96.7123L57.7403 97.6677L59.651 99.5784H60.6063V101.012H63.4722L61.5616 106.744L60.6063 107.221L61.0839 111.043L59.651 111.521V114.387L61.5616 116.298L65.3828 113.431L66.3381 115.342L67.2934 119.164L69.204 122.985L68.7264 124.896L70.1594 126.329H71.5923L72.5476 130.15L74.4582 132.061L75.4135 130.628L78.7571 131.584L79.7124 130.15L84.0113 130.628L84.489 131.106H87.3549L88.3102 129.195H89.2655L91.6538 132.539L92.1314 132.061L92.6091 125.851C92.6091 125.851 114.384 128.44 126.227 129.257Z" stroke="#156EF6" stroke-opacity="0.22" stroke-linecap="round" stroke-linejoin="round"/>
<path fill-rule="evenodd" clip-rule="evenodd" d="M262.161 187.93C256.435 188.255 244.982 188.428 244.982 188.428V189.384L245.938 189.862L246.893 192.25L248.326 193.205L249.281 194.638V195.594L250.237 196.549L252.625 197.982L253.58 197.505L254.535 197.982L255.013 199.415L254.058 199.893L253.58 200.848L252.625 202.281L253.58 203.237L255.013 204.192V205.148L255.968 206.581H257.401L258.357 207.058L259.312 236.197L259.79 242.885L308.033 239.541L309.466 240.974V241.929L307.077 245.273L306.6 245.751V246.229V246.706L313.287 245.751L313.765 244.318L314.72 243.84L313.765 242.407H314.72L314.242 240.974H315.198L314.72 239.063V238.108L315.675 239.063L316.153 238.586L316.631 237.153V236.675L318.063 237.63L318.541 236.197L319.019 234.764L318.541 233.809L319.019 231.898H318.063L317.108 230.943V231.898L315.675 231.42V230.465L314.242 228.554V228.077L314.72 226.643V226.166L313.765 225.21V223.3L311.854 222.344L310.899 220.911H310.421L308.51 219.956L307.555 219.478L303.734 216.612V214.701L305.167 210.88V209.447L305.644 208.491L304.212 207.058H302.301L300.868 208.491L299.913 207.536L298.957 205.148V203.714L298.002 202.281L295.136 200.848L294.658 199.893L291.793 197.505L291.315 196.549L290.837 195.594L290.36 194.638L289.404 191.772L289.882 189.862L290.36 188.906L287.016 186.04C287.016 186.04 270.446 187.459 262.161 187.93Z" stroke="#156EF6" stroke-opacity="0.22" stroke-linecap="round" stroke-linejoin="round"/>
<path fill-rule="evenodd" clip-rule="evenodd" d="M331.439 257.215L331.916 258.171L332.872 258.649V291.609V299.73L335.738 318.837L335.26 320.27L333.349 319.315L332.872 319.793H331.439L329.528 318.837L327.618 320.27L326.185 321.226L324.752 320.27V321.226L324.274 322.659L321.886 323.136V322.181L320.93 319.793L319.497 318.359L319.02 316.926L319.497 313.583V312.627L298.003 314.538V312.627L297.525 310.716H298.481L298.958 309.761L298.481 307.85L299.436 306.417L300.391 303.073L303.257 300.685L302.78 298.774H303.257L304.213 295.908L302.302 294.475V293.042L301.347 291.609L302.302 291.131L301.824 290.654L301.347 289.698L302.302 288.265L300.869 287.31V285.877L301.824 284.921L300.869 283.488V281.1L299.914 280.144L300.869 279.189L299.914 278.234L301.347 276.323L300.869 273.935L302.78 272.979L303.257 272.501L302.302 271.546L304.213 269.635V268.68L305.646 267.725V263.425H307.078V261.992L308.511 261.037V259.604L331.439 257.215Z" stroke="#156EF6" stroke-opacity="0.22" stroke-linecap="round" stroke-linejoin="round"/>
<path fill-rule="evenodd" clip-rule="evenodd" d="M288.927 147.825L236.863 150.691L236.385 127.285L235.43 125.851L233.519 125.374L232.086 122.508L233.519 121.552L234.474 120.119L234.952 118.686L234.474 113.909L233.041 111.999L232.564 110.088L232.086 106.744V105.789L231.608 103.4V99.5787L231.131 96.7126L228.265 90.5026V85.248L228.743 83.815L227.31 79.9935L246.893 79.0381V74.2612L248.804 74.7389L249.759 76.172L250.715 79.0381V80.9489L252.148 82.3819H255.013L255.491 82.8596L259.312 83.3373L259.79 84.7704L261.223 84.2927H263.134L263.611 83.3373L265.044 82.8596H267.91L268.865 83.3373H270.776V84.2927H269.821L270.298 84.7704H272.209L272.687 86.6811L273.642 87.1588L274.12 87.6365L274.597 85.7257H276.508L276.986 87.1588H277.941H279.374L279.852 88.5919H280.807L281.284 89.5472L283.673 88.5919L284.628 88.1142L287.494 86.2034L288.927 88.1142L290.838 87.6365L295.136 87.1588L296.569 88.5919L297.525 88.1142H299.435L296.092 90.5026L290.838 92.4134L287.494 95.2795L283.673 99.5787L279.852 103.4L277.463 104.833L276.986 106.266L276.508 107.222H275.553L276.03 111.999V114.865L274.597 115.82L272.209 117.253L271.731 118.686L270.776 120.119V121.552L272.209 122.03L273.164 123.463L272.687 125.374L272.209 126.807L272.687 127.762L272.209 128.24L272.687 129.195L272.209 132.061L274.597 133.972H276.508L277.941 135.405L279.852 135.883L281.762 137.794L283.195 139.704L284.628 140.66H286.539L288.449 142.571L288.927 144.004V147.825Z" stroke="#156EF6" stroke-opacity="0.22" stroke-linecap="round" stroke-linejoin="round"/>
<path fill-rule="evenodd" clip-rule="evenodd" d="M336.216 165.978L356.755 163.112V164.067L370.13 161.678V160.245L372.04 157.857V154.513L372.996 152.602L374.429 152.125L373.951 150.214L375.384 149.259L374.906 148.303L375.862 147.826L377.295 149.259L378.25 143.526L376.339 141.138L374.906 136.361L373.473 132.54L372.518 130.629H370.607L368.697 132.062H367.741L366.308 135.883H365.353L364.876 137.316H363.443L361.054 136.839L361.532 133.017L363.443 132.062L364.398 131.106V129.196L365.353 128.24L366.308 127.285L365.831 122.03L364.876 120.12L363.443 119.164L363.92 117.731L365.353 118.209L364.398 116.776H363.443V114.865H361.532L360.099 114.387L358.666 113.91H355.8L355.322 112.477L353.889 111.999H352.457L349.591 111.044L348.158 111.999L346.725 113.432V114.865L347.202 115.343L349.113 115.82L348.635 116.298L345.769 117.254L344.336 118.209L344.814 120.597V123.463L343.859 125.374L342.903 124.897L342.426 123.941V121.553V119.642L340.993 122.508L340.515 123.463H339.56L338.127 124.419L338.605 125.852L336.694 126.807L337.649 128.24V131.584L336.694 133.495L335.261 135.406L336.694 137.316V138.749L335.739 140.66L336.694 143.049L338.127 144.959L338.605 145.437H339.56L339.082 146.87L340.037 149.259L340.515 150.692V156.902L339.082 160.245L338.127 162.634L337.649 165.022L336.216 165.978ZM322.842 123.463L325.708 116.776L327.141 114.387L327.619 111.521L328.574 112.954V114.387L330.007 112.477L331.917 111.521L332.395 113.432L330.962 114.865L331.44 115.343L333.828 112.477L334.783 111.044L336.694 110.088L338.127 110.566L340.515 109.611L341.47 108.177L344.814 107.7L347.68 108.655L349.113 110.088L350.068 107.222H352.457L356.278 107.7L357.711 107.222H359.144H361.054V106.267L360.099 105.311L359.144 106.744H357.233L355.8 105.789L354.845 105.311L353.889 104.834V103.878L354.367 102.445L353.889 100.534L352.457 101.49L350.546 102.445H349.591L349.113 101.968L347.68 102.445L345.292 101.968V98.6237L343.381 99.1014L340.515 101.012L337.172 100.534L334.306 101.49L331.44 103.878L330.484 104.834L329.051 104.356L328.096 105.311L326.663 103.878L324.275 105.311L322.842 104.834L319.976 101.012L317.11 100.534L315.2 101.012L312.334 102.923L311.856 99.5791L313.767 97.1906L316.155 94.8022L315.677 94.3245L318.543 93.3691H317.11L314.244 93.8468L311.378 95.7576L310.423 97.1906L308.99 97.6683L308.035 99.1014L307.079 100.534H305.646L303.736 102.445L299.437 103.401L298.482 104.834L297.049 105.789L293.705 107.222L295.616 107.7L297.049 109.611L308.512 111.999L310.423 112.954L312.811 112.477L315.677 112.954L317.11 113.432V114.865H318.543L319.976 115.82L320.931 118.209L319.976 120.12H320.454L321.887 119.642H322.364L321.409 122.508L322.842 123.463Z" stroke="#156EF6" stroke-opacity="0.22" stroke-linecap="round" stroke-linejoin="round"/>
<path fill-rule="evenodd" clip-rule="evenodd" d="M415.027 181.262L416.46 187.95L418.371 186.039L419.326 184.606L419.804 183.65H421.237L422.67 182.217V180.784L423.625 182.217H425.058L426.013 181.74L426.491 180.307H427.924L428.402 179.351L428.879 178.873L430.79 179.829L432.701 179.351L432.223 180.307H432.701L433.178 181.262L434.134 181.74V182.695H436.044L437.477 183.173L436.999 184.606L437.955 185.561H439.865L440.343 186.516H441.776L442.254 185.561L443.687 186.994L443.209 187.95V188.905L442.731 189.86V190.816L441.776 192.249V193.682H442.731V192.249L443.687 192.726L444.164 192.249L445.12 193.682L446.075 194.159L445.597 192.726L446.553 193.682L447.03 194.637L448.463 194.159L449.418 194.637L449.896 195.115L450.851 194.637L451.807 196.07L452.284 195.115L450.851 193.682H450.374L448.941 192.726L447.985 192.249L447.03 190.816V188.905L447.985 190.816L448.941 191.771L450.851 192.726V192.249L448.941 190.338V188.905L447.985 187.95V186.994V185.561L447.03 185.083L447.985 184.606L446.553 184.128L447.985 182.695L446.075 181.262L447.03 180.784L447.508 181.262V180.307L448.463 179.351L447.985 178.873L448.941 178.396L449.418 179.351V177.44L449.896 178.396L450.851 177.918L450.374 176.963L450.851 176.007L451.807 175.052L452.284 176.485L453.24 175.53V176.485L452.284 177.44L453.717 177.918L453.24 178.396L451.329 178.873L450.374 180.307V182.217L451.329 181.74H451.807L451.329 183.65L450.851 184.128H449.896V185.083L451.807 184.128L452.284 185.083L451.807 186.039H452.762L452.284 186.994L451.807 187.472L453.24 188.427L454.195 187.95L454.673 188.905L451.807 189.383L452.284 190.338L451.807 191.293L453.717 191.771L454.673 193.204V191.771H455.628L456.583 190.338V191.771V192.726H457.061L456.583 193.682H457.539L458.016 194.637L457.539 196.07L459.927 195.593L462.315 194.637V193.204L463.27 192.726L462.793 191.293L464.226 190.816V189.86L463.27 188.427L457.539 189.86L453.24 173.619L415.027 181.262Z" stroke="#156EF6" stroke-opacity="0.22" stroke-linecap="round" stroke-linejoin="round"/>
<path fill-rule="evenodd" clip-rule="evenodd" d="M268.866 289.221L300.869 287.31L302.302 288.265L301.347 289.698L301.824 290.654L302.302 291.131L301.347 291.609L302.302 293.042V294.475L304.213 295.908L303.257 298.774H302.78L303.257 300.685L300.391 303.074L299.436 306.417L298.481 307.851L298.958 309.761L298.481 310.717H297.525L298.003 312.627V314.538L319.498 312.627V313.583L319.02 316.927L319.498 318.36L320.93 319.793L321.886 322.659V323.137H320.453L318.065 322.659L316.632 321.226H314.721L312.333 324.092L312.81 325.525L314.721 326.003L316.632 326.48L319.498 324.57H321.408L320.93 325.525L319.498 326.003L319.975 326.958H320.93L321.886 327.913L322.841 326.958L323.796 325.047L324.752 326.958L325.229 327.913H323.796L322.841 329.824L321.408 329.346L321.886 330.78L320.93 331.257L324.274 333.646L328.095 334.601L330.006 336.989L328.573 338.423L327.14 336.989L326.662 337.467L325.229 336.034L323.319 335.556L322.841 334.601L321.408 335.079L319.975 333.168L317.109 332.213H315.676L316.154 333.168L317.587 334.123V335.556V336.989L316.632 338.423L315.676 337.467V336.512L313.766 335.556L312.333 336.034L311.377 336.512L310.9 338.423L307.556 337.945H306.123L303.735 337.467V336.512L305.646 336.989L305.168 336.034L303.735 334.601L304.213 333.168L303.735 332.69L302.78 334.123L300.869 333.646L300.391 333.168L299.914 332.213L299.436 332.69L298.958 331.257L296.57 331.735V330.302H295.137L293.227 331.257L292.271 331.735L293.704 333.168L291.794 334.601H287.017L282.718 332.213L279.852 331.735L277.942 332.213L274.12 333.168H273.165L272.687 332.213L274.12 331.735V330.302V329.346V328.391L274.598 326.48L273.643 324.57L274.12 323.614V322.181L275.076 320.27L275.553 318.837V315.971L276.031 315.494L275.553 315.016V313.583L274.12 312.15V310.717L273.165 309.761V309.284L272.21 308.328V306.417L270.777 304.507L269.344 303.074L268.866 289.221Z" stroke="#156EF6" stroke-opacity="0.22" stroke-linecap="round" stroke-linejoin="round"/>
<path fill-rule="evenodd" clip-rule="evenodd" d="M316.154 238.585L330.962 237.152V236.197L330.484 234.764H333.35L377.294 230.465L378.249 229.509L383.503 226.643L383.981 225.21L386.369 224.255V223.299L387.325 222.344V220.911L390.668 219L394.012 214.701V214.223H392.579L390.191 212.79L388.28 210.402L387.802 209.446L385.892 207.536L386.369 205.625L385.892 204.192L384.936 202.759L383.026 202.281L382.071 199.893L380.16 201.326L379.682 202.281H378.249L377.772 202.759L376.816 201.803H374.906L373.95 203.236L372.995 202.759L371.562 201.326L369.174 201.803L367.741 201.326L367.263 200.37L366.308 198.46H365.353L364.397 197.504L363.442 198.46L362.009 197.504L360.576 198.937L361.054 199.893V200.848L362.009 201.326V202.759H360.576L358.188 204.192L357.233 203.714L355.322 204.192L355.8 206.58L354.844 208.013H353.889V209.924L352.934 210.402H351.978L351.501 212.312V214.223L350.068 215.179L348.635 214.223L347.202 213.746L346.724 212.79L345.769 214.223L344.814 216.134L344.336 217.567L343.381 217.089L341.948 216.134L340.515 216.612L340.037 217.089L339.082 219L338.126 218.045L335.738 217.089L334.305 218.045L333.827 217.089V218.522L333.35 219L332.872 218.045L331.917 218.522L330.484 218.045V219.955H329.051L328.573 220.911L328.096 222.344L329.051 223.299V224.255L325.23 225.688L324.752 227.121L325.707 228.554L326.185 229.509L325.23 229.987H324.752L321.408 228.554H319.976L319.02 229.509L318.065 230.942L318.543 231.42L318.065 231.898H319.02L318.543 233.808L319.02 234.764L318.065 237.63L316.632 236.675V237.152L316.154 238.585Z" stroke="#156EF6" stroke-opacity="0.22" stroke-linecap="round" stroke-linejoin="round"/>
<path fill-rule="evenodd" clip-rule="evenodd" d="M217.429 197.477C205.121 197.646 180.504 197.505 180.504 197.505L179.549 237.153C179.549 237.153 205.396 237.799 218.319 237.645C231.985 237.481 259.317 236.198 259.317 236.198L258.362 207.059L257.406 206.581H255.973L255.018 205.148V204.193L253.585 203.238L252.63 202.282L253.585 200.849L254.063 199.894L255.018 199.416L254.54 197.983L253.585 197.505L252.63 197.983L250.242 196.55C250.242 196.55 228.367 197.327 217.429 197.477Z" stroke="#156EF6" stroke-opacity="0.22" stroke-linecap="round" stroke-linejoin="round"/>
<path fill-rule="evenodd" clip-rule="evenodd" d="M244.986 188.427C244.986 188.427 258.674 188.127 265.519 187.738C272.686 187.331 287.019 186.039 287.019 186.039L290.363 188.905L290.84 188.427L290.363 186.517L293.229 184.606V182.695L295.139 180.784L294.662 179.351L292.751 177.441L293.706 174.574L297.528 173.619L300.394 171.708V169.798L301.827 168.365L301.349 164.543L298.483 163.588V162.155L296.095 160.244L295.139 157.855H292.273L290.84 154.989L290.363 151.645L291.318 150.212L289.885 149.257L289.408 147.824L235.433 150.69V151.645L236.388 152.601L235.91 154.034L236.866 154.989L236.388 158.811L235.433 160.244L236.866 163.588H237.821L238.299 165.976V167.887L239.254 168.365L239.732 169.798L240.687 170.275V171.708L241.642 172.664L241.164 175.53L242.597 176.963V178.396L244.03 179.351L243.075 179.829L244.03 180.784V186.517L244.986 187.472V188.427Z" stroke="#156EF6" stroke-opacity="0.22" stroke-linecap="round" stroke-linejoin="round"/>
<path fill-rule="evenodd" clip-rule="evenodd" d="M329.051 167.411L330.484 168.366H331.917L336.216 165.978L356.755 163.112V164.067L361.054 198.46L360.576 198.938L361.054 199.894V200.849L362.009 201.327V202.76H360.576L358.188 204.193L357.232 203.715L355.322 204.193L355.8 206.581L354.844 208.014H353.889V209.925L352.934 210.403H351.978L351.501 212.313V214.224L350.068 215.18L348.635 214.224L347.202 213.746L346.724 212.791L345.769 214.224L345.291 215.18L344.813 216.135L344.336 217.568L343.381 217.09L341.948 216.135L340.515 216.613L340.037 217.09L339.082 219.001L338.126 218.046L335.738 217.09L334.305 218.046L333.827 217.09V218.523L333.35 219.001L332.872 218.046L331.917 218.523L330.484 218.046V219.001V219.956H329.051L328.573 218.523L329.051 218.046V216.135L330.006 215.18L329.051 214.224L329.529 213.269L330.484 212.791L331.439 210.88L332.394 209.925V208.492L333.35 207.059V206.103L332.872 204.67V203.715L331.917 202.282L330.962 201.327L331.917 200.849L331.439 199.416L332.394 198.46L329.051 167.411Z" stroke="#156EF6" stroke-opacity="0.22" stroke-linecap="round" stroke-linejoin="round"/>
<path fill-rule="evenodd" clip-rule="evenodd" d="M324.752 157.379L296.092 160.245L298.481 162.156V163.589L301.347 164.544L301.824 168.366L300.391 169.799V171.71L297.525 173.62L293.704 174.576L292.749 177.442L294.659 179.353L295.137 180.786L293.227 182.696V184.607L290.361 186.518L290.838 188.429L290.361 188.906L289.883 189.862L289.405 191.772L290.361 194.639L291.794 197.505L294.659 199.893L295.137 200.848L298.003 202.282L298.958 203.715V205.148L299.914 207.536L300.869 208.491L302.302 207.058H304.213L305.646 208.491L305.168 208.969V210.88L303.735 214.701V216.612L307.556 219.478L310.422 220.911H310.9L311.855 222.344L313.766 223.3V225.211L314.721 226.166V226.644L314.243 228.077V228.554L315.676 230.465V231.42L317.109 231.898V230.943L318.065 231.898L318.542 231.42L318.065 230.943L319.02 229.51L319.975 228.554H321.408L324.752 229.987H325.229L326.185 229.51L325.707 228.554L324.752 227.121L325.229 225.688L326.662 225.211L329.051 224.255V223.3L328.095 222.344L328.573 220.911L329.051 219.956L328.573 218.523L329.051 218.045V216.134L330.006 215.179L329.051 214.224L329.528 213.268L330.484 212.791L331.439 210.88L332.394 209.925V208.491L333.349 207.058V206.103L332.872 204.67V203.715L331.916 202.282L330.961 201.326L331.916 200.848L331.439 199.415L332.394 198.46L329.051 167.41L327.618 165.977L327.14 164.544V163.111L325.707 162.156L325.229 160.723L324.752 160.245V157.379Z" stroke="#156EF6" stroke-opacity="0.22" stroke-linecap="round" stroke-linejoin="round"/>
<path fill-rule="evenodd" clip-rule="evenodd" d="M88.787 165.501L91.653 132.54L89.2647 129.196H88.3094L87.3541 131.107H84.4882L84.0105 130.629L79.7116 130.152L78.7563 131.585L75.4127 130.629L74.4574 132.062L72.5468 130.152L71.5915 126.33H70.1585L68.7256 124.897L69.2032 122.986L67.2926 119.165L66.3373 115.343L65.382 113.433L61.5608 116.299L59.6502 114.388V111.522L61.0831 111.044L60.6055 107.223L61.5608 106.745L63.4714 101.013H60.6055V99.5796H59.6502L57.7395 97.6689L58.2172 96.7135L54.8736 92.4143L53.4407 91.4589L51.53 89.0705H52.0077L51.53 87.6374L52.0077 86.6821L51.0524 84.2936L49.1418 81.4275L51.0524 69.4853L41.977 68.0522L36.7228 101.013L37.6781 102.923V103.879L37.2004 104.357L37.6781 107.223L40.544 109.611L41.0217 112L38.6334 114.866L38.1557 115.821L36.2451 118.687L35.7675 120.12L33.8568 122.031L31.4686 124.897L30.9909 127.763L32.9015 128.241L33.8568 129.196L32.9015 130.152V131.585L31.9462 133.495L28.125 157.38L58.2172 161.679L88.787 165.501Z" stroke="#156EF6" stroke-opacity="0.22" stroke-linecap="round" stroke-linejoin="round"/>
<path fill-rule="evenodd" clip-rule="evenodd" d="M223.011 460.712L223.967 460.234L224.444 458.801L226.833 456.89L228.743 455.935L230.654 455.457L233.042 454.979L234.953 453.546L235.908 451.635L233.52 450.68L233.042 448.769H231.609V446.859L229.698 444.948L224.444 443.037L223.967 443.515L221.578 442.082L220.623 441.126L219.19 442.082L220.145 443.992L220.623 444.948L218.712 447.336L217.279 449.247L218.235 451.158L219.19 453.546L219.668 455.457L219.19 458.323L220.145 459.756H222.056L223.011 460.712ZM158.05 415.331L156.617 416.764L155.662 417.72V418.675L156.14 419.153L157.095 417.72L158.528 417.242V415.809L158.05 415.331ZM165.693 411.987L163.305 413.42L162.349 414.854L162.827 416.287H164.26L165.693 417.72H166.648L168.559 417.242L169.036 415.331L169.992 413.898L168.559 412.465L166.648 412.943L165.693 411.987ZM189.098 420.108L191.008 422.497V424.407L192.919 423.452L193.397 424.885L193.874 426.318H192.441L190.053 425.84L188.62 424.885V425.84L187.665 426.318L186.232 424.885L185.277 423.452L184.799 421.541L186.71 422.019L189.098 420.108ZM199.606 426.796L200.562 427.273L201.995 427.751H203.905V427.273L204.86 428.229H208.204L206.293 429.662H204.383L202.95 428.706L200.084 429.184H199.129L198.651 428.229L199.606 427.751V426.796ZM202.95 431.573H204.383L206.293 433.006L204.86 434.439L203.428 433.961V432.528L202.472 432.05L202.95 431.573ZM209.637 436.349L207.726 436.827V437.305L208.682 437.783L210.115 437.305L209.637 436.349ZM210.592 433.483L211.548 434.439V435.872L212.025 436.827L212.981 436.35H214.414L215.369 435.394L216.324 435.872L217.757 434.439V433.483L216.324 432.528L213.936 431.095L212.025 432.05L211.07 431.573L208.682 429.184L208.204 430.617L207.726 431.573L209.159 433.483H210.592Z" stroke="#156EF6" stroke-opacity="0.22" stroke-linecap="round" stroke-linejoin="round"/>
<path fill-rule="evenodd" clip-rule="evenodd" d="M387.325 250.05L359.621 253.871L368.219 280.622L370.129 284.921L371.562 286.832V288.742L372.995 289.22L371.562 290.653V293.041L370.607 293.997V296.385L372.518 298.774L372.04 303.551L373.473 304.984L373.951 306.417L374.906 307.85L375.384 309.761L403.565 307.85L406.431 307.372V308.327L407.386 309.761H408.819L409.297 306.894L408.342 306.417V304.506L409.297 303.551L411.685 304.028H414.551L413.596 302.595L414.551 300.684H413.596L414.074 299.729L413.596 298.774V298.296V296.863H414.551V298.296L415.507 296.385L413.118 295.908V294.952L415.507 295.43L415.029 294.475L416.462 293.041L415.029 293.519L414.074 292.564L415.984 292.086L415.029 291.131L415.507 290.175L414.551 289.698H416.462L416.94 288.742L415.507 288.265L415.984 287.309L417.895 287.787V286.832L418.85 285.876L417.417 285.398L416.462 284.921L415.984 285.398L415.029 283.965V282.055L413.596 280.144L413.118 279.189H411.685L411.208 278.233L410.73 276.322L409.775 274.889V273.934L407.386 272.501H405.954V271.546L404.998 271.068V270.112L403.565 269.635V268.679L402.132 267.246H400.699L399.266 264.858L396.878 263.903L396.4 262.947H395.445L394.967 261.514L393.535 260.559L393.057 260.081L392.579 258.648L391.146 257.693V256.259L389.236 256.737L387.803 255.782L387.325 255.304L385.892 254.826L384.937 254.349L385.892 252.438L386.37 251.483L387.325 250.05Z" stroke="#156EF6" stroke-opacity="0.22" stroke-linecap="round" stroke-linejoin="round"/>
<path fill-rule="evenodd" clip-rule="evenodd" d="M373.95 306.416L344.335 309.76L343.857 312.149L345.29 313.582L346.723 314.059V315.97L347.201 316.925H348.156L347.201 318.836L347.679 319.314L350.067 316.448L349.589 315.015L351.022 315.97L351.5 315.015H352.455L351.978 315.97L353.411 316.448L352.455 316.925L356.754 316.448L357.709 315.015H358.665L361.053 314.537L362.486 315.97L360.098 316.448L363.919 317.403L366.785 318.836L365.352 317.403L366.785 316.448L367.262 317.403L368.695 315.97L369.173 316.925L367.74 318.358L368.695 318.836H370.128L371.084 319.792L370.128 320.269L368.695 319.792L371.084 321.225L372.517 322.658V324.091H373.95L375.86 323.135L377.771 321.702L378.249 322.658L381.592 319.792H383.503L381.592 318.836L383.503 317.403L384.936 316.925H387.324L389.235 317.881H390.668L392.578 319.792L393.056 320.747L394.966 321.225L395.444 323.135L396.399 324.091L397.832 324.568L398.788 326.001L400.221 326.957H403.087L404.042 329.345L405.475 330.301V332.211L405.952 333.167V337.944L404.997 340.332L405.952 341.287L405.475 344.631L407.385 346.064L407.863 344.154L406.43 343.198L406.908 341.765L408.818 342.721V344.154L409.774 342.721L410.251 343.676L410.729 344.631L408.818 347.497L408.341 349.408L409.774 350.841L410.251 352.274L411.684 354.185L412.64 355.618L414.073 357.051H415.506L413.595 355.14H415.028L416.938 354.663L417.416 355.14L416.461 355.618L416.938 358.962L417.416 360.395L418.371 359.917V358.962L420.282 357.529V358.484L419.327 359.44L418.371 360.873L419.327 361.35L419.804 360.873L420.76 362.783L421.237 365.172L422.67 367.083L426.492 368.038L427.925 368.993V369.949L428.402 370.426L429.835 371.859L430.79 373.77L433.179 374.248L434.134 375.203L433.179 376.159L430.79 374.726V376.159L431.746 377.114L434.134 376.636L434.612 375.681L436.522 376.159L437.955 374.248H439.388L440.821 371.859L439.866 370.904L440.821 367.56L441.299 364.694V362.306V359.44L440.821 358.962V355.14L440.344 352.274L439.388 351.319V350.364L437.478 348.453H436.522L436.045 347.497L437.478 347.975L436.522 346.064L436.045 345.587L434.134 342.243L432.223 339.377L429.835 335.555L427.447 332.211L426.492 328.868L427.447 328.39L427.925 330.301H429.357L425.059 325.046L420.76 319.314L417.894 312.626L417.416 311.671L416.461 309.76L415.983 307.372L414.55 306.416V304.983H415.506V304.028H411.684L409.296 303.55L408.341 304.506V306.416L409.296 306.894L408.818 309.76H407.385L406.43 308.327V307.372L403.564 307.849L375.383 309.76L374.905 307.849L373.95 306.416Z" stroke="#156EF6" stroke-opacity="0.22" stroke-linecap="round" stroke-linejoin="round"/>
<path fill-rule="evenodd" clip-rule="evenodd" d="M147.063 183.173C135.451 182.638 107.896 180.307 107.896 180.307L103.597 233.33C103.597 233.33 121.759 234.89 132.512 235.431C147.075 236.164 179.544 237.152 179.544 237.152L180.499 183.651C180.499 183.651 159.653 183.753 147.063 183.173Z" stroke="#156EF6" stroke-opacity="0.22" stroke-linecap="round" stroke-linejoin="round"/>
<path fill-rule="evenodd" clip-rule="evenodd" d="M-1.96789 152.601L-44.0014 144.002V145.435L-44.9567 146.868L-44.0014 147.824V152.123L-45.9121 155.944V156.9L-46.3897 158.811L-45.9121 159.288L-47.345 159.766L-47.8227 160.721L-48.778 161.199L-50.2109 163.587V165.976L-48.3003 168.842L-47.8227 169.797L-46.3897 172.663V176.963L-47.8227 179.351L-47.345 180.784L-46.8674 184.128L-47.8227 184.606L-44.4791 190.338L-42.5685 192.249V194.159L-41.6132 195.592L-40.6579 197.503V198.459L-42.0908 196.548V197.503L-40.1802 200.369H-39.7025L-38.2696 201.802L-37.3143 197.981L-35.8813 197.503L-33.9707 199.414L-33.0154 198.936L-32.0601 198.459L-31.5824 199.414L-30.6271 199.892H-29.1942L-27.7612 200.369L-26.3282 201.802H-26.8059L-28.2389 200.847L-29.1942 201.325L-30.6271 200.847L-33.0154 199.892L-33.9707 200.369L-34.926 199.414L-36.359 200.369V200.847L-35.8813 201.802V202.758L-34.926 203.713V205.624V207.057L-33.9707 207.535L-34.4484 208.012L-35.8813 207.057L-37.3143 205.146V204.191V202.758H-38.2696L-38.7472 203.713L-38.2696 204.669L-38.7472 206.102L-38.2696 208.012L-38.7472 209.923L-37.3143 212.789L-35.8813 214.222L-33.9707 214.7L-33.0154 216.611L-33.493 218.521L-34.926 219.477H-35.4037V223.298L-34.926 224.254L-33.493 225.687L-33.0154 227.598L-32.0601 228.075V229.986L-31.1048 231.419V232.852L-29.1942 233.807L-28.7165 235.718L-26.8059 236.674V238.107L-27.7612 239.062L-27.2835 240.017L-25.3729 240.973V242.406L-25.8506 244.317V246.227V247.66L-26.8059 248.616L-25.3729 249.093L-24.8953 250.527H-21.5517L-21.074 251.482H-19.6411L-18.6858 252.437L-17.2528 252.915L-15.8199 252.437L-12.9539 254.826L-11.9986 257.214L-8.65504 259.125L-7.69973 259.603H-4.83381L-3.40085 261.513L-3.8785 263.902L-2.92319 264.379L-1.96789 263.902L-0.534924 264.379L1.37569 266.768L4.24162 270.112L5.67458 271.545L6.62989 274.411L7.10754 276.799L6.62989 278.71L7.10754 279.665L8.06285 280.621V282.054L34.8115 283.965L35.2891 283.487L36.7221 283.965H37.1997L37.6774 283.009L38.155 282.054V280.143L36.2444 279.665L35.7668 278.71L36.2444 277.277V274.411H37.6774L38.6327 272.5L39.1104 270.589L39.588 268.679V267.723L40.5433 266.768L41.021 265.813L42.9316 264.857L44.3646 263.424L41.9763 261.036L41.4986 258.17L40.5433 256.259L40.0657 255.303V253.87L-9.1327 191.293L-1.96789 152.601Z" stroke="#156EF6" stroke-opacity="0.22" stroke-linecap="round" stroke-linejoin="round"/>
<path fill-rule="evenodd" clip-rule="evenodd" d="M263.134 281.099L262.178 257.215L259.79 243.362V242.884L308.033 239.541L309.466 240.974V241.929L307.078 245.273L306.6 245.751V246.706L313.287 245.751L314.243 246.228L314.72 246.706H313.287V247.661L313.765 248.139L311.377 249.572L311.854 251.483V252.438H310.899L310.421 254.349L309.944 255.782L310.899 257.693H309.466L308.511 259.604V261.037L307.078 261.992V263.425H305.645V267.724L304.212 268.68V269.635L302.301 271.546L303.257 272.501L302.779 272.979L300.868 273.934L301.346 276.323L299.913 278.233L300.868 279.189L299.913 280.144L300.868 281.099V283.488L301.824 284.921L300.868 285.876V287.309L268.388 289.22V282.055L267.91 281.577H265.522L265.044 282.055L264.089 281.577L263.134 281.099Z" stroke="#156EF6" stroke-opacity="0.22" stroke-linecap="round" stroke-linejoin="round"/>
<path fill-rule="evenodd" clip-rule="evenodd" d="M69.7036 230.177C81.001 231.388 103.596 233.331 103.596 233.331L97.3865 309.283L74.4591 307.373L33.3809 286.832L33.8585 285.399L34.8138 283.966L35.2915 283.488L36.7244 283.966H37.2021L38.1574 282.055V280.144L36.2468 279.667L35.7691 278.711L36.2468 277.278V274.412H37.6797L38.6351 272.501L39.5904 268.68V267.725L40.5457 266.769L41.0233 265.814L42.9339 264.858L44.3669 263.425L41.9786 261.037L41.501 258.171L40.068 255.305V251.961L41.0233 251.483V249.572L40.5457 247.184L41.0233 245.751L40.5457 243.362L41.0233 242.407L40.5457 240.974L41.0233 239.063L42.9339 238.108L44.3669 239.063L45.3222 238.586L45.7999 240.496H47.2328L48.6658 237.63L50.0987 227.599C50.0987 227.599 63.1686 229.477 69.7036 230.177Z" stroke="#156EF6" stroke-opacity="0.22" stroke-linecap="round" stroke-linejoin="round"/>
<path fill-rule="evenodd" clip-rule="evenodd" d="M84.9677 389.057L73.504 329.823L72.5487 330.301L70.6381 329.346L69.2051 328.39H67.2945L65.3839 328.868L64.4286 329.346H62.518L61.5627 328.868H59.1744L57.2638 328.39L55.8308 327.913L54.3979 326.957L52.0096 327.913L51.5319 327.435L49.6213 328.39L48.1884 327.913V326.957L46.7554 326.48L47.7107 325.524L45.3224 325.047L43.4118 325.524H41.9789L42.4565 324.569L41.5012 323.613L40.0682 326.002L39.1129 324.569L40.5459 323.613L38.1576 322.18L36.7247 323.613L34.814 325.047H31.9481L30.5152 326.002L29.0822 327.435L27.1716 328.39L26.2163 327.913L23.828 330.779L22.395 332.69L21.9174 334.123L20.4844 335.556H17.6185L15.2302 335.078L14.7526 337.466L13.7973 338.422L15.7079 340.81L18.5738 343.676L19.5291 345.587L19.0515 347.02L21.9174 348.453H24.3057L24.7833 348.931L23.828 349.886V351.319H24.7833H26.2163L27.6492 351.797V353.23H26.2163L25.261 351.797L23.3504 352.275L24.7833 352.752L25.261 354.185L24.3057 353.708L23.3504 355.141L21.4397 354.663L20.4844 354.185L18.0962 353.708L17.6185 352.752L19.0515 350.842L17.1409 350.364L15.7079 351.319H14.2749L13.3196 351.797L13.7973 352.752L11.8867 352.275L9.49839 353.708L6.63246 354.185L7.58777 356.096L10.9313 358.007L9.49839 358.962L9.97604 360.395L9.49839 361.828L11.409 363.262L13.7973 363.739L15.2302 363.262L17.6185 363.739L18.0962 364.695L19.5291 365.172L20.4844 363.739L22.8727 362.784L24.3057 362.306L25.261 363.739L24.3057 365.172H22.8727L23.828 366.605L24.3057 369.471L23.3504 371.382L20.4844 371.86L19.5291 370.427L19.0515 371.86L17.1409 373.293H16.1855L14.7526 371.86L13.3196 372.815L11.8867 374.248V376.159L10.4537 376.637L8.54308 379.025V379.981L7.11012 380.458L8.06543 381.414L7.11012 381.891L7.58777 383.324L8.06543 385.235L9.02073 384.758L9.97604 386.191L14.2749 387.624V388.579L13.3196 389.057L12.3643 388.101H11.409L9.97604 387.146L8.06543 388.579L9.97604 390.967L11.409 393.356L12.842 394.311L15.2302 393.356L16.6632 392.401L17.1409 390.49V392.401L18.0962 395.744L18.5738 397.177L17.6185 398.133L18.0962 400.044L17.1409 402.432L18.5738 402.91L22.8727 400.044L23.3504 401.477L24.7833 401.954L27.1716 404.82L28.1269 404.343L27.6492 401.954L29.0822 400.521V402.91L29.5599 403.865L33.8587 401.954L34.814 400.999L32.9034 403.865L31.4705 406.253L32.9034 406.731L31.4705 407.209V410.075V411.508L30.5152 411.03L28.1269 412.941L27.6492 413.896L27.1716 415.807L26.2163 415.33L23.3504 416.763L20.4844 418.673L20.0068 420.106L20.9621 421.539L19.5291 421.062L17.6185 419.629L14.7526 420.584L12.3643 422.973L10.4537 423.928L9.49839 424.883L7.58777 424.406L6.15481 425.361L4.72185 424.883L3.76654 426.316L3.28889 426.794L3.76654 428.227L5.1995 427.749L6.15481 427.272L8.06543 427.749L9.97604 425.839H11.409L12.3643 424.883H13.7973L15.7079 422.973L16.6632 422.017L17.6185 422.495L16.6632 423.928L18.5738 422.973V424.406L19.5291 425.361L20.0068 424.406L19.5291 422.973L21.4397 422.017L23.828 421.062L26.2163 420.584L27.6492 418.673L28.6045 417.24L31.4705 416.285L32.9034 414.852L34.814 414.374L35.2917 412.463L37.2023 410.553L39.5906 409.597L40.5459 407.687L42.9342 407.209L43.4118 404.82L45.8001 403.387L46.2777 402.432L44.3671 400.999L42.9342 401.477L43.8895 399.088L45.3224 397.177H46.7554L48.1884 394.789L47.233 393.356L49.1437 392.401L50.5766 390.012L51.5319 388.101H52.4872L53.9202 386.668H55.8308L58.2191 388.579L55.8308 389.057L54.8755 388.101L52.9649 390.49H52.0096L52.4872 392.401L51.0543 394.789V397.177L52.0096 397.655L53.4426 396.7L50.5766 399.088V400.521L52.9649 400.044L54.3979 399.088L55.8308 397.177L59.1744 394.311L61.5627 394.789L62.518 391.923L61.085 390.012L62.518 387.146L62.9956 388.579L65.3839 388.101L67.7722 388.579L70.1604 390.012L67.7722 391.445H71.5934L73.0264 389.534V391.445L75.8923 392.401L78.2806 391.923L81.1465 391.445H83.5347L84.9677 391.923L87.356 392.878L89.2666 390.967L90.6996 390.49V392.401L89.7442 393.356L94.0431 394.789L97.8644 396.7L100.253 398.133L101.686 398.61L103.596 397.655L101.208 395.267L103.119 394.311L104.552 396.7L105.984 397.177L106.94 397.655L103.119 391.445L107.895 396.222L108.85 398.133C108.85 398.133 108.341 398.133 107.895 398.133C107.545 398.133 106.462 398.133 106.462 398.133L103.596 398.61L103.119 400.999L105.029 402.91L107.417 405.298L110.283 408.164L112.672 409.597L110.761 405.298L108.373 402.432L110.761 404.343L112.672 401.477L110.761 398.61L113.149 399.566L114.582 401.954L116.015 403.387L113.627 403.865L112.194 405.298L114.105 408.164L115.06 409.597L116.015 407.687L117.926 405.298L118.403 408.164L117.448 411.508L119.836 414.852L121.747 416.763L122.702 414.852L124.613 415.33L123.18 412.941L119.359 409.12V407.209L121.747 409.597L124.135 411.508L126.524 413.896V410.553L128.912 413.896L130.345 410.075L128.912 407.209L128.434 405.298H126.524L122.225 403.865H120.314L118.403 400.999L112.194 395.267L110.283 393.356L107.895 392.401L105.507 390.49L103.596 388.101L100.73 390.012V392.878L98.342 394.789L97.3867 392.878L92.6102 390.49L91.1772 389.534V387.146L88.7889 388.101L88.3113 389.057H86.4007H84.9677ZM-78.8676 410.553L-79.8229 409.12L-81.2559 408.642V409.597L-80.3006 410.075L-78.8676 410.553ZM-63.5827 424.406V425.361H-62.6274L-63.5827 424.406ZM-66.4486 422.017L-67.4039 422.972L-68.3592 423.928L-65.9709 423.45L-66.4486 422.017ZM-63.105 426.794L-61.672 428.705L-61.1944 429.66L-62.1497 429.182L-63.5827 427.272L-63.105 426.794ZM-58.8061 426.316H-59.7614V427.272L-58.3285 426.794L-58.8061 426.316ZM-49.7307 431.093L-50.686 430.138H-51.1637L-50.686 431.571L-49.7307 431.093ZM-42.5659 433.004H-44.4765L-44.9542 431.571L-46.3871 432.526L-47.3424 433.482H-44.4765L-42.5659 433.004ZM-31.5799 434.915L-33.0128 434.437L-34.4458 433.959L-33.9681 432.526H-35.8787L-37.3117 433.482L-40.6553 433.004L-39.2223 433.959H-36.3564L-33.4905 434.915H-31.5799ZM-21.5491 433.959L-22.0268 434.915H-20.5938L-21.5491 433.959ZM-17.2502 433.482H-18.2055H-18.6832L-17.7279 434.437L-17.2502 433.482ZM-10.0854 431.093L-11.5184 431.571V432.526H-12.9513L-13.9067 433.959L-15.3396 434.915L-12.4737 433.959L-11.5184 433.004L-9.13011 432.526L-10.0854 431.093ZM-4.35357 429.182H-6.26419V430.616L-6.74184 432.049L-8.65246 432.526L-7.69716 433.482L-5.30889 433.004L-4.35357 431.571L-2.44296 431.093L-3.39827 430.138L-4.35357 429.182ZM-0.0546869 428.227L-1.01 429.182L-1.9653 428.705L-1.48765 430.138L-0.0546869 429.66L1.85593 430.616L2.81124 429.66L0.422965 429.182L-0.0546869 428.227ZM49.1437 403.865L48.666 405.776H51.0543L51.5319 406.731L49.1437 407.209L48.1884 408.164H49.6213L49.1437 410.553H50.099L49.1437 411.986L46.7554 411.03L48.666 412.463H47.233V413.419L45.8001 414.852H44.8448L43.4118 416.285L43.8895 417.718H41.5012L43.4118 415.329L41.9789 414.852L41.5012 412.941L41.0235 411.508L42.9342 410.553L44.3671 411.508L43.4118 409.12H45.3224L45.8001 407.686L47.7107 406.253L49.1437 403.865Z" stroke="#156EF6" stroke-opacity="0.22" stroke-linecap="round" stroke-linejoin="round"/>
<path fill-rule="evenodd" clip-rule="evenodd" d="M331.44 257.215L331.918 258.171L332.873 258.648V299.729L335.739 318.837H337.65L338.605 319.792H339.083V316.926L339.561 314.06L341.471 315.493L340.994 317.404L341.949 318.359L343.859 320.27L345.292 319.792L344.815 318.837H345.77L347.203 316.926L346.725 315.971V314.06L345.292 313.582L343.859 312.149L344.337 309.761L373.952 306.417L373.474 304.984L372.041 303.551L372.519 298.774L370.608 296.386V293.997L371.563 293.042V290.653L372.996 289.22L371.563 288.743V286.832L370.13 284.921L368.22 280.622L359.622 253.871L331.44 257.215Z" stroke="#156EF6" stroke-opacity="0.22" stroke-linecap="round" stroke-linejoin="round"/>
</g>
<rect x="209" y="137" width="110" height="31" rx="9" transform="rotate(180 209 137)" fill="white"/>
<rect x="209" y="137" width="110" height="31" rx="9" transform="rotate(180 209 137)" stroke="#156EF6" stroke-width="2"/>
<path d="M127.27 126V118.55H130.41C130.877 118.55 131.28 118.633 131.62 118.8C131.96 118.96 132.22 119.193 132.4 119.5C132.58 119.8 132.67 120.157 132.67 120.57C132.67 120.93 132.577 121.26 132.39 121.56C132.21 121.853 131.927 122.087 131.54 122.26V121.76C131.88 121.893 132.157 122.063 132.37 122.27C132.583 122.47 132.737 122.697 132.83 122.95C132.93 123.203 132.98 123.47 132.98 123.75C132.98 124.45 132.75 125 132.29 125.4C131.837 125.8 131.213 126 130.42 126H127.27ZM128.45 124.95H130.51C130.903 124.95 131.217 124.843 131.45 124.63C131.683 124.41 131.8 124.12 131.8 123.76C131.8 123.393 131.683 123.103 131.45 122.89C131.217 122.67 130.903 122.56 130.51 122.56H128.45V124.95ZM128.45 121.52H130.44C130.76 121.52 131.017 121.43 131.21 121.25C131.403 121.063 131.5 120.82 131.5 120.52C131.5 120.22 131.403 119.987 131.21 119.82C131.017 119.653 130.76 119.57 130.44 119.57H128.45V121.52ZM135.814 126.12C135.407 126.12 135.05 126.03 134.744 125.85C134.437 125.663 134.197 125.407 134.024 125.08C133.857 124.747 133.774 124.363 133.774 123.93V120.59H134.904V123.83C134.904 124.077 134.954 124.293 135.054 124.48C135.154 124.667 135.294 124.813 135.474 124.92C135.654 125.02 135.86 125.07 136.094 125.07C136.334 125.07 136.544 125.017 136.724 124.91C136.904 124.803 137.044 124.653 137.144 124.46C137.25 124.267 137.304 124.04 137.304 123.78V120.59H138.424V126H137.354V124.94L137.474 125.08C137.347 125.413 137.137 125.67 136.844 125.85C136.55 126.03 136.207 126.12 135.814 126.12ZM141.543 126.12C140.99 126.12 140.503 125.983 140.083 125.71C139.67 125.437 139.38 125.07 139.213 124.61L140.083 124.2C140.23 124.507 140.43 124.75 140.683 124.93C140.943 125.11 141.23 125.2 141.543 125.2C141.81 125.2 142.027 125.14 142.193 125.02C142.36 124.9 142.443 124.737 142.443 124.53C142.443 124.397 142.407 124.29 142.333 124.21C142.26 124.123 142.167 124.053 142.053 124C141.947 123.947 141.837 123.907 141.723 123.88L140.873 123.64C140.407 123.507 140.057 123.307 139.823 123.04C139.597 122.767 139.483 122.45 139.483 122.09C139.483 121.763 139.567 121.48 139.733 121.24C139.9 120.993 140.13 120.803 140.423 120.67C140.717 120.537 141.047 120.47 141.413 120.47C141.907 120.47 142.347 120.593 142.733 120.84C143.12 121.08 143.393 121.417 143.553 121.85L142.683 122.26C142.577 122 142.407 121.793 142.173 121.64C141.947 121.487 141.69 121.41 141.403 121.41C141.157 121.41 140.96 121.47 140.813 121.59C140.667 121.703 140.593 121.853 140.593 122.04C140.593 122.167 140.627 122.273 140.693 122.36C140.76 122.44 140.847 122.507 140.953 122.56C141.06 122.607 141.17 122.647 141.283 122.68L142.163 122.94C142.61 123.067 142.953 123.267 143.193 123.54C143.433 123.807 143.553 124.127 143.553 124.5C143.553 124.82 143.467 125.103 143.293 125.35C143.127 125.59 142.893 125.78 142.593 125.92C142.293 126.053 141.943 126.12 141.543 126.12ZM144.46 126V120.59H145.59V126H144.46ZM144.46 119.85V118.55H145.59V119.85H144.46ZM146.712 126V120.59H147.792V121.65L147.662 121.51C147.795 121.17 148.008 120.913 148.302 120.74C148.595 120.56 148.935 120.47 149.322 120.47C149.722 120.47 150.075 120.557 150.382 120.73C150.688 120.903 150.928 121.143 151.102 121.45C151.275 121.757 151.362 122.11 151.362 122.51V126H150.242V122.81C150.242 122.537 150.192 122.307 150.092 122.12C149.992 121.927 149.848 121.78 149.662 121.68C149.482 121.573 149.275 121.52 149.042 121.52C148.808 121.52 148.598 121.573 148.412 121.68C148.232 121.78 148.092 121.927 147.992 122.12C147.892 122.313 147.842 122.543 147.842 122.81V126H146.712ZM154.911 126.12C154.371 126.12 153.891 125.997 153.471 125.75C153.058 125.497 152.734 125.157 152.501 124.73C152.268 124.297 152.151 123.813 152.151 123.28C152.151 122.733 152.268 122.25 152.501 121.83C152.741 121.41 153.061 121.08 153.461 120.84C153.861 120.593 154.314 120.47 154.821 120.47C155.228 120.47 155.591 120.54 155.911 120.68C156.231 120.82 156.501 121.013 156.721 121.26C156.941 121.5 157.108 121.777 157.221 122.09C157.341 122.403 157.401 122.737 157.401 123.09C157.401 123.177 157.398 123.267 157.391 123.36C157.384 123.453 157.371 123.54 157.351 123.62H153.041V122.72H156.711L156.171 123.13C156.238 122.803 156.214 122.513 156.101 122.26C155.994 122 155.828 121.797 155.601 121.65C155.381 121.497 155.121 121.42 154.821 121.42C154.521 121.42 154.254 121.497 154.021 121.65C153.788 121.797 153.608 122.01 153.481 122.29C153.354 122.563 153.304 122.897 153.331 123.29C153.298 123.657 153.348 123.977 153.481 124.25C153.621 124.523 153.814 124.737 154.061 124.89C154.314 125.043 154.601 125.12 154.921 125.12C155.248 125.12 155.524 125.047 155.751 124.9C155.984 124.753 156.168 124.563 156.301 124.33L157.221 124.78C157.114 125.033 156.948 125.263 156.721 125.47C156.501 125.67 156.234 125.83 155.921 125.95C155.614 126.063 155.278 126.12 154.911 126.12ZM160.304 126.12C159.75 126.12 159.264 125.983 158.844 125.71C158.43 125.437 158.14 125.07 157.974 124.61L158.844 124.2C158.99 124.507 159.19 124.75 159.444 124.93C159.704 125.11 159.99 125.2 160.304 125.2C160.57 125.2 160.787 125.14 160.954 125.02C161.12 124.9 161.204 124.737 161.204 124.53C161.204 124.397 161.167 124.29 161.094 124.21C161.02 124.123 160.927 124.053 160.814 124C160.707 123.947 160.597 123.907 160.484 123.88L159.634 123.64C159.167 123.507 158.817 123.307 158.584 123.04C158.357 122.767 158.244 122.45 158.244 122.09C158.244 121.763 158.327 121.48 158.494 121.24C158.66 120.993 158.89 120.803 159.184 120.67C159.477 120.537 159.807 120.47 160.174 120.47C160.667 120.47 161.107 120.593 161.494 120.84C161.88 121.08 162.154 121.417 162.314 121.85L161.444 122.26C161.337 122 161.167 121.793 160.934 121.64C160.707 121.487 160.45 121.41 160.164 121.41C159.917 121.41 159.72 121.47 159.574 121.59C159.427 121.703 159.354 121.853 159.354 122.04C159.354 122.167 159.387 122.273 159.454 122.36C159.52 122.44 159.607 122.507 159.714 122.56C159.82 122.607 159.93 122.647 160.044 122.68L160.924 122.94C161.37 123.067 161.714 123.267 161.954 123.54C162.194 123.807 162.314 124.127 162.314 124.5C162.314 124.82 162.227 125.103 162.054 125.35C161.887 125.59 161.654 125.78 161.354 125.92C161.054 126.053 160.704 126.12 160.304 126.12ZM165.221 126.12C164.668 126.12 164.181 125.983 163.761 125.71C163.348 125.437 163.058 125.07 162.891 124.61L163.761 124.2C163.908 124.507 164.108 124.75 164.361 124.93C164.621 125.11 164.908 125.2 165.221 125.2C165.488 125.2 165.704 125.14 165.871 125.02C166.038 124.9 166.121 124.737 166.121 124.53C166.121 124.397 166.084 124.29 166.011 124.21C165.938 124.123 165.844 124.053 165.731 124C165.624 123.947 165.514 123.907 165.401 123.88L164.551 123.64C164.084 123.507 163.734 123.307 163.501 123.04C163.274 122.767 163.161 122.45 163.161 122.09C163.161 121.763 163.244 121.48 163.411 121.24C163.578 120.993 163.808 120.803 164.101 120.67C164.394 120.537 164.724 120.47 165.091 120.47C165.584 120.47 166.024 120.593 166.411 120.84C166.798 121.08 167.071 121.417 167.231 121.85L166.361 122.26C166.254 122 166.084 121.793 165.851 121.64C165.624 121.487 165.368 121.41 165.081 121.41C164.834 121.41 164.638 121.47 164.491 121.59C164.344 121.703 164.271 121.853 164.271 122.04C164.271 122.167 164.304 122.273 164.371 122.36C164.438 122.44 164.524 122.507 164.631 122.56C164.738 122.607 164.848 122.647 164.961 122.68L165.841 122.94C166.288 123.067 166.631 123.267 166.871 123.54C167.111 123.807 167.231 124.127 167.231 124.5C167.231 124.82 167.144 125.103 166.971 125.35C166.804 125.59 166.571 125.78 166.271 125.92C165.971 126.053 165.621 126.12 165.221 126.12ZM170.276 126L170.776 124.26H169.576V123.26H171.056L171.626 121.28H170.426V120.28H171.916L172.416 118.55H173.566L173.066 120.28H174.866L175.356 118.55H176.506L176.016 120.28H177.216V121.28H175.726L175.156 123.26H176.356V124.26H174.866L174.376 126H173.226L173.716 124.26H171.926L171.426 126H170.276ZM172.206 123.26H174.006L174.576 121.28H172.776L172.206 123.26ZM179.317 126V119.55H177.887V118.55H180.487V126H179.317Z" fill="#1D2939"/>
<rect x="165" y="225" width="110" height="31" rx="9" transform="rotate(180 165 225)" fill="white"/>
<rect x="165" y="225" width="110" height="31" rx="9" transform="rotate(180 165 225)" stroke="#156EF6" stroke-width="2"/>
<path d="M81.77 214V206.55H84.91C85.3767 206.55 85.78 206.633 86.12 206.8C86.46 206.96 86.72 207.193 86.9 207.5C87.08 207.8 87.17 208.157 87.17 208.57C87.17 208.93 87.0767 209.26 86.89 209.56C86.71 209.853 86.4267 210.087 86.04 210.26V209.76C86.38 209.893 86.6567 210.063 86.87 210.27C87.0833 210.47 87.2367 210.697 87.33 210.95C87.43 211.203 87.48 211.47 87.48 211.75C87.48 212.45 87.25 213 86.79 213.4C86.3367 213.8 85.7133 214 84.92 214H81.77ZM82.95 212.95H85.01C85.4033 212.95 85.7167 212.843 85.95 212.63C86.1833 212.41 86.3 212.12 86.3 211.76C86.3 211.393 86.1833 211.103 85.95 210.89C85.7167 210.67 85.4033 210.56 85.01 210.56H82.95V212.95ZM82.95 209.52H84.94C85.26 209.52 85.5167 209.43 85.71 209.25C85.9033 209.063 86 208.82 86 208.52C86 208.22 85.9033 207.987 85.71 207.82C85.5167 207.653 85.26 207.57 84.94 207.57H82.95V209.52ZM90.3138 214.12C89.9072 214.12 89.5505 214.03 89.2438 213.85C88.9372 213.663 88.6972 213.407 88.5238 213.08C88.3572 212.747 88.2738 212.363 88.2738 211.93V208.59H89.4038V211.83C89.4038 212.077 89.4538 212.293 89.5538 212.48C89.6538 212.667 89.7938 212.813 89.9738 212.92C90.1538 213.02 90.3605 213.07 90.5938 213.07C90.8338 213.07 91.0438 213.017 91.2238 212.91C91.4038 212.803 91.5438 212.653 91.6438 212.46C91.7505 212.267 91.8038 212.04 91.8038 211.78V208.59H92.9238V214H91.8538V212.94L91.9738 213.08C91.8472 213.413 91.6372 213.67 91.3438 213.85C91.0505 214.03 90.7072 214.12 90.3138 214.12ZM96.0432 214.12C95.4899 214.12 95.0032 213.983 94.5832 213.71C94.1699 213.437 93.8799 213.07 93.7132 212.61L94.5832 212.2C94.7299 212.507 94.9299 212.75 95.1832 212.93C95.4432 213.11 95.7299 213.2 96.0432 213.2C96.3099 213.2 96.5265 213.14 96.6932 213.02C96.8599 212.9 96.9432 212.737 96.9432 212.53C96.9432 212.397 96.9065 212.29 96.8332 212.21C96.7599 212.123 96.6665 212.053 96.5532 212C96.4465 211.947 96.3365 211.907 96.2232 211.88L95.3732 211.64C94.9065 211.507 94.5565 211.307 94.3232 211.04C94.0965 210.767 93.9832 210.45 93.9832 210.09C93.9832 209.763 94.0665 209.48 94.2332 209.24C94.3999 208.993 94.6299 208.803 94.9232 208.67C95.2165 208.537 95.5465 208.47 95.9132 208.47C96.4065 208.47 96.8465 208.593 97.2332 208.84C97.6199 209.08 97.8932 209.417 98.0532 209.85L97.1832 210.26C97.0765 210 96.9065 209.793 96.6732 209.64C96.4465 209.487 96.1899 209.41 95.9032 209.41C95.6565 209.41 95.4599 209.47 95.3132 209.59C95.1665 209.703 95.0932 209.853 95.0932 210.04C95.0932 210.167 95.1265 210.273 95.1932 210.36C95.2599 210.44 95.3465 210.507 95.4532 210.56C95.5599 210.607 95.6699 210.647 95.7832 210.68L96.6632 210.94C97.1099 211.067 97.4532 211.267 97.6932 211.54C97.9332 211.807 98.0532 212.127 98.0532 212.5C98.0532 212.82 97.9665 213.103 97.7932 213.35C97.6265 213.59 97.3932 213.78 97.0932 213.92C96.7932 214.053 96.4432 214.12 96.0432 214.12ZM98.9604 214V208.59H100.09V214H98.9604ZM98.9604 207.85V206.55H100.09V207.85H98.9604ZM101.212 214V208.59H102.292V209.65L102.162 209.51C102.295 209.17 102.508 208.913 102.802 208.74C103.095 208.56 103.435 208.47 103.822 208.47C104.222 208.47 104.575 208.557 104.882 208.73C105.188 208.903 105.428 209.143 105.602 209.45C105.775 209.757 105.862 210.11 105.862 210.51V214H104.742V210.81C104.742 210.537 104.692 210.307 104.592 210.12C104.492 209.927 104.348 209.78 104.162 209.68C103.982 209.573 103.775 209.52 103.542 209.52C103.308 209.52 103.098 209.573 102.912 209.68C102.732 209.78 102.592 209.927 102.492 210.12C102.392 210.313 102.342 210.543 102.342 210.81V214H101.212ZM109.411 214.12C108.871 214.12 108.391 213.997 107.971 213.75C107.558 213.497 107.234 213.157 107.001 212.73C106.768 212.297 106.651 211.813 106.651 211.28C106.651 210.733 106.768 210.25 107.001 209.83C107.241 209.41 107.561 209.08 107.961 208.84C108.361 208.593 108.814 208.47 109.321 208.47C109.728 208.47 110.091 208.54 110.411 208.68C110.731 208.82 111.001 209.013 111.221 209.26C111.441 209.5 111.608 209.777 111.721 210.09C111.841 210.403 111.901 210.737 111.901 211.09C111.901 211.177 111.898 211.267 111.891 211.36C111.884 211.453 111.871 211.54 111.851 211.62H107.541V210.72H111.211L110.671 211.13C110.738 210.803 110.714 210.513 110.601 210.26C110.494 210 110.328 209.797 110.101 209.65C109.881 209.497 109.621 209.42 109.321 209.42C109.021 209.42 108.754 209.497 108.521 209.65C108.288 209.797 108.108 210.01 107.981 210.29C107.854 210.563 107.804 210.897 107.831 211.29C107.798 211.657 107.848 211.977 107.981 212.25C108.121 212.523 108.314 212.737 108.561 212.89C108.814 213.043 109.101 213.12 109.421 213.12C109.748 213.12 110.024 213.047 110.251 212.9C110.484 212.753 110.668 212.563 110.801 212.33L111.721 212.78C111.614 213.033 111.448 213.263 111.221 213.47C111.001 213.67 110.734 213.83 110.421 213.95C110.114 214.063 109.778 214.12 109.411 214.12ZM114.804 214.12C114.25 214.12 113.764 213.983 113.344 213.71C112.93 213.437 112.64 213.07 112.474 212.61L113.344 212.2C113.49 212.507 113.69 212.75 113.944 212.93C114.204 213.11 114.49 213.2 114.804 213.2C115.07 213.2 115.287 213.14 115.454 213.02C115.62 212.9 115.704 212.737 115.704 212.53C115.704 212.397 115.667 212.29 115.594 212.21C115.52 212.123 115.427 212.053 115.314 212C115.207 211.947 115.097 211.907 114.984 211.88L114.134 211.64C113.667 211.507 113.317 211.307 113.084 211.04C112.857 210.767 112.744 210.45 112.744 210.09C112.744 209.763 112.827 209.48 112.994 209.24C113.16 208.993 113.39 208.803 113.684 208.67C113.977 208.537 114.307 208.47 114.674 208.47C115.167 208.47 115.607 208.593 115.994 208.84C116.38 209.08 116.654 209.417 116.814 209.85L115.944 210.26C115.837 210 115.667 209.793 115.434 209.64C115.207 209.487 114.95 209.41 114.664 209.41C114.417 209.41 114.22 209.47 114.074 209.59C113.927 209.703 113.854 209.853 113.854 210.04C113.854 210.167 113.887 210.273 113.954 210.36C114.02 210.44 114.107 210.507 114.214 210.56C114.32 210.607 114.43 210.647 114.544 210.68L115.424 210.94C115.87 211.067 116.214 211.267 116.454 211.54C116.694 211.807 116.814 212.127 116.814 212.5C116.814 212.82 116.727 213.103 116.554 213.35C116.387 213.59 116.154 213.78 115.854 213.92C115.554 214.053 115.204 214.12 114.804 214.12ZM119.721 214.12C119.168 214.12 118.681 213.983 118.261 213.71C117.848 213.437 117.558 213.07 117.391 212.61L118.261 212.2C118.408 212.507 118.608 212.75 118.861 212.93C119.121 213.11 119.408 213.2 119.721 213.2C119.988 213.2 120.204 213.14 120.371 213.02C120.538 212.9 120.621 212.737 120.621 212.53C120.621 212.397 120.584 212.29 120.511 212.21C120.438 212.123 120.344 212.053 120.231 212C120.124 211.947 120.014 211.907 119.901 211.88L119.051 211.64C118.584 211.507 118.234 211.307 118.001 211.04C117.774 210.767 117.661 210.45 117.661 210.09C117.661 209.763 117.744 209.48 117.911 209.24C118.078 208.993 118.308 208.803 118.601 208.67C118.894 208.537 119.224 208.47 119.591 208.47C120.084 208.47 120.524 208.593 120.911 208.84C121.298 209.08 121.571 209.417 121.731 209.85L120.861 210.26C120.754 210 120.584 209.793 120.351 209.64C120.124 209.487 119.868 209.41 119.581 209.41C119.334 209.41 119.138 209.47 118.991 209.59C118.844 209.703 118.771 209.853 118.771 210.04C118.771 210.167 118.804 210.273 118.871 210.36C118.938 210.44 119.024 210.507 119.131 210.56C119.238 210.607 119.348 210.647 119.461 210.68L120.341 210.94C120.788 211.067 121.131 211.267 121.371 211.54C121.611 211.807 121.731 212.127 121.731 212.5C121.731 212.82 121.644 213.103 121.471 213.35C121.304 213.59 121.071 213.78 120.771 213.92C120.471 214.053 120.121 214.12 119.721 214.12ZM124.776 214L125.276 212.26H124.076V211.26H125.556L126.126 209.28H124.926V208.28H126.416L126.916 206.55H128.066L127.566 208.28H129.366L129.856 206.55H131.006L130.516 208.28H131.716V209.28H130.226L129.656 211.26H130.856V212.26H129.366L128.876 214H127.726L128.216 212.26H126.426L125.926 214H124.776ZM126.706 211.26H128.506L129.076 209.28H127.276L126.706 211.26ZM134.987 214.12C134.587 214.12 134.21 214.047 133.857 213.9C133.51 213.753 133.21 213.547 132.957 213.28C132.71 213.013 132.533 212.7 132.427 212.34L133.427 211.96C133.56 212.313 133.763 212.587 134.037 212.78C134.31 212.973 134.627 213.07 134.987 213.07C135.28 213.07 135.533 213.013 135.747 212.9C135.967 212.787 136.137 212.627 136.257 212.42C136.383 212.213 136.447 211.963 136.447 211.67C136.447 211.383 136.383 211.137 136.257 210.93C136.137 210.723 135.967 210.567 135.747 210.46C135.533 210.353 135.28 210.3 134.987 210.3C134.867 210.3 134.743 210.31 134.617 210.33C134.497 210.35 134.39 210.377 134.297 210.41L134.037 209.86L135.997 207.55H132.827V206.55H137.317V207.5L135.397 209.8L135.367 209.42C135.813 209.427 136.207 209.527 136.547 209.72C136.887 209.907 137.15 210.167 137.337 210.5C137.53 210.827 137.627 211.207 137.627 211.64C137.627 212.107 137.513 212.53 137.287 212.91C137.06 213.283 136.747 213.58 136.347 213.8C135.953 214.013 135.5 214.12 134.987 214.12Z" fill="#1D2939"/>
<rect x="322" y="302" width="110" height="31" rx="9" transform="rotate(180 322 302)" fill="white"/>
<rect x="322" y="302" width="110" height="31" rx="9" transform="rotate(180 322 302)" stroke="#156EF6" stroke-width="2"/>
<path d="M238.77 291V283.55H241.91C242.377 283.55 242.78 283.633 243.12 283.8C243.46 283.96 243.72 284.193 243.9 284.5C244.08 284.8 244.17 285.157 244.17 285.57C244.17 285.93 244.077 286.26 243.89 286.56C243.71 286.853 243.427 287.087 243.04 287.26V286.76C243.38 286.893 243.657 287.063 243.87 287.27C244.083 287.47 244.237 287.697 244.33 287.95C244.43 288.203 244.48 288.47 244.48 288.75C244.48 289.45 244.25 290 243.79 290.4C243.337 290.8 242.713 291 241.92 291H238.77ZM239.95 289.95H242.01C242.403 289.95 242.717 289.843 242.95 289.63C243.183 289.41 243.3 289.12 243.3 288.76C243.3 288.393 243.183 288.103 242.95 287.89C242.717 287.67 242.403 287.56 242.01 287.56H239.95V289.95ZM239.95 286.52H241.94C242.26 286.52 242.517 286.43 242.71 286.25C242.903 286.063 243 285.82 243 285.52C243 285.22 242.903 284.987 242.71 284.82C242.517 284.653 242.26 284.57 241.94 284.57H239.95V286.52ZM247.314 291.12C246.907 291.12 246.55 291.03 246.244 290.85C245.937 290.663 245.697 290.407 245.524 290.08C245.357 289.747 245.274 289.363 245.274 288.93V285.59H246.404V288.83C246.404 289.077 246.454 289.293 246.554 289.48C246.654 289.667 246.794 289.813 246.974 289.92C247.154 290.02 247.36 290.07 247.594 290.07C247.834 290.07 248.044 290.017 248.224 289.91C248.404 289.803 248.544 289.653 248.644 289.46C248.75 289.267 248.804 289.04 248.804 288.78V285.59H249.924V291H248.854V289.94L248.974 290.08C248.847 290.413 248.637 290.67 248.344 290.85C248.05 291.03 247.707 291.12 247.314 291.12ZM253.043 291.12C252.49 291.12 252.003 290.983 251.583 290.71C251.17 290.437 250.88 290.07 250.713 289.61L251.583 289.2C251.73 289.507 251.93 289.75 252.183 289.93C252.443 290.11 252.73 290.2 253.043 290.2C253.31 290.2 253.527 290.14 253.693 290.02C253.86 289.9 253.943 289.737 253.943 289.53C253.943 289.397 253.907 289.29 253.833 289.21C253.76 289.123 253.667 289.053 253.553 289C253.447 288.947 253.337 288.907 253.223 288.88L252.373 288.64C251.907 288.507 251.557 288.307 251.323 288.04C251.097 287.767 250.983 287.45 250.983 287.09C250.983 286.763 251.067 286.48 251.233 286.24C251.4 285.993 251.63 285.803 251.923 285.67C252.217 285.537 252.547 285.47 252.913 285.47C253.407 285.47 253.847 285.593 254.233 285.84C254.62 286.08 254.893 286.417 255.053 286.85L254.183 287.26C254.077 287 253.907 286.793 253.673 286.64C253.447 286.487 253.19 286.41 252.903 286.41C252.657 286.41 252.46 286.47 252.313 286.59C252.167 286.703 252.093 286.853 252.093 287.04C252.093 287.167 252.127 287.273 252.193 287.36C252.26 287.44 252.347 287.507 252.453 287.56C252.56 287.607 252.67 287.647 252.783 287.68L253.663 287.94C254.11 288.067 254.453 288.267 254.693 288.54C254.933 288.807 255.053 289.127 255.053 289.5C255.053 289.82 254.967 290.103 254.793 290.35C254.627 290.59 254.393 290.78 254.093 290.92C253.793 291.053 253.443 291.12 253.043 291.12ZM255.96 291V285.59H257.09V291H255.96ZM255.96 284.85V283.55H257.09V284.85H255.96ZM258.212 291V285.59H259.292V286.65L259.162 286.51C259.295 286.17 259.508 285.913 259.802 285.74C260.095 285.56 260.435 285.47 260.822 285.47C261.222 285.47 261.575 285.557 261.882 285.73C262.188 285.903 262.428 286.143 262.602 286.45C262.775 286.757 262.862 287.11 262.862 287.51V291H261.742V287.81C261.742 287.537 261.692 287.307 261.592 287.12C261.492 286.927 261.348 286.78 261.162 286.68C260.982 286.573 260.775 286.52 260.542 286.52C260.308 286.52 260.098 286.573 259.912 286.68C259.732 286.78 259.592 286.927 259.492 287.12C259.392 287.313 259.342 287.543 259.342 287.81V291H258.212ZM266.411 291.12C265.871 291.12 265.391 290.997 264.971 290.75C264.558 290.497 264.234 290.157 264.001 289.73C263.768 289.297 263.651 288.813 263.651 288.28C263.651 287.733 263.768 287.25 264.001 286.83C264.241 286.41 264.561 286.08 264.961 285.84C265.361 285.593 265.814 285.47 266.321 285.47C266.728 285.47 267.091 285.54 267.411 285.68C267.731 285.82 268.001 286.013 268.221 286.26C268.441 286.5 268.608 286.777 268.721 287.09C268.841 287.403 268.901 287.737 268.901 288.09C268.901 288.177 268.898 288.267 268.891 288.36C268.884 288.453 268.871 288.54 268.851 288.62H264.541V287.72H268.211L267.671 288.13C267.738 287.803 267.714 287.513 267.601 287.26C267.494 287 267.328 286.797 267.101 286.65C266.881 286.497 266.621 286.42 266.321 286.42C266.021 286.42 265.754 286.497 265.521 286.65C265.288 286.797 265.108 287.01 264.981 287.29C264.854 287.563 264.804 287.897 264.831 288.29C264.798 288.657 264.848 288.977 264.981 289.25C265.121 289.523 265.314 289.737 265.561 289.89C265.814 290.043 266.101 290.12 266.421 290.12C266.748 290.12 267.024 290.047 267.251 289.9C267.484 289.753 267.668 289.563 267.801 289.33L268.721 289.78C268.614 290.033 268.448 290.263 268.221 290.47C268.001 290.67 267.734 290.83 267.421 290.95C267.114 291.063 266.778 291.12 266.411 291.12ZM271.804 291.12C271.25 291.12 270.764 290.983 270.344 290.71C269.93 290.437 269.64 290.07 269.474 289.61L270.344 289.2C270.49 289.507 270.69 289.75 270.944 289.93C271.204 290.11 271.49 290.2 271.804 290.2C272.07 290.2 272.287 290.14 272.454 290.02C272.62 289.9 272.704 289.737 272.704 289.53C272.704 289.397 272.667 289.29 272.594 289.21C272.52 289.123 272.427 289.053 272.314 289C272.207 288.947 272.097 288.907 271.984 288.88L271.134 288.64C270.667 288.507 270.317 288.307 270.084 288.04C269.857 287.767 269.744 287.45 269.744 287.09C269.744 286.763 269.827 286.48 269.994 286.24C270.16 285.993 270.39 285.803 270.684 285.67C270.977 285.537 271.307 285.47 271.674 285.47C272.167 285.47 272.607 285.593 272.994 285.84C273.38 286.08 273.654 286.417 273.814 286.85L272.944 287.26C272.837 287 272.667 286.793 272.434 286.64C272.207 286.487 271.95 286.41 271.664 286.41C271.417 286.41 271.22 286.47 271.074 286.59C270.927 286.703 270.854 286.853 270.854 287.04C270.854 287.167 270.887 287.273 270.954 287.36C271.02 287.44 271.107 287.507 271.214 287.56C271.32 287.607 271.43 287.647 271.544 287.68L272.424 287.94C272.87 288.067 273.214 288.267 273.454 288.54C273.694 288.807 273.814 289.127 273.814 289.5C273.814 289.82 273.727 290.103 273.554 290.35C273.387 290.59 273.154 290.78 272.854 290.92C272.554 291.053 272.204 291.12 271.804 291.12ZM276.721 291.12C276.168 291.12 275.681 290.983 275.261 290.71C274.848 290.437 274.558 290.07 274.391 289.61L275.261 289.2C275.408 289.507 275.608 289.75 275.861 289.93C276.121 290.11 276.408 290.2 276.721 290.2C276.988 290.2 277.204 290.14 277.371 290.02C277.538 289.9 277.621 289.737 277.621 289.53C277.621 289.397 277.584 289.29 277.511 289.21C277.438 289.123 277.344 289.053 277.231 289C277.124 288.947 277.014 288.907 276.901 288.88L276.051 288.64C275.584 288.507 275.234 288.307 275.001 288.04C274.774 287.767 274.661 287.45 274.661 287.09C274.661 286.763 274.744 286.48 274.911 286.24C275.078 285.993 275.308 285.803 275.601 285.67C275.894 285.537 276.224 285.47 276.591 285.47C277.084 285.47 277.524 285.593 277.911 285.84C278.298 286.08 278.571 286.417 278.731 286.85L277.861 287.26C277.754 287 277.584 286.793 277.351 286.64C277.124 286.487 276.868 286.41 276.581 286.41C276.334 286.41 276.138 286.47 275.991 286.59C275.844 286.703 275.771 286.853 275.771 287.04C275.771 287.167 275.804 287.273 275.871 287.36C275.938 287.44 276.024 287.507 276.131 287.56C276.238 287.607 276.348 287.647 276.461 287.68L277.341 287.94C277.788 288.067 278.131 288.267 278.371 288.54C278.611 288.807 278.731 289.127 278.731 289.5C278.731 289.82 278.644 290.103 278.471 290.35C278.304 290.59 278.071 290.78 277.771 290.92C277.471 291.053 277.121 291.12 276.721 291.12ZM281.776 291L282.276 289.26H281.076V288.26H282.556L283.126 286.28H281.926V285.28H283.416L283.916 283.55H285.066L284.566 285.28H286.366L286.856 283.55H288.006L287.516 285.28H288.716V286.28H287.226L286.656 288.26H287.856V289.26H286.366L285.876 291H284.726L285.216 289.26H283.426L282.926 291H281.776ZM283.706 288.26H285.506L286.076 286.28H284.276L283.706 288.26ZM292.997 291V289.32H289.447V288.34L292.947 283.55H294.117V288.34H295.147V289.32H294.117V291H292.997ZM290.317 288.77L290.127 288.34H292.997V284.49L293.317 284.59L290.317 288.77Z" fill="#1D2939"/>
<rect x="368" y="178" width="110" height="31" rx="9" transform="rotate(180 368 178)" fill="white"/>
<rect x="368" y="178" width="110" height="31" rx="9" transform="rotate(180 368 178)" stroke="#156EF6" stroke-width="2"/>
<path d="M284.77 167V159.55H287.91C288.377 159.55 288.78 159.633 289.12 159.8C289.46 159.96 289.72 160.193 289.9 160.5C290.08 160.8 290.17 161.157 290.17 161.57C290.17 161.93 290.077 162.26 289.89 162.56C289.71 162.853 289.427 163.087 289.04 163.26V162.76C289.38 162.893 289.657 163.063 289.87 163.27C290.083 163.47 290.237 163.697 290.33 163.95C290.43 164.203 290.48 164.47 290.48 164.75C290.48 165.45 290.25 166 289.79 166.4C289.337 166.8 288.713 167 287.92 167H284.77ZM285.95 165.95H288.01C288.403 165.95 288.717 165.843 288.95 165.63C289.183 165.41 289.3 165.12 289.3 164.76C289.3 164.393 289.183 164.103 288.95 163.89C288.717 163.67 288.403 163.56 288.01 163.56H285.95V165.95ZM285.95 162.52H287.94C288.26 162.52 288.517 162.43 288.71 162.25C288.903 162.063 289 161.82 289 161.52C289 161.22 288.903 160.987 288.71 160.82C288.517 160.653 288.26 160.57 287.94 160.57H285.95V162.52ZM293.314 167.12C292.907 167.12 292.55 167.03 292.244 166.85C291.937 166.663 291.697 166.407 291.524 166.08C291.357 165.747 291.274 165.363 291.274 164.93V161.59H292.404V164.83C292.404 165.077 292.454 165.293 292.554 165.48C292.654 165.667 292.794 165.813 292.974 165.92C293.154 166.02 293.36 166.07 293.594 166.07C293.834 166.07 294.044 166.017 294.224 165.91C294.404 165.803 294.544 165.653 294.644 165.46C294.75 165.267 294.804 165.04 294.804 164.78V161.59H295.924V167H294.854V165.94L294.974 166.08C294.847 166.413 294.637 166.67 294.344 166.85C294.05 167.03 293.707 167.12 293.314 167.12ZM299.043 167.12C298.49 167.12 298.003 166.983 297.583 166.71C297.17 166.437 296.88 166.07 296.713 165.61L297.583 165.2C297.73 165.507 297.93 165.75 298.183 165.93C298.443 166.11 298.73 166.2 299.043 166.2C299.31 166.2 299.527 166.14 299.693 166.02C299.86 165.9 299.943 165.737 299.943 165.53C299.943 165.397 299.907 165.29 299.833 165.21C299.76 165.123 299.667 165.053 299.553 165C299.447 164.947 299.337 164.907 299.223 164.88L298.373 164.64C297.907 164.507 297.557 164.307 297.323 164.04C297.097 163.767 296.983 163.45 296.983 163.09C296.983 162.763 297.067 162.48 297.233 162.24C297.4 161.993 297.63 161.803 297.923 161.67C298.217 161.537 298.547 161.47 298.913 161.47C299.407 161.47 299.847 161.593 300.233 161.84C300.62 162.08 300.893 162.417 301.053 162.85L300.183 163.26C300.077 163 299.907 162.793 299.673 162.64C299.447 162.487 299.19 162.41 298.903 162.41C298.657 162.41 298.46 162.47 298.313 162.59C298.167 162.703 298.093 162.853 298.093 163.04C298.093 163.167 298.127 163.273 298.193 163.36C298.26 163.44 298.347 163.507 298.453 163.56C298.56 163.607 298.67 163.647 298.783 163.68L299.663 163.94C300.11 164.067 300.453 164.267 300.693 164.54C300.933 164.807 301.053 165.127 301.053 165.5C301.053 165.82 300.967 166.103 300.793 166.35C300.627 166.59 300.393 166.78 300.093 166.92C299.793 167.053 299.443 167.12 299.043 167.12ZM301.96 167V161.59H303.09V167H301.96ZM301.96 160.85V159.55H303.09V160.85H301.96ZM304.212 167V161.59H305.292V162.65L305.162 162.51C305.295 162.17 305.508 161.913 305.802 161.74C306.095 161.56 306.435 161.47 306.822 161.47C307.222 161.47 307.575 161.557 307.882 161.73C308.188 161.903 308.428 162.143 308.602 162.45C308.775 162.757 308.862 163.11 308.862 163.51V167H307.742V163.81C307.742 163.537 307.692 163.307 307.592 163.12C307.492 162.927 307.348 162.78 307.162 162.68C306.982 162.573 306.775 162.52 306.542 162.52C306.308 162.52 306.098 162.573 305.912 162.68C305.732 162.78 305.592 162.927 305.492 163.12C305.392 163.313 305.342 163.543 305.342 163.81V167H304.212ZM312.411 167.12C311.871 167.12 311.391 166.997 310.971 166.75C310.558 166.497 310.234 166.157 310.001 165.73C309.768 165.297 309.651 164.813 309.651 164.28C309.651 163.733 309.768 163.25 310.001 162.83C310.241 162.41 310.561 162.08 310.961 161.84C311.361 161.593 311.814 161.47 312.321 161.47C312.728 161.47 313.091 161.54 313.411 161.68C313.731 161.82 314.001 162.013 314.221 162.26C314.441 162.5 314.608 162.777 314.721 163.09C314.841 163.403 314.901 163.737 314.901 164.09C314.901 164.177 314.898 164.267 314.891 164.36C314.884 164.453 314.871 164.54 314.851 164.62H310.541V163.72H314.211L313.671 164.13C313.738 163.803 313.714 163.513 313.601 163.26C313.494 163 313.328 162.797 313.101 162.65C312.881 162.497 312.621 162.42 312.321 162.42C312.021 162.42 311.754 162.497 311.521 162.65C311.288 162.797 311.108 163.01 310.981 163.29C310.854 163.563 310.804 163.897 310.831 164.29C310.798 164.657 310.848 164.977 310.981 165.25C311.121 165.523 311.314 165.737 311.561 165.89C311.814 166.043 312.101 166.12 312.421 166.12C312.748 166.12 313.024 166.047 313.251 165.9C313.484 165.753 313.668 165.563 313.801 165.33L314.721 165.78C314.614 166.033 314.448 166.263 314.221 166.47C314.001 166.67 313.734 166.83 313.421 166.95C313.114 167.063 312.778 167.12 312.411 167.12ZM317.804 167.12C317.25 167.12 316.764 166.983 316.344 166.71C315.93 166.437 315.64 166.07 315.474 165.61L316.344 165.2C316.49 165.507 316.69 165.75 316.944 165.93C317.204 166.11 317.49 166.2 317.804 166.2C318.07 166.2 318.287 166.14 318.454 166.02C318.62 165.9 318.704 165.737 318.704 165.53C318.704 165.397 318.667 165.29 318.594 165.21C318.52 165.123 318.427 165.053 318.314 165C318.207 164.947 318.097 164.907 317.984 164.88L317.134 164.64C316.667 164.507 316.317 164.307 316.084 164.04C315.857 163.767 315.744 163.45 315.744 163.09C315.744 162.763 315.827 162.48 315.994 162.24C316.16 161.993 316.39 161.803 316.684 161.67C316.977 161.537 317.307 161.47 317.674 161.47C318.167 161.47 318.607 161.593 318.994 161.84C319.38 162.08 319.654 162.417 319.814 162.85L318.944 163.26C318.837 163 318.667 162.793 318.434 162.64C318.207 162.487 317.95 162.41 317.664 162.41C317.417 162.41 317.22 162.47 317.074 162.59C316.927 162.703 316.854 162.853 316.854 163.04C316.854 163.167 316.887 163.273 316.954 163.36C317.02 163.44 317.107 163.507 317.214 163.56C317.32 163.607 317.43 163.647 317.544 163.68L318.424 163.94C318.87 164.067 319.214 164.267 319.454 164.54C319.694 164.807 319.814 165.127 319.814 165.5C319.814 165.82 319.727 166.103 319.554 166.35C319.387 166.59 319.154 166.78 318.854 166.92C318.554 167.053 318.204 167.12 317.804 167.12ZM322.721 167.12C322.168 167.12 321.681 166.983 321.261 166.71C320.848 166.437 320.558 166.07 320.391 165.61L321.261 165.2C321.408 165.507 321.608 165.75 321.861 165.93C322.121 166.11 322.408 166.2 322.721 166.2C322.988 166.2 323.204 166.14 323.371 166.02C323.538 165.9 323.621 165.737 323.621 165.53C323.621 165.397 323.584 165.29 323.511 165.21C323.438 165.123 323.344 165.053 323.231 165C323.124 164.947 323.014 164.907 322.901 164.88L322.051 164.64C321.584 164.507 321.234 164.307 321.001 164.04C320.774 163.767 320.661 163.45 320.661 163.09C320.661 162.763 320.744 162.48 320.911 162.24C321.078 161.993 321.308 161.803 321.601 161.67C321.894 161.537 322.224 161.47 322.591 161.47C323.084 161.47 323.524 161.593 323.911 161.84C324.298 162.08 324.571 162.417 324.731 162.85L323.861 163.26C323.754 163 323.584 162.793 323.351 162.64C323.124 162.487 322.868 162.41 322.581 162.41C322.334 162.41 322.138 162.47 321.991 162.59C321.844 162.703 321.771 162.853 321.771 163.04C321.771 163.167 321.804 163.273 321.871 163.36C321.938 163.44 322.024 163.507 322.131 163.56C322.238 163.607 322.348 163.647 322.461 163.68L323.341 163.94C323.788 164.067 324.131 164.267 324.371 164.54C324.611 164.807 324.731 165.127 324.731 165.5C324.731 165.82 324.644 166.103 324.471 166.35C324.304 166.59 324.071 166.78 323.771 166.92C323.471 167.053 323.121 167.12 322.721 167.12ZM327.776 167L328.276 165.26H327.076V164.26H328.556L329.126 162.28H327.926V161.28H329.416L329.916 159.55H331.066L330.566 161.28H332.366L332.856 159.55H334.006L333.516 161.28H334.716V162.28H333.226L332.656 164.26H333.856V165.26H332.366L331.876 167H330.726L331.216 165.26H329.426L328.926 167H327.776ZM329.706 164.26H331.506L332.076 162.28H330.276L329.706 164.26ZM335.557 167V166.15L337.597 163.97C337.997 163.543 338.31 163.2 338.537 162.94C338.77 162.673 338.937 162.44 339.037 162.24C339.143 162.04 339.197 161.83 339.197 161.61C339.197 161.25 339.087 160.973 338.867 160.78C338.647 160.58 338.363 160.48 338.017 160.48C337.657 160.48 337.347 160.583 337.087 160.79C336.827 160.99 336.647 161.283 336.547 161.67L335.507 161.37C335.587 160.977 335.747 160.637 335.987 160.35C336.227 160.057 336.52 159.83 336.867 159.67C337.22 159.51 337.6 159.43 338.007 159.43C338.48 159.43 338.893 159.52 339.247 159.7C339.6 159.873 339.873 160.117 340.067 160.43C340.267 160.743 340.367 161.107 340.367 161.52C340.367 161.793 340.313 162.06 340.207 162.32C340.107 162.573 339.95 162.843 339.737 163.13C339.523 163.41 339.25 163.727 338.917 164.08L337.117 166H340.507V167H335.557Z" fill="#1D2939"/>
</g>
<rect x="0.5" y="0.5" width="420" height="420" rx="11.5" stroke="#D7E7FE"/>
<defs>
<radialGradient id="paint0_radial_21_7929" cx="0" cy="0" r="1" gradientUnits="userSpaceOnUse" gradientTransform="translate(210.138 203.155) rotate(90) scale(258.617 258.617)">
<stop offset="0.35" stop-color="#D9D9D9"/>
<stop offset="0.94579" stop-color="#D9D9D9" stop-opacity="0"/>
</radialGradient>
<clipPath id="clip0_21_7929">
<rect width="421" height="421" rx="12" fill="white"/>
</clipPath>
</defs>
</svg>
