<svg width="421" height="421" viewBox="0 0 421 421" fill="none" xmlns="http://www.w3.org/2000/svg">
<g clip-path="url(#clip0_21_8073)">
<rect width="421" height="421" rx="12" fill="#F1F7FF"/>
<path fill-rule="evenodd" clip-rule="evenodd" d="M185.485 183.293H200.973H214.632C215.803 183.293 216.926 183.759 217.754 184.587L220.364 187.196C221.192 188.024 221.657 189.147 221.657 190.318V198.781H230.12C231.291 198.781 232.414 199.247 233.242 200.074L235.852 202.684C236.68 203.512 237.145 204.635 237.145 205.806V219.465V234.953V246.026C237.145 248.464 235.168 250.441 232.73 250.441H221.657H206.169H190.681H177.022C175.851 250.441 174.728 249.976 173.9 249.148L171.29 246.538C170.462 245.71 169.997 244.587 169.997 243.417V229.757V214.269V198.781V187.708C169.997 185.27 171.974 183.293 174.412 183.293H185.485ZM189.9 234.953C187.462 234.953 185.485 232.977 185.485 230.538V219.465V208.392C185.485 205.954 187.462 203.977 189.9 203.977H206.169H216.461V214.269V230.538C216.461 232.977 214.484 234.953 212.046 234.953H200.973H189.9Z" fill="#156EF6" fill-opacity="0.25"/>
<path fill-rule="evenodd" clip-rule="evenodd" d="M190.115 187.744H205.789H219.449C220.562 187.744 221.464 188.646 221.464 189.759V201.403C221.464 202.516 220.562 203.418 219.449 203.418H205.789H192.13C191.017 203.418 190.115 204.321 190.115 205.434V219.093V232.752C190.115 233.865 191.017 234.767 192.13 234.767H205.789H219.449C220.562 234.767 221.464 233.865 221.464 232.752V219.093V206.047C221.464 204.934 222.366 204.032 223.479 204.032H235.123C236.236 204.032 237.139 204.934 237.139 206.047V219.093V234.767V248.426C237.139 249.54 236.236 250.442 235.123 250.442H221.464H205.789H190.115H176.456C175.343 250.442 174.44 249.54 174.44 248.426V234.767V219.093V203.418V189.759C174.44 188.646 175.343 187.744 176.456 187.744H190.115Z" fill="#156EF6"/>
<path fill-rule="evenodd" clip-rule="evenodd" d="M176.456 188.725C175.885 188.725 175.422 189.188 175.422 189.759V248.426C175.422 248.998 175.885 249.461 176.456 249.461H235.123C235.695 249.461 236.158 248.998 236.158 248.426V206.047C236.158 205.476 235.695 205.013 235.123 205.013H223.479C222.908 205.013 222.445 205.476 222.445 206.047V232.752C222.445 234.407 221.104 235.749 219.449 235.749H192.13C190.475 235.749 189.134 234.407 189.134 232.752V205.434C189.134 203.779 190.475 202.437 192.13 202.437H219.449C220.02 202.437 220.483 201.974 220.483 201.403V189.759C220.483 189.188 220.02 188.725 219.449 188.725H176.456ZM176.456 187.744C175.343 187.744 174.44 188.646 174.44 189.759V248.426C174.44 249.54 175.343 250.442 176.456 250.442H235.123C236.236 250.442 237.139 249.54 237.139 248.426V206.047C237.139 204.934 236.236 204.032 235.123 204.032H223.479C222.366 204.032 221.464 204.934 221.464 206.047V232.752C221.464 233.865 220.562 234.767 219.449 234.767H192.13C191.017 234.767 190.115 233.865 190.115 232.752V205.434C190.115 204.321 191.017 203.418 192.13 203.418H219.449C220.562 203.418 221.464 202.516 221.464 201.403V189.759C221.464 188.646 220.562 187.744 219.449 187.744H176.456Z" fill="#156EF6" fill-opacity="0.25"/>
<path d="M235.687 172.47H246.293C247.037 172.47 247.747 172.778 248.254 173.322L251.608 176.912C252.072 177.409 252.33 178.064 252.33 178.744V189.113C252.33 190.595 251.129 191.797 249.646 191.797H239.207C238.482 191.797 237.788 191.504 237.283 190.984L233.762 187.363C233.275 186.862 233.003 186.191 233.003 185.492V175.154C233.003 173.671 234.205 172.47 235.687 172.47Z" fill="#156EF6" fill-opacity="0.25"/>
<path d="M252.33 178.491C252.33 177.3 251.365 176.335 250.174 176.335H239.024C237.834 176.335 236.868 177.3 236.868 178.491V189.641C236.868 190.831 237.834 191.797 239.024 191.797H250.174C251.365 191.797 252.33 190.831 252.33 189.641V178.491Z" fill="#156EF6"/>
<path fill-rule="evenodd" clip-rule="evenodd" d="M239.024 177.197H250.174C250.888 177.197 251.468 177.777 251.468 178.491V189.641C251.468 190.355 250.888 190.934 250.174 190.934H239.024C238.31 190.934 237.731 190.355 237.731 189.641V178.491C237.731 177.777 238.31 177.197 239.024 177.197ZM250.174 176.335C251.365 176.335 252.33 177.3 252.33 178.491V189.641C252.33 190.831 251.365 191.797 250.174 191.797H239.024C237.834 191.797 236.868 190.831 236.868 189.641V178.491C236.868 177.3 237.834 176.335 239.024 176.335H250.174Z" fill="#156EF6" fill-opacity="0.25"/>
<path d="M205.5 306C254.929 306 295 265.929 295 216.5C295 167.071 254.929 127 205.5 127C156.071 127 116 167.071 116 216.5C116 265.929 156.071 306 205.5 306Z" stroke="#80C1FF" stroke-width="2"/>
<path d="M205.5 372C291.38 372 361 302.38 361 216.5C361 130.62 291.38 61 205.5 61C119.62 61 50 130.62 50 216.5C50 302.38 119.62 372 205.5 372Z" stroke="#B3DAFF" stroke-width="2"/>
<path d="M205.5 438C327.831 438 427 338.831 427 216.5C427 94.1689 327.831 -5 205.5 -5C83.1689 -5 -16 94.1689 -16 216.5C-16 338.831 83.1689 438 205.5 438Z" stroke="#DBEEFF" stroke-width="2"/>
<g filter="url(#filter0_d_21_8073)">
<rect x="86" y="72" width="48.0695" height="48.0695" rx="24.0348" fill="white"/>
<g clip-path="url(#clip1_21_8073)">
<path d="M109.084 84.9613C109.383 84.04 110.687 84.04 110.986 84.9613L112.954 91.0171C113.088 91.4291 113.472 91.7081 113.905 91.7081L120.273 91.7083C121.241 91.7083 121.644 92.9479 120.86 93.5173L115.709 97.2603C115.359 97.5149 115.212 97.9662 115.346 98.3782L117.313 104.434C117.613 105.355 116.558 106.122 115.775 105.552L110.623 101.81C110.272 101.555 109.798 101.555 109.447 101.81L104.296 105.552C103.512 106.122 102.458 105.355 102.757 104.434L104.724 98.3782C104.858 97.9662 104.712 97.5149 104.361 97.2603L99.2099 93.5173C98.4262 92.9479 98.829 91.7083 99.7977 91.7083L106.165 91.7081C106.598 91.7081 106.982 91.4291 107.116 91.0171L109.084 84.9613Z" fill="#BAD5FD"/>
</g>
</g>
<g filter="url(#filter1_d_21_8073)">
<rect x="97" y="207" width="38" height="38" rx="19" fill="white"/>
<g clip-path="url(#clip2_21_8073)">
<path d="M115.049 217.927C115.348 217.005 116.652 217.005 116.951 217.927L118.245 221.91C118.379 222.322 118.763 222.601 119.196 222.601L123.384 222.601C124.353 222.601 124.756 223.84 123.972 224.41L120.584 226.871C120.234 227.126 120.087 227.577 120.221 227.989L121.515 231.972C121.814 232.894 120.76 233.66 119.976 233.09L116.588 230.629C116.237 230.374 115.763 230.374 115.412 230.629L112.024 233.09C111.24 233.66 110.186 232.894 110.485 231.972L111.779 227.989C111.913 227.577 111.766 227.126 111.416 226.871L108.028 224.41C107.244 223.84 107.647 222.601 108.616 222.601L112.804 222.601C113.237 222.601 113.621 222.322 113.755 221.91L115.049 217.927Z" fill="#BAD5FD"/>
</g>
</g>
<g filter="url(#filter2_d_21_8073)">
<rect x="313" y="120" width="48.0695" height="48.0695" rx="24.0348" fill="white"/>
<g clip-path="url(#clip3_21_8073)">
<path d="M336.084 132.961C336.383 132.04 337.687 132.04 337.986 132.961L339.954 139.017C340.088 139.429 340.472 139.708 340.905 139.708L347.273 139.708C348.241 139.708 348.644 140.948 347.86 141.517L342.709 145.26C342.359 145.515 342.212 145.966 342.346 146.378L344.313 152.434C344.613 153.355 343.558 154.122 342.775 153.552L337.623 149.81C337.272 149.555 336.798 149.555 336.447 149.81L331.296 153.552C330.512 154.122 329.458 153.355 329.757 152.434L331.724 146.378C331.858 145.966 331.712 145.515 331.361 145.26L326.21 141.517C325.426 140.948 325.829 139.708 326.798 139.708L333.165 139.708C333.598 139.708 333.982 139.429 334.116 139.017L336.084 132.961Z" fill="#BAD5FD"/>
</g>
</g>
<g filter="url(#filter3_d_21_8073)">
<rect x="257" y="324" width="48.0695" height="48.0695" rx="24.0348" fill="white"/>
<g clip-path="url(#clip4_21_8073)">
<path d="M280.084 336.961C280.383 336.04 281.687 336.04 281.986 336.961L283.954 343.017C284.088 343.429 284.472 343.708 284.905 343.708L291.273 343.708C292.241 343.708 292.644 344.948 291.86 345.517L286.709 349.26C286.359 349.515 286.212 349.966 286.346 350.378L288.313 356.434C288.613 357.355 287.558 358.122 286.775 357.552L281.623 353.81C281.272 353.555 280.798 353.555 280.447 353.81L275.296 357.552C274.512 358.122 273.458 357.355 273.757 356.434L275.724 350.378C275.858 349.966 275.712 349.515 275.361 349.26L270.21 345.517C269.426 344.948 269.829 343.708 270.798 343.708L277.165 343.708C277.598 343.708 277.982 343.429 278.116 343.017L280.084 336.961Z" fill="#BAD5FD"/>
</g>
</g>
</g>
<rect x="0.5" y="0.5" width="420" height="420" rx="11.5" stroke="#D7E7FE"/>
<defs>
<filter id="filter0_d_21_8073" x="69.1" y="59.1" width="81.8693" height="81.8696" filterUnits="userSpaceOnUse" color-interpolation-filters="sRGB">
<feFlood flood-opacity="0" result="BackgroundImageFix"/>
<feColorMatrix in="SourceAlpha" type="matrix" values="0 0 0 0 0 0 0 0 0 0 0 0 0 0 0 0 0 0 127 0" result="hardAlpha"/>
<feOffset dy="4"/>
<feGaussianBlur stdDeviation="8.45"/>
<feComposite in2="hardAlpha" operator="out"/>
<feColorMatrix type="matrix" values="0 0 0 0 0.0823529 0 0 0 0 0.431373 0 0 0 0 0.964706 0 0 0 0.3 0"/>
<feBlend mode="normal" in2="BackgroundImageFix" result="effect1_dropShadow_21_8073"/>
<feBlend mode="normal" in="SourceGraphic" in2="effect1_dropShadow_21_8073" result="shape"/>
</filter>
<filter id="filter1_d_21_8073" x="80.1" y="194.1" width="71.8" height="71.8" filterUnits="userSpaceOnUse" color-interpolation-filters="sRGB">
<feFlood flood-opacity="0" result="BackgroundImageFix"/>
<feColorMatrix in="SourceAlpha" type="matrix" values="0 0 0 0 0 0 0 0 0 0 0 0 0 0 0 0 0 0 127 0" result="hardAlpha"/>
<feOffset dy="4"/>
<feGaussianBlur stdDeviation="8.45"/>
<feComposite in2="hardAlpha" operator="out"/>
<feColorMatrix type="matrix" values="0 0 0 0 0.0823529 0 0 0 0 0.431373 0 0 0 0 0.964706 0 0 0 0.3 0"/>
<feBlend mode="normal" in2="BackgroundImageFix" result="effect1_dropShadow_21_8073"/>
<feBlend mode="normal" in="SourceGraphic" in2="effect1_dropShadow_21_8073" result="shape"/>
</filter>
<filter id="filter2_d_21_8073" x="296.1" y="107.1" width="81.8693" height="81.8696" filterUnits="userSpaceOnUse" color-interpolation-filters="sRGB">
<feFlood flood-opacity="0" result="BackgroundImageFix"/>
<feColorMatrix in="SourceAlpha" type="matrix" values="0 0 0 0 0 0 0 0 0 0 0 0 0 0 0 0 0 0 127 0" result="hardAlpha"/>
<feOffset dy="4"/>
<feGaussianBlur stdDeviation="8.45"/>
<feComposite in2="hardAlpha" operator="out"/>
<feColorMatrix type="matrix" values="0 0 0 0 0.0823529 0 0 0 0 0.431373 0 0 0 0 0.964706 0 0 0 0.3 0"/>
<feBlend mode="normal" in2="BackgroundImageFix" result="effect1_dropShadow_21_8073"/>
<feBlend mode="normal" in="SourceGraphic" in2="effect1_dropShadow_21_8073" result="shape"/>
</filter>
<filter id="filter3_d_21_8073" x="240.1" y="311.1" width="81.8693" height="81.8696" filterUnits="userSpaceOnUse" color-interpolation-filters="sRGB">
<feFlood flood-opacity="0" result="BackgroundImageFix"/>
<feColorMatrix in="SourceAlpha" type="matrix" values="0 0 0 0 0 0 0 0 0 0 0 0 0 0 0 0 0 0 127 0" result="hardAlpha"/>
<feOffset dy="4"/>
<feGaussianBlur stdDeviation="8.45"/>
<feComposite in2="hardAlpha" operator="out"/>
<feColorMatrix type="matrix" values="0 0 0 0 0.0823529 0 0 0 0 0.431373 0 0 0 0 0.964706 0 0 0 0.3 0"/>
<feBlend mode="normal" in2="BackgroundImageFix" result="effect1_dropShadow_21_8073"/>
<feBlend mode="normal" in="SourceGraphic" in2="effect1_dropShadow_21_8073" result="shape"/>
</filter>
<clipPath id="clip0_21_8073">
<rect width="421" height="421" rx="12" fill="white"/>
</clipPath>
<clipPath id="clip1_21_8073">
<rect width="28" height="28" fill="white" transform="translate(96.0352 82.0347)"/>
</clipPath>
<clipPath id="clip2_21_8073">
<rect width="22" height="22" fill="white" transform="translate(105 215)"/>
</clipPath>
<clipPath id="clip3_21_8073">
<rect width="28" height="28" fill="white" transform="translate(323.035 130.035)"/>
</clipPath>
<clipPath id="clip4_21_8073">
<rect width="28" height="28" fill="white" transform="translate(267.035 334.035)"/>
</clipPath>
</defs>
</svg>
