<svg width="421" height="396" viewBox="0 0 421 396" fill="none" xmlns="http://www.w3.org/2000/svg">
<rect x="0.5" y="1.27441" width="420" height="394" rx="11.5" fill="#F1F7FF"/>
<rect x="0.5" y="1.27441" width="420" height="394" rx="11.5" stroke="#D7E7FE"/>
<g filter="url(#filter0_d_21_5908)">
<rect x="110" y="167.226" width="202" height="60" rx="20" fill="#156EF6" shape-rendering="crispEdges"/>
<rect x="110.5" y="167.726" width="201" height="59" rx="19.5" stroke="url(#paint0_linear_21_5908)" stroke-opacity="0.6" shape-rendering="crispEdges"/>
<path d="M174.738 190.768C173.668 190.105 172.479 189.774 171.172 189.774C169.94 189.774 168.885 190.077 168.004 190.683C167.38 191.113 166.893 191.665 166.54 192.34V190.115H162.59V210.207H166.54V202.355C166.893 203.031 167.38 203.583 168.004 204.011C168.885 204.618 169.94 204.921 171.172 204.921C172.479 204.921 173.668 204.594 174.738 203.94C175.809 203.286 176.652 202.382 177.268 201.226C177.884 200.071 178.191 198.782 178.191 197.361C178.191 195.941 177.883 194.629 177.268 193.483C176.652 192.337 175.809 191.432 174.738 190.768ZM173.687 199.379C173.355 199.985 172.9 200.459 172.323 200.8C171.745 201.141 171.095 201.312 170.375 201.312C169.655 201.312 169.006 201.141 168.428 200.8C167.85 200.459 167.391 199.985 167.05 199.379C166.709 198.773 166.538 198.1 166.538 197.361C166.538 196.623 166.709 195.922 167.05 195.315C167.391 194.709 167.85 194.235 168.428 193.894C169.006 193.553 169.654 193.383 170.375 193.383C171.096 193.383 171.744 193.553 172.323 193.894C172.9 194.235 173.355 194.709 173.687 195.315C174.018 195.922 174.185 196.604 174.185 197.361C174.185 198.119 174.018 198.773 173.687 199.379Z" fill="#FCFCFD"/>
<path d="M190.619 190.91C189.548 190.153 188.264 189.774 186.768 189.774C185.272 189.774 184.083 190.11 182.974 190.782C181.866 191.455 181.004 192.369 180.388 193.525C179.772 194.681 179.465 195.96 179.465 197.362C179.465 198.877 179.782 200.203 180.416 201.34C181.051 202.477 181.955 203.358 183.13 203.983C184.305 204.608 185.65 204.921 187.166 204.921C188.379 204.921 189.468 204.769 190.434 204.466C191.401 204.163 192.187 203.737 192.793 203.187V199.806C192.092 200.393 191.32 200.857 190.478 201.198C189.634 201.539 188.759 201.71 187.848 201.71C186.825 201.71 185.934 201.52 185.176 201.141C184.419 200.762 183.85 200.232 183.471 199.55C183.233 199.122 183.071 198.658 182.982 198.157H193.275C193.484 196.623 193.361 195.221 192.906 193.951C192.451 192.682 191.688 191.668 190.618 190.91H190.619ZM183.098 195.543C183.166 195.275 183.252 195.024 183.358 194.789C183.661 194.116 184.083 193.609 184.623 193.269C185.163 192.928 185.774 192.758 186.456 192.758C187.006 192.758 187.503 192.881 187.948 193.127C188.393 193.373 188.753 193.705 189.028 194.122C189.303 194.539 189.449 195.012 189.469 195.543H183.099H183.098Z" fill="#FCFCFD"/>
<path d="M206.56 190.555C205.698 190.034 204.698 189.774 203.562 189.774C202.88 189.774 202.246 189.893 201.658 190.129C201.071 190.366 200.559 190.713 200.124 191.166C199.796 191.507 199.512 191.896 199.271 192.333V190.115H195.32V204.58H199.271V197.02C199.271 196.338 199.404 195.718 199.669 195.159C199.934 194.6 200.298 194.164 200.764 193.851C201.228 193.539 201.753 193.382 202.34 193.382C203.231 193.382 203.951 193.685 204.5 194.291C205.05 194.897 205.325 195.703 205.325 196.707V204.579H209.275V196.167C209.275 194.879 209.038 193.751 208.565 192.785C208.091 191.819 207.423 191.076 206.56 190.554V190.555Z" fill="#FCFCFD"/>
<path d="M228.666 189.774C227.889 189.774 227.183 189.897 226.549 190.144C225.914 190.39 225.346 190.746 224.844 191.209C224.522 191.507 224.225 191.854 223.953 192.25C223.799 191.943 223.623 191.662 223.423 191.408C222.56 190.318 221.286 189.774 219.6 189.774C218.824 189.774 218.066 190.002 217.327 190.456C216.588 190.911 216.019 191.536 215.621 192.332V190.115H211.671V204.581H215.621V196.794C215.621 195.752 215.868 194.923 216.36 194.308C216.853 193.692 217.507 193.385 218.321 193.385C219.079 193.385 219.671 193.665 220.098 194.222C220.525 194.781 220.737 195.544 220.737 196.51V204.581H224.716V196.794C224.716 195.733 224.957 194.899 225.441 194.293C225.924 193.687 226.582 193.383 227.416 193.383C228.155 193.383 228.743 193.663 229.178 194.221C229.614 194.78 229.832 195.543 229.832 196.509V204.579H233.783V196.167C233.783 194.121 233.332 192.544 232.432 191.435C231.532 190.327 230.276 189.773 228.667 189.773L228.666 189.774Z" fill="#FCFCFD"/>
<path d="M247.283 192.313C246.922 191.65 246.434 191.106 245.818 190.683C244.937 190.077 243.88 189.774 242.65 189.774C241.419 189.774 240.182 190.105 239.112 190.768C238.041 191.431 237.193 192.337 236.568 193.483C235.943 194.629 235.63 195.923 235.63 197.362C235.63 198.8 235.943 200.071 236.568 201.226C237.193 202.382 238.04 203.286 239.112 203.94C240.183 204.594 241.362 204.921 242.65 204.921C243.938 204.921 244.937 204.618 245.818 204.011C246.433 203.588 246.921 203.045 247.283 202.381V204.58H251.262V190.115H247.283V192.313ZM246.785 199.379C246.453 199.986 245.998 200.459 245.421 200.8C244.843 201.141 244.193 201.312 243.473 201.312C242.753 201.312 242.104 201.141 241.526 200.8C240.948 200.459 240.489 199.986 240.148 199.379C239.807 198.773 239.636 198.1 239.636 197.362C239.636 196.623 239.807 195.922 240.148 195.315C240.489 194.709 240.948 194.235 241.526 193.894C242.104 193.553 242.752 193.383 243.473 193.383C244.194 193.383 244.842 193.553 245.421 193.894C245.998 194.235 246.453 194.709 246.785 195.315C247.116 195.922 247.283 196.604 247.283 197.362C247.283 198.119 247.116 198.773 246.785 199.379Z" fill="#FCFCFD"/>
<path d="M261.815 189.774C261.19 189.774 260.603 189.916 260.053 190.2C259.504 190.484 259.034 190.878 258.646 191.38C258.257 191.882 257.979 192.445 257.808 193.07V190.115H253.857V204.58H257.808V198.1C257.827 197.172 258.007 196.357 258.348 195.656C258.689 194.955 259.139 194.415 259.699 194.037C260.257 193.658 260.887 193.468 261.589 193.468C262.025 193.468 262.455 193.515 262.882 193.61C263.308 193.705 263.691 193.866 264.033 194.093V190.314C263.711 190.143 263.355 190.011 262.968 189.916C262.58 189.821 262.195 189.774 261.816 189.774H261.815Z" fill="#FCFCFD"/>
<path d="M276.499 193.409V190.113H271.725V186.219H267.746V190.113H265.415V193.409H267.746V198.78C267.746 200.126 267.992 201.258 268.485 202.177C268.977 203.096 269.65 203.782 270.502 204.237C271.355 204.691 272.331 204.919 273.43 204.919C273.904 204.919 274.41 204.862 274.95 204.748C275.49 204.635 276.006 204.483 276.499 204.294V200.826C276.158 201.035 275.804 201.192 275.434 201.296C275.065 201.4 274.642 201.452 274.169 201.452C273.468 201.452 272.885 201.211 272.421 200.728C271.957 200.244 271.726 199.53 271.726 198.581V193.409H276.5H276.499Z" fill="#FCFCFD"/>
<path d="M152.903 200.902C150.847 200.902 149.181 199.235 149.181 197.18C149.181 196.571 149.327 195.997 149.586 195.489L146.305 193.818C145.791 194.827 145.5 195.969 145.5 197.18V204.582H152.903C154.114 204.582 155.256 204.292 156.265 203.777L154.594 200.496C154.086 200.755 153.512 200.902 152.903 200.902Z" fill="#FCFCFD"/>
<path d="M152.903 189.768C151.694 189.768 150.55 190.059 149.542 190.573L151.213 193.854C151.72 193.595 152.294 193.449 152.903 193.449C154.959 193.449 156.626 195.116 156.626 197.172C156.626 197.781 156.48 198.355 156.221 198.862L159.502 200.534C160.017 199.524 160.307 198.382 160.307 197.172C160.307 193.083 156.993 189.768 152.903 189.768Z" fill="#FCFCFD"/>
</g>
<rect x="254" y="112" width="112" height="33" rx="10" fill="white"/>
<rect x="255" y="113" width="110" height="31" rx="9" stroke="url(#paint1_linear_21_5908)" stroke-opacity="0.6" stroke-width="2"/>
<path d="M292.24 133.12C291.713 133.12 291.223 133.023 290.77 132.83C290.323 132.637 289.933 132.37 289.6 132.03C289.273 131.683 289.017 131.277 288.83 130.81C288.643 130.343 288.55 129.83 288.55 129.27C288.55 128.717 288.64 128.207 288.82 127.74C289.007 127.267 289.267 126.86 289.6 126.52C289.933 126.173 290.323 125.907 290.77 125.72C291.217 125.527 291.707 125.43 292.24 125.43C292.767 125.43 293.237 125.52 293.65 125.7C294.07 125.88 294.423 126.117 294.71 126.41C294.997 126.697 295.203 127.01 295.33 127.35L294.27 127.85C294.11 127.45 293.853 127.127 293.5 126.88C293.153 126.627 292.733 126.5 292.24 126.5C291.747 126.5 291.31 126.617 290.93 126.85C290.55 127.083 290.253 127.407 290.04 127.82C289.833 128.233 289.73 128.717 289.73 129.27C289.73 129.823 289.833 130.31 290.04 130.73C290.253 131.143 290.55 131.467 290.93 131.7C291.31 131.927 291.747 132.04 292.24 132.04C292.733 132.04 293.153 131.917 293.5 131.67C293.853 131.423 294.11 131.1 294.27 130.7L295.33 131.2C295.203 131.533 294.997 131.847 294.71 132.14C294.423 132.433 294.07 132.67 293.65 132.85C293.237 133.03 292.767 133.12 292.24 133.12ZM296.233 133V127.59H297.313V128.68L297.213 128.52C297.333 128.167 297.527 127.913 297.793 127.76C298.06 127.6 298.38 127.52 298.753 127.52H299.083V128.55H298.613C298.24 128.55 297.937 128.667 297.703 128.9C297.477 129.127 297.363 129.453 297.363 129.88V133H296.233ZM301.276 133.12C300.91 133.12 300.586 133.057 300.306 132.93C300.033 132.797 299.82 132.617 299.666 132.39C299.513 132.157 299.436 131.883 299.436 131.57C299.436 131.277 299.5 131.013 299.626 130.78C299.76 130.547 299.963 130.35 300.236 130.19C300.51 130.03 300.853 129.917 301.266 129.85L303.146 129.54V130.43L301.486 130.72C301.186 130.773 300.966 130.87 300.826 131.01C300.686 131.143 300.616 131.317 300.616 131.53C300.616 131.737 300.693 131.907 300.846 132.04C301.006 132.167 301.21 132.23 301.456 132.23C301.763 132.23 302.03 132.163 302.256 132.03C302.49 131.897 302.67 131.72 302.796 131.5C302.923 131.273 302.986 131.023 302.986 130.75V129.36C302.986 129.093 302.886 128.877 302.686 128.71C302.493 128.537 302.233 128.45 301.906 128.45C301.606 128.45 301.343 128.53 301.116 128.69C300.896 128.843 300.733 129.043 300.626 129.29L299.686 128.82C299.786 128.553 299.95 128.32 300.176 128.12C300.403 127.913 300.666 127.753 300.966 127.64C301.273 127.527 301.596 127.47 301.936 127.47C302.363 127.47 302.74 127.55 303.066 127.71C303.4 127.87 303.656 128.093 303.836 128.38C304.023 128.66 304.116 128.987 304.116 129.36V133H303.036V132.02L303.266 132.05C303.14 132.27 302.976 132.46 302.776 132.62C302.583 132.78 302.36 132.903 302.106 132.99C301.86 133.077 301.583 133.12 301.276 133.12ZM305.238 133V127.59H306.368V133H305.238ZM305.238 126.85V125.55H306.368V126.85H305.238ZM310.099 135.2C309.706 135.2 309.342 135.137 309.009 135.01C308.676 134.883 308.389 134.707 308.149 134.48C307.909 134.26 307.729 134 307.609 133.7L308.649 133.27C308.742 133.523 308.912 133.733 309.159 133.9C309.412 134.067 309.722 134.15 310.089 134.15C310.376 134.15 310.632 134.093 310.859 133.98C311.086 133.873 311.266 133.713 311.399 133.5C311.532 133.293 311.599 133.043 311.599 132.75V131.53L311.799 131.76C311.612 132.107 311.352 132.37 311.019 132.55C310.692 132.73 310.322 132.82 309.909 132.82C309.409 132.82 308.959 132.703 308.559 132.47C308.159 132.237 307.842 131.917 307.609 131.51C307.382 131.103 307.269 130.647 307.269 130.14C307.269 129.627 307.382 129.17 307.609 128.77C307.842 128.37 308.156 128.053 308.549 127.82C308.942 127.587 309.392 127.47 309.899 127.47C310.312 127.47 310.679 127.56 310.999 127.74C311.326 127.913 311.592 128.167 311.799 128.5L311.649 128.78V127.59H312.719V132.75C312.719 133.217 312.606 133.633 312.379 134C312.159 134.373 311.852 134.667 311.459 134.88C311.066 135.093 310.612 135.2 310.099 135.2ZM310.039 131.77C310.339 131.77 310.606 131.7 310.839 131.56C311.072 131.413 311.256 131.22 311.389 130.98C311.529 130.733 311.599 130.457 311.599 130.15C311.599 129.843 311.529 129.567 311.389 129.32C311.249 129.073 311.062 128.88 310.829 128.74C310.596 128.593 310.332 128.52 310.039 128.52C309.732 128.52 309.459 128.593 309.219 128.74C308.979 128.88 308.789 129.073 308.649 129.32C308.516 129.56 308.449 129.837 308.449 130.15C308.449 130.45 308.516 130.723 308.649 130.97C308.789 131.217 308.979 131.413 309.219 131.56C309.459 131.7 309.732 131.77 310.039 131.77ZM315.842 133.12C315.288 133.12 314.802 132.983 314.382 132.71C313.968 132.437 313.678 132.07 313.512 131.61L314.382 131.2C314.528 131.507 314.728 131.75 314.982 131.93C315.242 132.11 315.528 132.2 315.842 132.2C316.108 132.2 316.325 132.14 316.492 132.02C316.658 131.9 316.742 131.737 316.742 131.53C316.742 131.397 316.705 131.29 316.632 131.21C316.558 131.123 316.465 131.053 316.352 131C316.245 130.947 316.135 130.907 316.022 130.88L315.172 130.64C314.705 130.507 314.355 130.307 314.122 130.04C313.895 129.767 313.782 129.45 313.782 129.09C313.782 128.763 313.865 128.48 314.032 128.24C314.198 127.993 314.428 127.803 314.722 127.67C315.015 127.537 315.345 127.47 315.712 127.47C316.205 127.47 316.645 127.593 317.032 127.84C317.418 128.08 317.692 128.417 317.852 128.85L316.982 129.26C316.875 129 316.705 128.793 316.472 128.64C316.245 128.487 315.988 128.41 315.702 128.41C315.455 128.41 315.258 128.47 315.112 128.59C314.965 128.703 314.892 128.853 314.892 129.04C314.892 129.167 314.925 129.273 314.992 129.36C315.058 129.44 315.145 129.507 315.252 129.56C315.358 129.607 315.468 129.647 315.582 129.68L316.462 129.94C316.908 130.067 317.252 130.267 317.492 130.54C317.732 130.807 317.852 131.127 317.852 131.5C317.852 131.82 317.765 132.103 317.592 132.35C317.425 132.59 317.192 132.78 316.892 132.92C316.592 133.053 316.242 133.12 315.842 133.12ZM318.759 133V125.43H319.889V133H318.759ZM321.01 133V127.59H322.14V133H321.01ZM321.01 126.85V125.55H322.14V126.85H321.01ZM325.261 133.12C324.708 133.12 324.221 132.983 323.801 132.71C323.388 132.437 323.098 132.07 322.931 131.61L323.801 131.2C323.948 131.507 324.148 131.75 324.401 131.93C324.661 132.11 324.948 132.2 325.261 132.2C325.528 132.2 325.745 132.14 325.911 132.02C326.078 131.9 326.161 131.737 326.161 131.53C326.161 131.397 326.125 131.29 326.051 131.21C325.978 131.123 325.885 131.053 325.771 131C325.665 130.947 325.555 130.907 325.441 130.88L324.591 130.64C324.125 130.507 323.775 130.307 323.541 130.04C323.315 129.767 323.201 129.45 323.201 129.09C323.201 128.763 323.285 128.48 323.451 128.24C323.618 127.993 323.848 127.803 324.141 127.67C324.435 127.537 324.765 127.47 325.131 127.47C325.625 127.47 326.065 127.593 326.451 127.84C326.838 128.08 327.111 128.417 327.271 128.85L326.401 129.26C326.295 129 326.125 128.793 325.891 128.64C325.665 128.487 325.408 128.41 325.121 128.41C324.875 128.41 324.678 128.47 324.531 128.59C324.385 128.703 324.311 128.853 324.311 129.04C324.311 129.167 324.345 129.273 324.411 129.36C324.478 129.44 324.565 129.507 324.671 129.56C324.778 129.607 324.888 129.647 325.001 129.68L325.881 129.94C326.328 130.067 326.671 130.267 326.911 130.54C327.151 130.807 327.271 131.127 327.271 131.5C327.271 131.82 327.185 132.103 327.011 132.35C326.845 132.59 326.611 132.78 326.311 132.92C326.011 133.053 325.661 133.12 325.261 133.12ZM330.518 133.06C329.952 133.06 329.512 132.9 329.198 132.58C328.885 132.26 328.728 131.81 328.728 131.23V128.61H327.778V127.59H327.928C328.182 127.59 328.378 127.517 328.518 127.37C328.658 127.223 328.728 127.023 328.728 126.77V126.35H329.858V127.59H331.088V128.61H329.858V131.18C329.858 131.367 329.888 131.527 329.948 131.66C330.008 131.787 330.105 131.887 330.238 131.96C330.372 132.027 330.545 132.06 330.758 132.06C330.812 132.06 330.872 132.057 330.938 132.05C331.005 132.043 331.068 132.037 331.128 132.03V133C331.035 133.013 330.932 133.027 330.818 133.04C330.705 133.053 330.605 133.06 330.518 133.06Z" fill="#1D2939"/>
<rect x="244" y="54" width="112" height="33" rx="10" fill="white"/>
<rect x="245" y="55" width="110" height="31" rx="9" stroke="url(#paint2_linear_21_5908)" stroke-opacity="0.6" stroke-width="2"/>
<path d="M283.77 75V67.55H284.95V75H283.77ZM286.185 75V69.59H287.265V70.65L287.135 70.51C287.268 70.17 287.481 69.9133 287.775 69.74C288.068 69.56 288.408 69.47 288.795 69.47C289.195 69.47 289.548 69.5567 289.855 69.73C290.161 69.9033 290.401 70.1433 290.575 70.45C290.748 70.7567 290.835 71.11 290.835 71.51V75H289.715V71.81C289.715 71.5367 289.665 71.3067 289.565 71.12C289.465 70.9267 289.321 70.78 289.135 70.68C288.955 70.5733 288.748 70.52 288.515 70.52C288.281 70.52 288.071 70.5733 287.885 70.68C287.705 70.78 287.565 70.9267 287.465 71.12C287.365 71.3133 287.315 71.5433 287.315 71.81V75H286.185ZM294.344 75.12C293.824 75.12 293.357 74.9967 292.944 74.75C292.537 74.4967 292.214 74.1567 291.974 73.73C291.741 73.3033 291.624 72.8233 291.624 72.29C291.624 71.7567 291.744 71.2767 291.984 70.85C292.224 70.4233 292.547 70.0867 292.954 69.84C293.361 69.5933 293.821 69.47 294.334 69.47C294.767 69.47 295.151 69.5567 295.484 69.73C295.817 69.9033 296.081 70.1433 296.274 70.45L296.104 70.71V67.43H297.224V75H296.154V73.9L296.284 74.11C296.097 74.4367 295.831 74.6867 295.484 74.86C295.137 75.0333 294.757 75.12 294.344 75.12ZM294.454 74.07C294.767 74.07 295.047 73.9933 295.294 73.84C295.547 73.6867 295.744 73.4767 295.884 73.21C296.031 72.9367 296.104 72.63 296.104 72.29C296.104 71.95 296.031 71.6467 295.884 71.38C295.744 71.1133 295.547 70.9033 295.294 70.75C295.047 70.5967 294.767 70.52 294.454 70.52C294.141 70.52 293.857 70.5967 293.604 70.75C293.351 70.9033 293.154 71.1133 293.014 71.38C292.874 71.6467 292.804 71.95 292.804 72.29C292.804 72.63 292.874 72.9367 293.014 73.21C293.154 73.4767 293.347 73.6867 293.594 73.84C293.847 73.9933 294.134 74.07 294.454 74.07ZM300.883 75.12C300.343 75.12 299.863 74.9967 299.443 74.75C299.03 74.4967 298.707 74.1567 298.473 73.73C298.24 73.2967 298.123 72.8133 298.123 72.28C298.123 71.7333 298.24 71.25 298.473 70.83C298.713 70.41 299.033 70.08 299.433 69.84C299.833 69.5933 300.287 69.47 300.793 69.47C301.2 69.47 301.563 69.54 301.883 69.68C302.203 69.82 302.473 70.0133 302.693 70.26C302.913 70.5 303.08 70.7767 303.193 71.09C303.313 71.4033 303.373 71.7367 303.373 72.09C303.373 72.1767 303.37 72.2667 303.363 72.36C303.357 72.4533 303.343 72.54 303.323 72.62H299.013V71.72H302.683L302.143 72.13C302.21 71.8033 302.187 71.5133 302.073 71.26C301.967 71 301.8 70.7967 301.573 70.65C301.353 70.4967 301.093 70.42 300.793 70.42C300.493 70.42 300.227 70.4967 299.993 70.65C299.76 70.7967 299.58 71.01 299.453 71.29C299.327 71.5633 299.277 71.8967 299.303 72.29C299.27 72.6567 299.32 72.9767 299.453 73.25C299.593 73.5233 299.787 73.7367 300.033 73.89C300.287 74.0433 300.573 74.12 300.893 74.12C301.22 74.12 301.497 74.0467 301.723 73.9C301.957 73.7533 302.14 73.5633 302.273 73.33L303.193 73.78C303.087 74.0333 302.92 74.2633 302.693 74.47C302.473 74.67 302.207 74.83 301.893 74.95C301.587 75.0633 301.25 75.12 300.883 75.12ZM306.816 75.12C306.276 75.12 305.796 74.9967 305.376 74.75C304.963 74.4967 304.639 74.1567 304.406 73.73C304.173 73.2967 304.056 72.8133 304.056 72.28C304.056 71.7333 304.173 71.25 304.406 70.83C304.646 70.41 304.966 70.08 305.366 69.84C305.766 69.5933 306.219 69.47 306.726 69.47C307.133 69.47 307.496 69.54 307.816 69.68C308.136 69.82 308.406 70.0133 308.626 70.26C308.846 70.5 309.013 70.7767 309.126 71.09C309.246 71.4033 309.306 71.7367 309.306 72.09C309.306 72.1767 309.303 72.2667 309.296 72.36C309.289 72.4533 309.276 72.54 309.256 72.62H304.946V71.72H308.616L308.076 72.13C308.143 71.8033 308.119 71.5133 308.006 71.26C307.899 71 307.733 70.7967 307.506 70.65C307.286 70.4967 307.026 70.42 306.726 70.42C306.426 70.42 306.159 70.4967 305.926 70.65C305.693 70.7967 305.513 71.01 305.386 71.29C305.259 71.5633 305.209 71.8967 305.236 72.29C305.203 72.6567 305.253 72.9767 305.386 73.25C305.526 73.5233 305.719 73.7367 305.966 73.89C306.219 74.0433 306.506 74.12 306.826 74.12C307.153 74.12 307.429 74.0467 307.656 73.9C307.889 73.7533 308.073 73.5633 308.206 73.33L309.126 73.78C309.019 74.0333 308.853 74.2633 308.626 74.47C308.406 74.67 308.139 74.83 307.826 74.95C307.519 75.0633 307.183 75.12 306.816 75.12ZM312.709 75.12C312.189 75.12 311.722 74.9967 311.309 74.75C310.902 74.4967 310.579 74.1567 310.339 73.73C310.105 73.3033 309.989 72.8233 309.989 72.29C309.989 71.7567 310.109 71.2767 310.349 70.85C310.589 70.4233 310.912 70.0867 311.319 69.84C311.725 69.5933 312.185 69.47 312.699 69.47C313.132 69.47 313.515 69.5567 313.849 69.73C314.182 69.9033 314.445 70.1433 314.639 70.45L314.469 70.71V67.43H315.589V75H314.519V73.9L314.649 74.11C314.462 74.4367 314.195 74.6867 313.849 74.86C313.502 75.0333 313.122 75.12 312.709 75.12ZM312.819 74.07C313.132 74.07 313.412 73.9933 313.659 73.84C313.912 73.6867 314.109 73.4767 314.249 73.21C314.395 72.9367 314.469 72.63 314.469 72.29C314.469 71.95 314.395 71.6467 314.249 71.38C314.109 71.1133 313.912 70.9033 313.659 70.75C313.412 70.5967 313.132 70.52 312.819 70.52C312.505 70.52 312.222 70.5967 311.969 70.75C311.715 70.9033 311.519 71.1133 311.379 71.38C311.239 71.6467 311.169 71.95 311.169 72.29C311.169 72.63 311.239 72.9367 311.379 73.21C311.519 73.4767 311.712 73.6867 311.959 73.84C312.212 73.9933 312.499 74.07 312.819 74.07Z" fill="#1D2939"/>
<rect x="56" y="99" width="112" height="33" rx="10" fill="white"/>
<rect x="57" y="100" width="110" height="31" rx="9" stroke="url(#paint3_linear_21_5908)" stroke-opacity="0.6" stroke-width="2"/>
<path d="M88.77 120V112.55H89.95V120H88.77ZM91.1846 120V114.59H92.2646V115.65L92.1346 115.51C92.2679 115.17 92.4813 114.913 92.7746 114.74C93.0679 114.56 93.4079 114.47 93.7946 114.47C94.1946 114.47 94.5479 114.557 94.8546 114.73C95.1613 114.903 95.4013 115.143 95.5746 115.45C95.7479 115.757 95.8346 116.11 95.8346 116.51V120H94.7146V116.81C94.7146 116.537 94.6646 116.307 94.5646 116.12C94.4646 115.927 94.3213 115.78 94.1346 115.68C93.9546 115.573 93.7479 115.52 93.5146 115.52C93.2813 115.52 93.0713 115.573 92.8846 115.68C92.7046 115.78 92.5646 115.927 92.4646 116.12C92.3646 116.313 92.3146 116.543 92.3146 116.81V120H91.1846ZM98.844 120.12C98.2907 120.12 97.804 119.983 97.384 119.71C96.9707 119.437 96.6807 119.07 96.514 118.61L97.384 118.2C97.5307 118.507 97.7307 118.75 97.984 118.93C98.244 119.11 98.5307 119.2 98.844 119.2C99.1107 119.2 99.3273 119.14 99.494 119.02C99.6607 118.9 99.744 118.737 99.744 118.53C99.744 118.397 99.7073 118.29 99.634 118.21C99.5607 118.123 99.4673 118.053 99.354 118C99.2473 117.947 99.1373 117.907 99.024 117.88L98.174 117.64C97.7073 117.507 97.3573 117.307 97.124 117.04C96.8973 116.767 96.784 116.45 96.784 116.09C96.784 115.763 96.8673 115.48 97.034 115.24C97.2007 114.993 97.4307 114.803 97.724 114.67C98.0173 114.537 98.3473 114.47 98.714 114.47C99.2073 114.47 99.6473 114.593 100.034 114.84C100.421 115.08 100.694 115.417 100.854 115.85L99.984 116.26C99.8773 116 99.7073 115.793 99.474 115.64C99.2473 115.487 98.9907 115.41 98.704 115.41C98.4573 115.41 98.2607 115.47 98.114 115.59C97.9673 115.703 97.894 115.853 97.894 116.04C97.894 116.167 97.9273 116.273 97.994 116.36C98.0607 116.44 98.1473 116.507 98.254 116.56C98.3607 116.607 98.4707 116.647 98.584 116.68L99.464 116.94C99.9107 117.067 100.254 117.267 100.494 117.54C100.734 117.807 100.854 118.127 100.854 118.5C100.854 118.82 100.767 119.103 100.594 119.35C100.427 119.59 100.194 119.78 99.894 119.92C99.594 120.053 99.244 120.12 98.844 120.12ZM104.101 120.06C103.535 120.06 103.095 119.9 102.781 119.58C102.468 119.26 102.311 118.81 102.311 118.23V115.61H101.361V114.59H101.511C101.765 114.59 101.961 114.517 102.101 114.37C102.241 114.223 102.311 114.023 102.311 113.77V113.35H103.441V114.59H104.671V115.61H103.441V118.18C103.441 118.367 103.471 118.527 103.531 118.66C103.591 118.787 103.688 118.887 103.821 118.96C103.955 119.027 104.128 119.06 104.341 119.06C104.395 119.06 104.455 119.057 104.521 119.05C104.588 119.043 104.651 119.037 104.711 119.03V120C104.618 120.013 104.515 120.027 104.401 120.04C104.288 120.053 104.188 120.06 104.101 120.06ZM107.185 120.12C106.818 120.12 106.495 120.057 106.215 119.93C105.942 119.797 105.728 119.617 105.575 119.39C105.422 119.157 105.345 118.883 105.345 118.57C105.345 118.277 105.408 118.013 105.535 117.78C105.668 117.547 105.872 117.35 106.145 117.19C106.418 117.03 106.762 116.917 107.175 116.85L109.055 116.54V117.43L107.395 117.72C107.095 117.773 106.875 117.87 106.735 118.01C106.595 118.143 106.525 118.317 106.525 118.53C106.525 118.737 106.602 118.907 106.755 119.04C106.915 119.167 107.118 119.23 107.365 119.23C107.672 119.23 107.938 119.163 108.165 119.03C108.398 118.897 108.578 118.72 108.705 118.5C108.832 118.273 108.895 118.023 108.895 117.75V116.36C108.895 116.093 108.795 115.877 108.595 115.71C108.402 115.537 108.142 115.45 107.815 115.45C107.515 115.45 107.252 115.53 107.025 115.69C106.805 115.843 106.642 116.043 106.535 116.29L105.595 115.82C105.695 115.553 105.858 115.32 106.085 115.12C106.312 114.913 106.575 114.753 106.875 114.64C107.182 114.527 107.505 114.47 107.845 114.47C108.272 114.47 108.648 114.55 108.975 114.71C109.308 114.87 109.565 115.093 109.745 115.38C109.932 115.66 110.025 115.987 110.025 116.36V120H108.945V119.02L109.175 119.05C109.048 119.27 108.885 119.46 108.685 119.62C108.492 119.78 108.268 119.903 108.015 119.99C107.768 120.077 107.492 120.12 107.185 120.12ZM113.756 122.2C113.363 122.2 113 122.137 112.666 122.01C112.333 121.883 112.046 121.707 111.806 121.48C111.566 121.26 111.386 121 111.266 120.7L112.306 120.27C112.4 120.523 112.57 120.733 112.816 120.9C113.07 121.067 113.38 121.15 113.746 121.15C114.033 121.15 114.29 121.093 114.516 120.98C114.743 120.873 114.923 120.713 115.056 120.5C115.19 120.293 115.256 120.043 115.256 119.75V118.53L115.456 118.76C115.27 119.107 115.01 119.37 114.676 119.55C114.35 119.73 113.98 119.82 113.566 119.82C113.066 119.82 112.616 119.703 112.216 119.47C111.816 119.237 111.5 118.917 111.266 118.51C111.04 118.103 110.926 117.647 110.926 117.14C110.926 116.627 111.04 116.17 111.266 115.77C111.5 115.37 111.813 115.053 112.206 114.82C112.6 114.587 113.05 114.47 113.556 114.47C113.97 114.47 114.336 114.56 114.656 114.74C114.983 114.913 115.25 115.167 115.456 115.5L115.306 115.78V114.59H116.376V119.75C116.376 120.217 116.263 120.633 116.036 121C115.816 121.373 115.51 121.667 115.116 121.88C114.723 122.093 114.27 122.2 113.756 122.2ZM113.696 118.77C113.996 118.77 114.263 118.7 114.496 118.56C114.73 118.413 114.913 118.22 115.046 117.98C115.186 117.733 115.256 117.457 115.256 117.15C115.256 116.843 115.186 116.567 115.046 116.32C114.906 116.073 114.72 115.88 114.486 115.74C114.253 115.593 113.99 115.52 113.696 115.52C113.39 115.52 113.116 115.593 112.876 115.74C112.636 115.88 112.446 116.073 112.306 116.32C112.173 116.56 112.106 116.837 112.106 117.15C112.106 117.45 112.173 117.723 112.306 117.97C112.446 118.217 112.636 118.413 112.876 118.56C113.116 118.7 113.39 118.77 113.696 118.77ZM117.499 120V114.59H118.579V115.68L118.479 115.52C118.599 115.167 118.792 114.913 119.059 114.76C119.326 114.6 119.646 114.52 120.019 114.52H120.349V115.55H119.879C119.506 115.55 119.202 115.667 118.969 115.9C118.742 116.127 118.629 116.453 118.629 116.88V120H117.499ZM122.542 120.12C122.175 120.12 121.852 120.057 121.572 119.93C121.299 119.797 121.085 119.617 120.932 119.39C120.779 119.157 120.702 118.883 120.702 118.57C120.702 118.277 120.765 118.013 120.892 117.78C121.025 117.547 121.229 117.35 121.502 117.19C121.775 117.03 122.119 116.917 122.532 116.85L124.412 116.54V117.43L122.752 117.72C122.452 117.773 122.232 117.87 122.092 118.01C121.952 118.143 121.882 118.317 121.882 118.53C121.882 118.737 121.959 118.907 122.112 119.04C122.272 119.167 122.475 119.23 122.722 119.23C123.029 119.23 123.295 119.163 123.522 119.03C123.755 118.897 123.935 118.72 124.062 118.5C124.189 118.273 124.252 118.023 124.252 117.75V116.36C124.252 116.093 124.152 115.877 123.952 115.71C123.759 115.537 123.499 115.45 123.172 115.45C122.872 115.45 122.609 115.53 122.382 115.69C122.162 115.843 121.999 116.043 121.892 116.29L120.952 115.82C121.052 115.553 121.215 115.32 121.442 115.12C121.669 114.913 121.932 114.753 122.232 114.64C122.539 114.527 122.862 114.47 123.202 114.47C123.629 114.47 124.005 114.55 124.332 114.71C124.665 114.87 124.922 115.093 125.102 115.38C125.289 115.66 125.382 115.987 125.382 116.36V120H124.302V119.02L124.532 119.05C124.405 119.27 124.242 119.46 124.042 119.62C123.849 119.78 123.625 119.903 123.372 119.99C123.125 120.077 122.849 120.12 122.542 120.12ZM126.503 120V114.59H127.583V115.76L127.443 115.58C127.557 115.213 127.763 114.937 128.063 114.75C128.363 114.563 128.707 114.47 129.093 114.47C129.527 114.47 129.91 114.587 130.243 114.82C130.583 115.047 130.81 115.35 130.923 115.73L130.603 115.76C130.763 115.327 131.007 115.003 131.333 114.79C131.667 114.577 132.047 114.47 132.473 114.47C132.847 114.47 133.183 114.557 133.483 114.73C133.79 114.903 134.033 115.143 134.213 115.45C134.393 115.757 134.483 116.107 134.483 116.5V120H133.353V116.81C133.353 116.537 133.303 116.307 133.203 116.12C133.11 115.927 132.977 115.78 132.803 115.68C132.637 115.573 132.44 115.52 132.213 115.52C131.987 115.52 131.787 115.573 131.613 115.68C131.44 115.78 131.303 115.927 131.203 116.12C131.103 116.313 131.053 116.543 131.053 116.81V120H129.933V116.81C129.933 116.537 129.883 116.307 129.783 116.12C129.69 115.927 129.557 115.78 129.383 115.68C129.217 115.573 129.017 115.52 128.783 115.52C128.557 115.52 128.357 115.573 128.183 115.68C128.01 115.78 127.873 115.927 127.773 116.12C127.68 116.313 127.633 116.543 127.633 116.81V120H126.503Z" fill="#1D2939"/>
<path opacity="0.4" d="M211 178V148C211 136.954 219.954 128 231 128H254" stroke="url(#paint4_linear_21_5908)" stroke-width="2"/>
<path opacity="0.4" d="M211 188V89C211 77.9543 219.954 69 231 69H244" stroke="url(#paint5_linear_21_5908)" stroke-width="2"/>
<path opacity="0.4" d="M211 167V136C211 124.954 202.046 116 191 116H168" stroke="url(#paint6_linear_21_5908)" stroke-width="2"/>
<rect x="168" y="283" width="112" height="33" rx="10" transform="rotate(180 168 283)" fill="white"/>
<rect x="167" y="282" width="110" height="31" rx="9" transform="rotate(180 167 282)" stroke="url(#paint7_linear_21_5908)" stroke-opacity="0.6" stroke-width="2"/>
<path d="M104.16 271V267.64L101.61 263.55H102.94L104.98 266.86H104.51L106.54 263.55H107.87L105.33 267.64V271H104.16ZM110.037 271.12C109.497 271.12 109.017 270.997 108.597 270.75C108.184 270.497 107.86 270.157 107.627 269.73C107.394 269.297 107.277 268.813 107.277 268.28C107.277 267.733 107.394 267.25 107.627 266.83C107.867 266.41 108.187 266.08 108.587 265.84C108.987 265.593 109.44 265.47 109.947 265.47C110.354 265.47 110.717 265.54 111.037 265.68C111.357 265.82 111.627 266.013 111.847 266.26C112.067 266.5 112.234 266.777 112.347 267.09C112.467 267.403 112.527 267.737 112.527 268.09C112.527 268.177 112.524 268.267 112.517 268.36C112.51 268.453 112.497 268.54 112.477 268.62H108.167V267.72H111.837L111.297 268.13C111.364 267.803 111.34 267.513 111.227 267.26C111.12 267 110.954 266.797 110.727 266.65C110.507 266.497 110.247 266.42 109.947 266.42C109.647 266.42 109.38 266.497 109.147 266.65C108.914 266.797 108.734 267.01 108.607 267.29C108.48 267.563 108.43 267.897 108.457 268.29C108.424 268.657 108.474 268.977 108.607 269.25C108.747 269.523 108.94 269.737 109.187 269.89C109.44 270.043 109.727 270.12 110.047 270.12C110.374 270.12 110.65 270.047 110.877 269.9C111.11 269.753 111.294 269.563 111.427 269.33L112.347 269.78C112.24 270.033 112.074 270.263 111.847 270.47C111.627 270.67 111.36 270.83 111.047 270.95C110.74 271.063 110.404 271.12 110.037 271.12ZM113.43 271V263.43H114.56V271H113.43ZM115.681 273V265.59H116.761V266.71L116.631 266.45C116.831 266.143 117.098 265.903 117.431 265.73C117.764 265.557 118.144 265.47 118.571 265.47C119.084 265.47 119.544 265.593 119.951 265.84C120.364 266.087 120.688 266.423 120.921 266.85C121.161 267.277 121.281 267.757 121.281 268.29C121.281 268.823 121.161 269.303 120.921 269.73C120.688 270.157 120.368 270.497 119.961 270.75C119.554 270.997 119.091 271.12 118.571 271.12C118.151 271.12 117.768 271.033 117.421 270.86C117.081 270.687 116.818 270.437 116.631 270.11L116.811 269.9V273H115.681ZM118.461 270.07C118.781 270.07 119.064 269.993 119.311 269.84C119.558 269.687 119.751 269.477 119.891 269.21C120.038 268.937 120.111 268.63 120.111 268.29C120.111 267.95 120.038 267.647 119.891 267.38C119.751 267.113 119.558 266.903 119.311 266.75C119.064 266.597 118.781 266.52 118.461 266.52C118.148 266.52 117.864 266.597 117.611 266.75C117.364 266.903 117.168 267.113 117.021 267.38C116.881 267.647 116.811 267.95 116.811 268.29C116.811 268.63 116.881 268.937 117.021 269.21C117.168 269.477 117.364 269.687 117.611 269.84C117.864 269.993 118.148 270.07 118.461 270.07Z" fill="#1D2939"/>
<rect x="178" y="342" width="112" height="33" rx="10" transform="rotate(180 178 342)" fill="white"/>
<rect x="177" y="341" width="110" height="31" rx="9" transform="rotate(180 177 341)" stroke="url(#paint8_linear_21_5908)" stroke-opacity="0.6" stroke-width="2"/>
<path d="M109.77 330V322.55H110.87L113.67 326.43H113.12L115.87 322.55H116.97V330H115.8V323.94L116.24 324.06L113.43 327.9H113.31L110.56 324.06L110.95 323.94V330H109.77ZM119.82 330.12C119.454 330.12 119.13 330.057 118.85 329.93C118.577 329.797 118.364 329.617 118.21 329.39C118.057 329.157 117.98 328.883 117.98 328.57C117.98 328.277 118.044 328.013 118.17 327.78C118.304 327.547 118.507 327.35 118.78 327.19C119.054 327.03 119.397 326.917 119.81 326.85L121.69 326.54V327.43L120.03 327.72C119.73 327.773 119.51 327.87 119.37 328.01C119.23 328.143 119.16 328.317 119.16 328.53C119.16 328.737 119.237 328.907 119.39 329.04C119.55 329.167 119.754 329.23 120 329.23C120.307 329.23 120.574 329.163 120.8 329.03C121.034 328.897 121.214 328.72 121.34 328.5C121.467 328.273 121.53 328.023 121.53 327.75V326.36C121.53 326.093 121.43 325.877 121.23 325.71C121.037 325.537 120.777 325.45 120.45 325.45C120.15 325.45 119.887 325.53 119.66 325.69C119.44 325.843 119.277 326.043 119.17 326.29L118.23 325.82C118.33 325.553 118.494 325.32 118.72 325.12C118.947 324.913 119.21 324.753 119.51 324.64C119.817 324.527 120.14 324.47 120.48 324.47C120.907 324.47 121.284 324.55 121.61 324.71C121.944 324.87 122.2 325.093 122.38 325.38C122.567 325.66 122.66 325.987 122.66 326.36V330H121.58V329.02L121.81 329.05C121.684 329.27 121.52 329.46 121.32 329.62C121.127 329.78 120.904 329.903 120.65 329.99C120.404 330.077 120.127 330.12 119.82 330.12ZM123.781 332V324.59H124.861V325.71L124.731 325.45C124.931 325.143 125.198 324.903 125.531 324.73C125.865 324.557 126.245 324.47 126.671 324.47C127.185 324.47 127.645 324.593 128.051 324.84C128.465 325.087 128.788 325.423 129.021 325.85C129.261 326.277 129.381 326.757 129.381 327.29C129.381 327.823 129.261 328.303 129.021 328.73C128.788 329.157 128.468 329.497 128.061 329.75C127.655 329.997 127.191 330.12 126.671 330.12C126.251 330.12 125.868 330.033 125.521 329.86C125.181 329.687 124.918 329.437 124.731 329.11L124.911 328.9V332H123.781ZM126.561 329.07C126.881 329.07 127.165 328.993 127.411 328.84C127.658 328.687 127.851 328.477 127.991 328.21C128.138 327.937 128.211 327.63 128.211 327.29C128.211 326.95 128.138 326.647 127.991 326.38C127.851 326.113 127.658 325.903 127.411 325.75C127.165 325.597 126.881 325.52 126.561 325.52C126.248 325.52 125.965 325.597 125.711 325.75C125.465 325.903 125.268 326.113 125.121 326.38C124.981 326.647 124.911 326.95 124.911 327.29C124.911 327.63 124.981 327.937 125.121 328.21C125.268 328.477 125.465 328.687 125.711 328.84C125.965 328.993 126.248 329.07 126.561 329.07ZM132.281 330.12C131.727 330.12 131.241 329.983 130.821 329.71C130.407 329.437 130.117 329.07 129.951 328.61L130.821 328.2C130.967 328.507 131.167 328.75 131.421 328.93C131.681 329.11 131.967 329.2 132.281 329.2C132.547 329.2 132.764 329.14 132.931 329.02C133.097 328.9 133.181 328.737 133.181 328.53C133.181 328.397 133.144 328.29 133.071 328.21C132.997 328.123 132.904 328.053 132.791 328C132.684 327.947 132.574 327.907 132.461 327.88L131.611 327.64C131.144 327.507 130.794 327.307 130.561 327.04C130.334 326.767 130.221 326.45 130.221 326.09C130.221 325.763 130.304 325.48 130.471 325.24C130.637 324.993 130.867 324.803 131.161 324.67C131.454 324.537 131.784 324.47 132.151 324.47C132.644 324.47 133.084 324.593 133.471 324.84C133.857 325.08 134.131 325.417 134.291 325.85L133.421 326.26C133.314 326 133.144 325.793 132.911 325.64C132.684 325.487 132.427 325.41 132.141 325.41C131.894 325.41 131.697 325.47 131.551 325.59C131.404 325.703 131.331 325.853 131.331 326.04C131.331 326.167 131.364 326.273 131.431 326.36C131.497 326.44 131.584 326.507 131.691 326.56C131.797 326.607 131.907 326.647 132.021 326.68L132.901 326.94C133.347 327.067 133.691 327.267 133.931 327.54C134.171 327.807 134.291 328.127 134.291 328.5C134.291 328.82 134.204 329.103 134.031 329.35C133.864 329.59 133.631 329.78 133.331 329.92C133.031 330.053 132.681 330.12 132.281 330.12Z" fill="#1D2939"/>
<rect x="366" y="305" width="112" height="33" rx="10" transform="rotate(180 366 305)" fill="white"/>
<rect x="365" y="304" width="110" height="31" rx="9" transform="rotate(180 365 304)" stroke="url(#paint9_linear_21_5908)" stroke-opacity="0.6" stroke-width="2"/>
<path d="M286.77 293V285.55H291.62V286.6H287.95V288.84H291.22V289.89H287.95V293H286.77ZM293.666 293.12C293.299 293.12 292.976 293.057 292.696 292.93C292.423 292.797 292.209 292.617 292.056 292.39C291.903 292.157 291.826 291.883 291.826 291.57C291.826 291.277 291.889 291.013 292.016 290.78C292.149 290.547 292.353 290.35 292.626 290.19C292.899 290.03 293.243 289.917 293.656 289.85L295.536 289.54V290.43L293.876 290.72C293.576 290.773 293.356 290.87 293.216 291.01C293.076 291.143 293.006 291.317 293.006 291.53C293.006 291.737 293.083 291.907 293.236 292.04C293.396 292.167 293.599 292.23 293.846 292.23C294.153 292.23 294.419 292.163 294.646 292.03C294.879 291.897 295.059 291.72 295.186 291.5C295.313 291.273 295.376 291.023 295.376 290.75V289.36C295.376 289.093 295.276 288.877 295.076 288.71C294.883 288.537 294.623 288.45 294.296 288.45C293.996 288.45 293.733 288.53 293.506 288.69C293.286 288.843 293.123 289.043 293.016 289.29L292.076 288.82C292.176 288.553 292.339 288.32 292.566 288.12C292.793 287.913 293.056 287.753 293.356 287.64C293.663 287.527 293.986 287.47 294.326 287.47C294.753 287.47 295.129 287.55 295.456 287.71C295.789 287.87 296.046 288.093 296.226 288.38C296.413 288.66 296.506 288.987 296.506 289.36V293H295.426V292.02L295.656 292.05C295.529 292.27 295.366 292.46 295.166 292.62C294.973 292.78 294.749 292.903 294.496 292.99C294.249 293.077 293.973 293.12 293.666 293.12ZM300.197 293.12C299.657 293.12 299.177 292.997 298.757 292.75C298.344 292.497 298.014 292.157 297.767 291.73C297.527 291.303 297.407 290.82 297.407 290.28C297.407 289.747 297.527 289.267 297.767 288.84C298.007 288.413 298.337 288.08 298.757 287.84C299.177 287.593 299.657 287.47 300.197 287.47C300.564 287.47 300.907 287.537 301.227 287.67C301.547 287.797 301.824 287.973 302.057 288.2C302.297 288.427 302.474 288.69 302.587 288.99L301.597 289.45C301.484 289.17 301.301 288.947 301.047 288.78C300.801 288.607 300.517 288.52 300.197 288.52C299.891 288.52 299.614 288.597 299.367 288.75C299.127 288.897 298.937 289.107 298.797 289.38C298.657 289.647 298.587 289.95 298.587 290.29C298.587 290.63 298.657 290.937 298.797 291.21C298.937 291.477 299.127 291.687 299.367 291.84C299.614 291.993 299.891 292.07 300.197 292.07C300.524 292.07 300.807 291.987 301.047 291.82C301.294 291.647 301.477 291.417 301.597 291.13L302.587 291.6C302.481 291.887 302.307 292.147 302.067 292.38C301.834 292.607 301.557 292.787 301.237 292.92C300.917 293.053 300.571 293.12 300.197 293.12ZM306.032 293.12C305.492 293.12 305.012 292.997 304.592 292.75C304.178 292.497 303.855 292.157 303.622 291.73C303.388 291.297 303.272 290.813 303.272 290.28C303.272 289.733 303.388 289.25 303.622 288.83C303.862 288.41 304.182 288.08 304.582 287.84C304.982 287.593 305.435 287.47 305.942 287.47C306.348 287.47 306.712 287.54 307.032 287.68C307.352 287.82 307.622 288.013 307.842 288.26C308.062 288.5 308.228 288.777 308.342 289.09C308.462 289.403 308.522 289.737 308.522 290.09C308.522 290.177 308.518 290.267 308.512 290.36C308.505 290.453 308.492 290.54 308.472 290.62H304.162V289.72H307.832L307.292 290.13C307.358 289.803 307.335 289.513 307.222 289.26C307.115 289 306.948 288.797 306.722 288.65C306.502 288.497 306.242 288.42 305.942 288.42C305.642 288.42 305.375 288.497 305.142 288.65C304.908 288.797 304.728 289.01 304.602 289.29C304.475 289.563 304.425 289.897 304.452 290.29C304.418 290.657 304.468 290.977 304.602 291.25C304.742 291.523 304.935 291.737 305.182 291.89C305.435 292.043 305.722 292.12 306.042 292.12C306.368 292.12 306.645 292.047 306.872 291.9C307.105 291.753 307.288 291.563 307.422 291.33L308.342 291.78C308.235 292.033 308.068 292.263 307.842 292.47C307.622 292.67 307.355 292.83 307.042 292.95C306.735 293.063 306.398 293.12 306.032 293.12ZM312.314 293.12C311.894 293.12 311.511 293.033 311.164 292.86C310.824 292.687 310.561 292.437 310.374 292.11L310.504 291.9V293H309.424V285.43H310.554V288.71L310.374 288.45C310.574 288.143 310.841 287.903 311.174 287.73C311.508 287.557 311.888 287.47 312.314 287.47C312.828 287.47 313.288 287.593 313.694 287.84C314.108 288.087 314.431 288.423 314.664 288.85C314.904 289.277 315.024 289.757 315.024 290.29C315.024 290.823 314.904 291.303 314.664 291.73C314.431 292.157 314.111 292.497 313.704 292.75C313.298 292.997 312.834 293.12 312.314 293.12ZM312.204 292.07C312.524 292.07 312.808 291.993 313.054 291.84C313.301 291.687 313.494 291.477 313.634 291.21C313.781 290.937 313.854 290.63 313.854 290.29C313.854 289.95 313.781 289.647 313.634 289.38C313.494 289.113 313.301 288.903 313.054 288.75C312.808 288.597 312.524 288.52 312.204 288.52C311.891 288.52 311.608 288.597 311.354 288.75C311.108 288.903 310.911 289.113 310.764 289.38C310.624 289.647 310.554 289.95 310.554 290.29C310.554 290.63 310.624 290.937 310.764 291.21C310.911 291.477 311.108 291.687 311.354 291.84C311.608 291.993 311.891 292.07 312.204 292.07ZM318.534 293.12C318.014 293.12 317.537 292.997 317.104 292.75C316.677 292.503 316.337 292.167 316.084 291.74C315.83 291.313 315.704 290.83 315.704 290.29C315.704 289.743 315.83 289.26 316.084 288.84C316.337 288.413 316.677 288.08 317.104 287.84C317.53 287.593 318.007 287.47 318.534 287.47C319.067 287.47 319.544 287.593 319.964 287.84C320.39 288.08 320.727 288.413 320.974 288.84C321.227 289.26 321.354 289.743 321.354 290.29C321.354 290.837 321.227 291.323 320.974 291.75C320.72 292.177 320.38 292.513 319.954 292.76C319.527 293 319.054 293.12 318.534 293.12ZM318.534 292.07C318.854 292.07 319.137 291.993 319.384 291.84C319.63 291.687 319.824 291.477 319.964 291.21C320.11 290.937 320.184 290.63 320.184 290.29C320.184 289.95 320.11 289.647 319.964 289.38C319.824 289.113 319.63 288.903 319.384 288.75C319.137 288.597 318.854 288.52 318.534 288.52C318.22 288.52 317.937 288.597 317.684 288.75C317.437 288.903 317.24 289.113 317.094 289.38C316.954 289.647 316.884 289.95 316.884 290.29C316.884 290.63 316.954 290.937 317.094 291.21C317.24 291.477 317.437 291.687 317.684 291.84C317.937 291.993 318.22 292.07 318.534 292.07ZM324.867 293.12C324.347 293.12 323.87 292.997 323.437 292.75C323.01 292.503 322.67 292.167 322.417 291.74C322.164 291.313 322.037 290.83 322.037 290.29C322.037 289.743 322.164 289.26 322.417 288.84C322.67 288.413 323.01 288.08 323.437 287.84C323.864 287.593 324.34 287.47 324.867 287.47C325.4 287.47 325.877 287.593 326.297 287.84C326.724 288.08 327.06 288.413 327.307 288.84C327.56 289.26 327.687 289.743 327.687 290.29C327.687 290.837 327.56 291.323 327.307 291.75C327.054 292.177 326.714 292.513 326.287 292.76C325.86 293 325.387 293.12 324.867 293.12ZM324.867 292.07C325.187 292.07 325.47 291.993 325.717 291.84C325.964 291.687 326.157 291.477 326.297 291.21C326.444 290.937 326.517 290.63 326.517 290.29C326.517 289.95 326.444 289.647 326.297 289.38C326.157 289.113 325.964 288.903 325.717 288.75C325.47 288.597 325.187 288.52 324.867 288.52C324.554 288.52 324.27 288.597 324.017 288.75C323.77 288.903 323.574 289.113 323.427 289.38C323.287 289.647 323.217 289.95 323.217 290.29C323.217 290.63 323.287 290.937 323.427 291.21C323.574 291.477 323.77 291.687 324.017 291.84C324.27 291.993 324.554 292.07 324.867 292.07ZM328.59 293V285.43H329.72V290.5L329.28 290.39L331.99 287.59H333.4L331.36 289.76L333.49 293H332.19L330.29 290.13L330.96 290.04L329.36 291.74L329.72 290.99V293H328.59Z" fill="#1D2939"/>
<path opacity="0.4" d="M211 227L211 248C211 259.046 202.046 268 191 268L168 268" stroke="url(#paint10_linear_21_5908)" stroke-width="2"/>
<path opacity="0.4" d="M211 208L211 305C211 316.046 202.046 325 191 325L178 325" stroke="url(#paint11_linear_21_5908)" stroke-width="2"/>
<path opacity="0.4" d="M211 227L211 269C211 280.046 219.954 289 231 289L254 289" stroke="url(#paint12_linear_21_5908)" stroke-width="2"/>
<defs>
<filter id="filter0_d_21_5908" x="78" y="139.226" width="266" height="124" filterUnits="userSpaceOnUse" color-interpolation-filters="sRGB">
<feFlood flood-opacity="0" result="BackgroundImageFix"/>
<feColorMatrix in="SourceAlpha" type="matrix" values="0 0 0 0 0 0 0 0 0 0 0 0 0 0 0 0 0 0 127 0" result="hardAlpha"/>
<feOffset dy="4"/>
<feGaussianBlur stdDeviation="16"/>
<feComposite in2="hardAlpha" operator="out"/>
<feColorMatrix type="matrix" values="0 0 0 0 0.0823529 0 0 0 0 0.431373 0 0 0 0 0.964706 0 0 0 0.39 0"/>
<feBlend mode="normal" in2="BackgroundImageFix" result="effect1_dropShadow_21_5908"/>
<feBlend mode="normal" in="SourceGraphic" in2="effect1_dropShadow_21_5908" result="shape"/>
</filter>
<linearGradient id="paint0_linear_21_5908" x1="127.027" y1="134.034" x2="315.156" y2="173.583" gradientUnits="userSpaceOnUse">
<stop offset="0.02" stop-color="#4F94FE"/>
<stop offset="0.265" stop-color="#92BDFF"/>
<stop offset="0.741137" stop-color="#156EF6"/>
<stop offset="0.965" stop-color="#75AAFF"/>
</linearGradient>
<linearGradient id="paint1_linear_21_5908" x1="263.441" y1="93.7447" x2="367.678" y2="115.835" gradientUnits="userSpaceOnUse">
<stop offset="0.02" stop-color="#4F94FE"/>
<stop offset="0.265" stop-color="#92BDFF"/>
<stop offset="0.741137" stop-color="#156EF6"/>
<stop offset="0.965" stop-color="#75AAFF"/>
</linearGradient>
<linearGradient id="paint2_linear_21_5908" x1="253.441" y1="35.7447" x2="357.678" y2="57.8355" gradientUnits="userSpaceOnUse">
<stop offset="0.02" stop-color="#4F94FE"/>
<stop offset="0.265" stop-color="#92BDFF"/>
<stop offset="0.741137" stop-color="#156EF6"/>
<stop offset="0.965" stop-color="#75AAFF"/>
</linearGradient>
<linearGradient id="paint3_linear_21_5908" x1="65.4406" y1="80.7447" x2="169.678" y2="102.835" gradientUnits="userSpaceOnUse">
<stop offset="0.02" stop-color="#4F94FE"/>
<stop offset="0.265" stop-color="#92BDFF"/>
<stop offset="0.741137" stop-color="#156EF6"/>
<stop offset="0.965" stop-color="#75AAFF"/>
</linearGradient>
<linearGradient id="paint4_linear_21_5908" x1="232.5" y1="128" x2="232.5" y2="178" gradientUnits="userSpaceOnUse">
<stop stop-color="#156EF6"/>
<stop offset="0.5" stop-color="#156EF6" stop-opacity="0.2"/>
<stop offset="1" stop-color="#156EF6"/>
</linearGradient>
<linearGradient id="paint5_linear_21_5908" x1="227.5" y1="69" x2="227.5" y2="188" gradientUnits="userSpaceOnUse">
<stop stop-color="#156EF6"/>
<stop offset="0.5" stop-color="#156EF6" stop-opacity="0"/>
<stop offset="1" stop-color="#156EF6"/>
</linearGradient>
<linearGradient id="paint6_linear_21_5908" x1="189.5" y1="116" x2="189.5" y2="167" gradientUnits="userSpaceOnUse">
<stop stop-color="#156EF6"/>
<stop offset="0.5" stop-color="#156EF6" stop-opacity="0"/>
<stop offset="1" stop-color="#156EF6"/>
</linearGradient>
<linearGradient id="paint7_linear_21_5908" x1="177.441" y1="264.745" x2="281.678" y2="286.835" gradientUnits="userSpaceOnUse">
<stop offset="0.02" stop-color="#4F94FE"/>
<stop offset="0.265" stop-color="#92BDFF"/>
<stop offset="0.741137" stop-color="#156EF6"/>
<stop offset="0.965" stop-color="#75AAFF"/>
</linearGradient>
<linearGradient id="paint8_linear_21_5908" x1="187.441" y1="323.745" x2="291.678" y2="345.835" gradientUnits="userSpaceOnUse">
<stop offset="0.02" stop-color="#4F94FE"/>
<stop offset="0.265" stop-color="#92BDFF"/>
<stop offset="0.741137" stop-color="#156EF6"/>
<stop offset="0.965" stop-color="#75AAFF"/>
</linearGradient>
<linearGradient id="paint9_linear_21_5908" x1="375.441" y1="286.745" x2="479.678" y2="308.835" gradientUnits="userSpaceOnUse">
<stop offset="0.02" stop-color="#4F94FE"/>
<stop offset="0.265" stop-color="#92BDFF"/>
<stop offset="0.741137" stop-color="#156EF6"/>
<stop offset="0.965" stop-color="#75AAFF"/>
</linearGradient>
<linearGradient id="paint10_linear_21_5908" x1="189.5" y1="268" x2="189.5" y2="227" gradientUnits="userSpaceOnUse">
<stop stop-color="#156EF6"/>
<stop offset="0.5" stop-color="#156EF6" stop-opacity="0.2"/>
<stop offset="1" stop-color="#156EF6"/>
</linearGradient>
<linearGradient id="paint11_linear_21_5908" x1="194.5" y1="325" x2="194.5" y2="208" gradientUnits="userSpaceOnUse">
<stop stop-color="#156EF6"/>
<stop offset="0.5" stop-color="#156EF6" stop-opacity="0"/>
<stop offset="1" stop-color="#156EF6"/>
</linearGradient>
<linearGradient id="paint12_linear_21_5908" x1="232.5" y1="289" x2="232.5" y2="227" gradientUnits="userSpaceOnUse">
<stop stop-color="#156EF6"/>
<stop offset="0.5" stop-color="#156EF6" stop-opacity="0"/>
<stop offset="1" stop-color="#156EF6"/>
</linearGradient>
</defs>
</svg>
